M48
;DRILL file {KiCad 4.0.2-4+6225~38~ubuntu14.04.1-stable} date on. 13. april 2016 kl. 20.43 +0200
;FORMAT={-:-/ absolute / inch / decimal}
FMAT,2
INCH,TZ
T1C0.016
T2C0.031
T3C0.040
%
G90
G05
M72
T1
X3.85Y-4.
X4.725Y-4.175
X4.725Y-5.475
X4.7327Y-3.8923
X4.775Y-3.975
X4.825Y-4.475
X4.85Y-5.55
X4.875Y-3.65
X4.9Y-3.925
X4.9Y-5.35
X4.925Y-3.975
X4.925Y-4.525
X4.95Y-4.025
X4.975Y-4.075
X4.975Y-5.075
X5.Y-4.85
X5.05Y-4.55
X5.05Y-5.525
X5.075Y-4.85
X5.075Y-5.275
X5.1Y-5.025
X5.1Y-5.35
X5.125Y-4.3
X5.125Y-4.9
X5.125Y-5.575
X5.175Y-4.625
X5.2Y-4.475
X5.2049Y-5.0451
X5.225Y-4.2
X5.225Y-4.3
X5.325Y-3.65
X5.375Y-4.375
X5.4Y-4.425
X5.4Y-3.6
X5.4Y-3.95
X5.4Y-4.525
X5.4Y-4.775
X5.45Y-4.275
X5.575Y-4.0013
X5.575Y-4.5
T2
X4.Y-3.7
X4.Y-3.8
X4.Y-3.9
X4.Y-4.
X4.Y-4.1
X4.Y-4.2
X4.Y-4.3
X4.Y-4.4
X4.Y-4.5
X4.Y-4.6
X4.Y-4.7
X4.Y-4.8
X4.Y-4.9
X4.Y-5.
X4.1Y-5.
X4.2Y-5.
X4.3Y-5.
X4.4Y-5.
X4.5Y-3.8
X4.5Y-4.
X4.5Y-4.1
X4.5Y-4.2
X4.5Y-5.
X4.6Y-3.7
X4.6Y-3.8
X4.6Y-3.9
X4.6Y-4.
X4.6Y-4.1
X4.6Y-4.2
X4.6Y-4.3
X4.6Y-4.4
X4.6Y-4.5
X4.6Y-4.6
X4.6Y-4.7
X4.6Y-4.8
X4.6Y-4.9
X4.6Y-5.
T3
X4.175Y-5.2
X4.175Y-5.4
X4.175Y-5.6
X4.275Y-5.2
X4.275Y-5.4
X4.275Y-5.6
X4.375Y-5.2
X4.375Y-5.4
X4.375Y-5.6
X4.55Y-5.2
X4.55Y-5.3
X4.55Y-5.4
X4.55Y-5.5
X4.55Y-5.6
X4.55Y-5.7
T0
M30
