G04 #@! TF.FileFunction,Legend,Bot*
%FSLAX46Y46*%
G04 Gerber Fmt 4.6, Leading zero omitted, Abs format (unit mm)*
G04 Created by KiCad (PCBNEW 4.0.2-4+6225~38~ubuntu14.04.1-stable) date on. 13. april 2016 kl. 20.39 +0200*
%MOMM*%
G01*
G04 APERTURE LIST*
%ADD10C,0.100000*%
%ADD11C,0.150000*%
G04 APERTURE END LIST*
D10*
D11*
X112823476Y-106846667D02*
X112347285Y-106846667D01*
X112918714Y-107132381D02*
X112585381Y-106132381D01*
X112252047Y-107132381D01*
X111394904Y-107132381D02*
X111966333Y-107132381D01*
X111680619Y-107132381D02*
X111680619Y-106132381D01*
X111775857Y-106275238D01*
X111871095Y-106370476D01*
X111966333Y-106418095D01*
X110442523Y-107132381D02*
X111013952Y-107132381D01*
X110728238Y-107132381D02*
X110728238Y-106132381D01*
X110823476Y-106275238D01*
X110918714Y-106370476D01*
X111013952Y-106418095D01*
X112823476Y-104306667D02*
X112347285Y-104306667D01*
X112918714Y-104592381D02*
X112585381Y-103592381D01*
X112252047Y-104592381D01*
X111394904Y-104592381D02*
X111966333Y-104592381D01*
X111680619Y-104592381D02*
X111680619Y-103592381D01*
X111775857Y-103735238D01*
X111871095Y-103830476D01*
X111966333Y-103878095D01*
X110775857Y-103592381D02*
X110680618Y-103592381D01*
X110585380Y-103640000D01*
X110537761Y-103687619D01*
X110490142Y-103782857D01*
X110442523Y-103973333D01*
X110442523Y-104211429D01*
X110490142Y-104401905D01*
X110537761Y-104497143D01*
X110585380Y-104544762D01*
X110680618Y-104592381D01*
X110775857Y-104592381D01*
X110871095Y-104544762D01*
X110918714Y-104497143D01*
X110966333Y-104401905D01*
X111013952Y-104211429D01*
X111013952Y-103973333D01*
X110966333Y-103782857D01*
X110918714Y-103687619D01*
X110871095Y-103640000D01*
X110775857Y-103592381D01*
X112561667Y-99472952D02*
X112561667Y-99949143D01*
X112847381Y-99377714D02*
X111847381Y-99711047D01*
X112847381Y-100044381D01*
X112847381Y-100949143D02*
X112371190Y-100615809D01*
X112847381Y-100377714D02*
X111847381Y-100377714D01*
X111847381Y-100758667D01*
X111895000Y-100853905D01*
X111942619Y-100901524D01*
X112037857Y-100949143D01*
X112180714Y-100949143D01*
X112275952Y-100901524D01*
X112323571Y-100853905D01*
X112371190Y-100758667D01*
X112371190Y-100377714D01*
X112323571Y-101377714D02*
X112323571Y-101711048D01*
X112847381Y-101853905D02*
X112847381Y-101377714D01*
X111847381Y-101377714D01*
X111847381Y-101853905D01*
X112323571Y-102615810D02*
X112323571Y-102282476D01*
X112847381Y-102282476D02*
X111847381Y-102282476D01*
X111847381Y-102758667D01*
X111847381Y-94686667D02*
X112847381Y-95020000D01*
X111847381Y-95353334D01*
X111847381Y-95686667D02*
X112656905Y-95686667D01*
X112752143Y-95734286D01*
X112799762Y-95781905D01*
X112847381Y-95877143D01*
X112847381Y-96067620D01*
X112799762Y-96162858D01*
X112752143Y-96210477D01*
X112656905Y-96258096D01*
X111847381Y-96258096D01*
X112799762Y-96686667D02*
X112847381Y-96829524D01*
X112847381Y-97067620D01*
X112799762Y-97162858D01*
X112752143Y-97210477D01*
X112656905Y-97258096D01*
X112561667Y-97258096D01*
X112466429Y-97210477D01*
X112418810Y-97162858D01*
X112371190Y-97067620D01*
X112323571Y-96877143D01*
X112275952Y-96781905D01*
X112228333Y-96734286D01*
X112133095Y-96686667D01*
X112037857Y-96686667D01*
X111942619Y-96734286D01*
X111895000Y-96781905D01*
X111847381Y-96877143D01*
X111847381Y-97115239D01*
X111895000Y-97258096D01*
X112323571Y-98020001D02*
X112371190Y-98162858D01*
X112418810Y-98210477D01*
X112514048Y-98258096D01*
X112656905Y-98258096D01*
X112752143Y-98210477D01*
X112799762Y-98162858D01*
X112847381Y-98067620D01*
X112847381Y-97686667D01*
X111847381Y-97686667D01*
X111847381Y-98020001D01*
X111895000Y-98115239D01*
X111942619Y-98162858D01*
X112037857Y-98210477D01*
X112133095Y-98210477D01*
X112228333Y-98162858D01*
X112275952Y-98115239D01*
X112323571Y-98020001D01*
X112323571Y-97686667D01*
X120221238Y-93432381D02*
X119887905Y-94432381D01*
X119554571Y-93432381D01*
X119221238Y-94432381D02*
X119221238Y-93432381D01*
X118745048Y-94432381D02*
X118745048Y-93432381D01*
X118173619Y-94432381D01*
X118173619Y-93432381D01*
X121649905Y-96686667D02*
X121173714Y-96686667D01*
X121745143Y-96972381D02*
X121411810Y-95972381D01*
X121078476Y-96972381D01*
X120221333Y-96020000D02*
X120316571Y-95972381D01*
X120459428Y-95972381D01*
X120602286Y-96020000D01*
X120697524Y-96115238D01*
X120745143Y-96210476D01*
X120792762Y-96400952D01*
X120792762Y-96543810D01*
X120745143Y-96734286D01*
X120697524Y-96829524D01*
X120602286Y-96924762D01*
X120459428Y-96972381D01*
X120364190Y-96972381D01*
X120221333Y-96924762D01*
X120173714Y-96877143D01*
X120173714Y-96543810D01*
X120364190Y-96543810D01*
X119745143Y-96972381D02*
X119745143Y-95972381D01*
X119173714Y-96972381D01*
X119173714Y-95972381D01*
X118697524Y-96972381D02*
X118697524Y-95972381D01*
X118459429Y-95972381D01*
X118316571Y-96020000D01*
X118221333Y-96115238D01*
X118173714Y-96210476D01*
X118126095Y-96400952D01*
X118126095Y-96543810D01*
X118173714Y-96734286D01*
X118221333Y-96829524D01*
X118316571Y-96924762D01*
X118459429Y-96972381D01*
X118697524Y-96972381D01*
X120618095Y-98512381D02*
X119999047Y-98512381D01*
X120332381Y-98893333D01*
X120189523Y-98893333D01*
X120094285Y-98940952D01*
X120046666Y-98988571D01*
X119999047Y-99083810D01*
X119999047Y-99321905D01*
X120046666Y-99417143D01*
X120094285Y-99464762D01*
X120189523Y-99512381D01*
X120475238Y-99512381D01*
X120570476Y-99464762D01*
X120618095Y-99417143D01*
X119713333Y-98512381D02*
X119380000Y-99512381D01*
X119046666Y-98512381D01*
X118808571Y-98512381D02*
X118189523Y-98512381D01*
X118522857Y-98893333D01*
X118379999Y-98893333D01*
X118284761Y-98940952D01*
X118237142Y-98988571D01*
X118189523Y-99083810D01*
X118189523Y-99321905D01*
X118237142Y-99417143D01*
X118284761Y-99464762D01*
X118379999Y-99512381D01*
X118665714Y-99512381D01*
X118760952Y-99464762D01*
X118808571Y-99417143D01*
X118038619Y-100838095D02*
X117991000Y-100885714D01*
X117943381Y-100980952D01*
X117943381Y-101219048D01*
X117991000Y-101314286D01*
X118038619Y-101361905D01*
X118133857Y-101409524D01*
X118229095Y-101409524D01*
X118371952Y-101361905D01*
X118943381Y-100790476D01*
X118943381Y-101409524D01*
X117943381Y-101742857D02*
X117943381Y-102361905D01*
X118324333Y-102028571D01*
X118324333Y-102171429D01*
X118371952Y-102266667D01*
X118419571Y-102314286D01*
X118514810Y-102361905D01*
X118752905Y-102361905D01*
X118848143Y-102314286D01*
X118895762Y-102266667D01*
X118943381Y-102171429D01*
X118943381Y-101885714D01*
X118895762Y-101790476D01*
X118848143Y-101742857D01*
X118165619Y-103378095D02*
X118118000Y-103425714D01*
X118070381Y-103520952D01*
X118070381Y-103759048D01*
X118118000Y-103854286D01*
X118165619Y-103901905D01*
X118260857Y-103949524D01*
X118356095Y-103949524D01*
X118498952Y-103901905D01*
X119070381Y-103330476D01*
X119070381Y-103949524D01*
X118165619Y-104330476D02*
X118118000Y-104378095D01*
X118070381Y-104473333D01*
X118070381Y-104711429D01*
X118118000Y-104806667D01*
X118165619Y-104854286D01*
X118260857Y-104901905D01*
X118356095Y-104901905D01*
X118498952Y-104854286D01*
X119070381Y-104282857D01*
X119070381Y-104901905D01*
X118165619Y-105918095D02*
X118118000Y-105965714D01*
X118070381Y-106060952D01*
X118070381Y-106299048D01*
X118118000Y-106394286D01*
X118165619Y-106441905D01*
X118260857Y-106489524D01*
X118356095Y-106489524D01*
X118498952Y-106441905D01*
X119070381Y-105870476D01*
X119070381Y-106489524D01*
X119070381Y-107441905D02*
X119070381Y-106870476D01*
X119070381Y-107156190D02*
X118070381Y-107156190D01*
X118213238Y-107060952D01*
X118308476Y-106965714D01*
X118356095Y-106870476D01*
X118165619Y-108458095D02*
X118118000Y-108505714D01*
X118070381Y-108600952D01*
X118070381Y-108839048D01*
X118118000Y-108934286D01*
X118165619Y-108981905D01*
X118260857Y-109029524D01*
X118356095Y-109029524D01*
X118498952Y-108981905D01*
X119070381Y-108410476D01*
X119070381Y-109029524D01*
X118070381Y-109648571D02*
X118070381Y-109743810D01*
X118118000Y-109839048D01*
X118165619Y-109886667D01*
X118260857Y-109934286D01*
X118451333Y-109981905D01*
X118689429Y-109981905D01*
X118879905Y-109934286D01*
X118975143Y-109886667D01*
X119022762Y-109839048D01*
X119070381Y-109743810D01*
X119070381Y-109648571D01*
X119022762Y-109553333D01*
X118975143Y-109505714D01*
X118879905Y-109458095D01*
X118689429Y-109410476D01*
X118451333Y-109410476D01*
X118260857Y-109458095D01*
X118165619Y-109505714D01*
X118118000Y-109553333D01*
X118070381Y-109648571D01*
X119070381Y-111569524D02*
X119070381Y-110998095D01*
X119070381Y-111283809D02*
X118070381Y-111283809D01*
X118213238Y-111188571D01*
X118308476Y-111093333D01*
X118356095Y-110998095D01*
X119070381Y-112045714D02*
X119070381Y-112236190D01*
X119022762Y-112331429D01*
X118975143Y-112379048D01*
X118832286Y-112474286D01*
X118641810Y-112521905D01*
X118260857Y-112521905D01*
X118165619Y-112474286D01*
X118118000Y-112426667D01*
X118070381Y-112331429D01*
X118070381Y-112140952D01*
X118118000Y-112045714D01*
X118165619Y-111998095D01*
X118260857Y-111950476D01*
X118498952Y-111950476D01*
X118594190Y-111998095D01*
X118641810Y-112045714D01*
X118689429Y-112140952D01*
X118689429Y-112331429D01*
X118641810Y-112426667D01*
X118594190Y-112474286D01*
X118498952Y-112521905D01*
X119070381Y-114109524D02*
X119070381Y-113538095D01*
X119070381Y-113823809D02*
X118070381Y-113823809D01*
X118213238Y-113728571D01*
X118308476Y-113633333D01*
X118356095Y-113538095D01*
X118498952Y-114680952D02*
X118451333Y-114585714D01*
X118403714Y-114538095D01*
X118308476Y-114490476D01*
X118260857Y-114490476D01*
X118165619Y-114538095D01*
X118118000Y-114585714D01*
X118070381Y-114680952D01*
X118070381Y-114871429D01*
X118118000Y-114966667D01*
X118165619Y-115014286D01*
X118260857Y-115061905D01*
X118308476Y-115061905D01*
X118403714Y-115014286D01*
X118451333Y-114966667D01*
X118498952Y-114871429D01*
X118498952Y-114680952D01*
X118546571Y-114585714D01*
X118594190Y-114538095D01*
X118689429Y-114490476D01*
X118879905Y-114490476D01*
X118975143Y-114538095D01*
X119022762Y-114585714D01*
X119070381Y-114680952D01*
X119070381Y-114871429D01*
X119022762Y-114966667D01*
X118975143Y-115014286D01*
X118879905Y-115061905D01*
X118689429Y-115061905D01*
X118594190Y-115014286D01*
X118546571Y-114966667D01*
X118498952Y-114871429D01*
X119070381Y-116649524D02*
X119070381Y-116078095D01*
X119070381Y-116363809D02*
X118070381Y-116363809D01*
X118213238Y-116268571D01*
X118308476Y-116173333D01*
X118356095Y-116078095D01*
X118070381Y-116982857D02*
X118070381Y-117649524D01*
X119070381Y-117220952D01*
X119070381Y-119189524D02*
X119070381Y-118618095D01*
X119070381Y-118903809D02*
X118070381Y-118903809D01*
X118213238Y-118808571D01*
X118308476Y-118713333D01*
X118356095Y-118618095D01*
X118070381Y-120046667D02*
X118070381Y-119856190D01*
X118118000Y-119760952D01*
X118165619Y-119713333D01*
X118308476Y-119618095D01*
X118498952Y-119570476D01*
X118879905Y-119570476D01*
X118975143Y-119618095D01*
X119022762Y-119665714D01*
X119070381Y-119760952D01*
X119070381Y-119951429D01*
X119022762Y-120046667D01*
X118975143Y-120094286D01*
X118879905Y-120141905D01*
X118641810Y-120141905D01*
X118546571Y-120094286D01*
X118498952Y-120046667D01*
X118451333Y-119951429D01*
X118451333Y-119760952D01*
X118498952Y-119665714D01*
X118546571Y-119618095D01*
X118641810Y-119570476D01*
X119070381Y-121729524D02*
X119070381Y-121158095D01*
X119070381Y-121443809D02*
X118070381Y-121443809D01*
X118213238Y-121348571D01*
X118308476Y-121253333D01*
X118356095Y-121158095D01*
X118070381Y-122634286D02*
X118070381Y-122158095D01*
X118546571Y-122110476D01*
X118498952Y-122158095D01*
X118451333Y-122253333D01*
X118451333Y-122491429D01*
X118498952Y-122586667D01*
X118546571Y-122634286D01*
X118641810Y-122681905D01*
X118879905Y-122681905D01*
X118975143Y-122634286D01*
X119022762Y-122586667D01*
X119070381Y-122491429D01*
X119070381Y-122253333D01*
X119022762Y-122158095D01*
X118975143Y-122110476D01*
X119070381Y-124269524D02*
X119070381Y-123698095D01*
X119070381Y-123983809D02*
X118070381Y-123983809D01*
X118213238Y-123888571D01*
X118308476Y-123793333D01*
X118356095Y-123698095D01*
X118403714Y-125126667D02*
X119070381Y-125126667D01*
X118022762Y-124888571D02*
X118737048Y-124650476D01*
X118737048Y-125269524D01*
X119197381Y-126936524D02*
X119197381Y-126365095D01*
X119197381Y-126650809D02*
X118197381Y-126650809D01*
X118340238Y-126555571D01*
X118435476Y-126460333D01*
X118483095Y-126365095D01*
X118197381Y-127269857D02*
X118197381Y-127888905D01*
X118578333Y-127555571D01*
X118578333Y-127698429D01*
X118625952Y-127793667D01*
X118673571Y-127841286D01*
X118768810Y-127888905D01*
X119006905Y-127888905D01*
X119102143Y-127841286D01*
X119149762Y-127793667D01*
X119197381Y-127698429D01*
X119197381Y-127412714D01*
X119149762Y-127317476D01*
X119102143Y-127269857D01*
X114466667Y-128349524D02*
X114466667Y-128825715D01*
X114752381Y-128254286D02*
X113752381Y-128587619D01*
X114752381Y-128920953D01*
X114752381Y-129778096D02*
X114752381Y-129206667D01*
X114752381Y-129492381D02*
X113752381Y-129492381D01*
X113895238Y-129397143D01*
X113990476Y-129301905D01*
X114038095Y-129206667D01*
X114085714Y-130635239D02*
X114752381Y-130635239D01*
X113704762Y-130397143D02*
X114419048Y-130159048D01*
X114419048Y-130778096D01*
X112085381Y-128317809D02*
X111085381Y-128317809D01*
X111085381Y-128698762D01*
X111133000Y-128794000D01*
X111180619Y-128841619D01*
X111275857Y-128889238D01*
X111418714Y-128889238D01*
X111513952Y-128841619D01*
X111561571Y-128794000D01*
X111609190Y-128698762D01*
X111609190Y-128317809D01*
X112085381Y-129317809D02*
X111418714Y-129317809D01*
X111609190Y-129317809D02*
X111513952Y-129365428D01*
X111466333Y-129413047D01*
X111418714Y-129508285D01*
X111418714Y-129603524D01*
X112085381Y-130079714D02*
X112037762Y-129984476D01*
X111990143Y-129936857D01*
X111894905Y-129889238D01*
X111609190Y-129889238D01*
X111513952Y-129936857D01*
X111466333Y-129984476D01*
X111418714Y-130079714D01*
X111418714Y-130222572D01*
X111466333Y-130317810D01*
X111513952Y-130365429D01*
X111609190Y-130413048D01*
X111894905Y-130413048D01*
X111990143Y-130365429D01*
X112037762Y-130317810D01*
X112085381Y-130222572D01*
X112085381Y-130079714D01*
X111418714Y-131270191D02*
X112228238Y-131270191D01*
X112323476Y-131222572D01*
X112371095Y-131174953D01*
X112418714Y-131079714D01*
X112418714Y-130936857D01*
X112371095Y-130841619D01*
X112037762Y-131270191D02*
X112085381Y-131174953D01*
X112085381Y-130984476D01*
X112037762Y-130889238D01*
X111990143Y-130841619D01*
X111894905Y-130794000D01*
X111609190Y-130794000D01*
X111513952Y-130841619D01*
X111466333Y-130889238D01*
X111418714Y-130984476D01*
X111418714Y-131174953D01*
X111466333Y-131270191D01*
X108720000Y-129159096D02*
X108672381Y-129063858D01*
X108672381Y-128921001D01*
X108720000Y-128778143D01*
X108815238Y-128682905D01*
X108910476Y-128635286D01*
X109100952Y-128587667D01*
X109243810Y-128587667D01*
X109434286Y-128635286D01*
X109529524Y-128682905D01*
X109624762Y-128778143D01*
X109672381Y-128921001D01*
X109672381Y-129016239D01*
X109624762Y-129159096D01*
X109577143Y-129206715D01*
X109243810Y-129206715D01*
X109243810Y-129016239D01*
X109672381Y-129635286D02*
X108672381Y-129635286D01*
X109672381Y-130206715D01*
X108672381Y-130206715D01*
X109672381Y-130682905D02*
X108672381Y-130682905D01*
X108672381Y-130921000D01*
X108720000Y-131063858D01*
X108815238Y-131159096D01*
X108910476Y-131206715D01*
X109100952Y-131254334D01*
X109243810Y-131254334D01*
X109434286Y-131206715D01*
X109529524Y-131159096D01*
X109624762Y-131063858D01*
X109672381Y-130921000D01*
X109672381Y-130682905D01*
X106132381Y-128317810D02*
X106132381Y-128936858D01*
X106513333Y-128603524D01*
X106513333Y-128746382D01*
X106560952Y-128841620D01*
X106608571Y-128889239D01*
X106703810Y-128936858D01*
X106941905Y-128936858D01*
X107037143Y-128889239D01*
X107084762Y-128841620D01*
X107132381Y-128746382D01*
X107132381Y-128460667D01*
X107084762Y-128365429D01*
X107037143Y-128317810D01*
X107037143Y-129365429D02*
X107084762Y-129413048D01*
X107132381Y-129365429D01*
X107084762Y-129317810D01*
X107037143Y-129365429D01*
X107132381Y-129365429D01*
X106132381Y-129746381D02*
X106132381Y-130365429D01*
X106513333Y-130032095D01*
X106513333Y-130174953D01*
X106560952Y-130270191D01*
X106608571Y-130317810D01*
X106703810Y-130365429D01*
X106941905Y-130365429D01*
X107037143Y-130317810D01*
X107084762Y-130270191D01*
X107132381Y-130174953D01*
X107132381Y-129889238D01*
X107084762Y-129794000D01*
X107037143Y-129746381D01*
X106132381Y-130651143D02*
X107132381Y-130984476D01*
X106132381Y-131317810D01*
X103592381Y-128349571D02*
X104592381Y-128682904D01*
X103592381Y-129016238D01*
X104068571Y-129682905D02*
X104116190Y-129825762D01*
X104163810Y-129873381D01*
X104259048Y-129921000D01*
X104401905Y-129921000D01*
X104497143Y-129873381D01*
X104544762Y-129825762D01*
X104592381Y-129730524D01*
X104592381Y-129349571D01*
X103592381Y-129349571D01*
X103592381Y-129682905D01*
X103640000Y-129778143D01*
X103687619Y-129825762D01*
X103782857Y-129873381D01*
X103878095Y-129873381D01*
X103973333Y-129825762D01*
X104020952Y-129778143D01*
X104068571Y-129682905D01*
X104068571Y-129349571D01*
X104592381Y-130778143D02*
X104068571Y-130778143D01*
X103973333Y-130730524D01*
X103925714Y-130635286D01*
X103925714Y-130444809D01*
X103973333Y-130349571D01*
X104544762Y-130778143D02*
X104592381Y-130682905D01*
X104592381Y-130444809D01*
X104544762Y-130349571D01*
X104449524Y-130301952D01*
X104354286Y-130301952D01*
X104259048Y-130349571D01*
X104211429Y-130444809D01*
X104211429Y-130682905D01*
X104163810Y-130778143D01*
X103925714Y-131111476D02*
X103925714Y-131492428D01*
X103592381Y-131254333D02*
X104449524Y-131254333D01*
X104544762Y-131301952D01*
X104592381Y-131397190D01*
X104592381Y-131492428D01*
X100401381Y-126809524D02*
X100401381Y-126238095D01*
X100401381Y-126523809D02*
X99401381Y-126523809D01*
X99544238Y-126428571D01*
X99639476Y-126333333D01*
X99687095Y-126238095D01*
X99496619Y-127190476D02*
X99449000Y-127238095D01*
X99401381Y-127333333D01*
X99401381Y-127571429D01*
X99449000Y-127666667D01*
X99496619Y-127714286D01*
X99591857Y-127761905D01*
X99687095Y-127761905D01*
X99829952Y-127714286D01*
X100401381Y-127142857D01*
X100401381Y-127761905D01*
X102878000Y-93218096D02*
X102830381Y-93122858D01*
X102830381Y-92980001D01*
X102878000Y-92837143D01*
X102973238Y-92741905D01*
X103068476Y-92694286D01*
X103258952Y-92646667D01*
X103401810Y-92646667D01*
X103592286Y-92694286D01*
X103687524Y-92741905D01*
X103782762Y-92837143D01*
X103830381Y-92980001D01*
X103830381Y-93075239D01*
X103782762Y-93218096D01*
X103735143Y-93265715D01*
X103401810Y-93265715D01*
X103401810Y-93075239D01*
X103830381Y-93694286D02*
X102830381Y-93694286D01*
X103830381Y-94265715D01*
X102830381Y-94265715D01*
X103830381Y-94741905D02*
X102830381Y-94741905D01*
X102830381Y-94980000D01*
X102878000Y-95122858D01*
X102973238Y-95218096D01*
X103068476Y-95265715D01*
X103258952Y-95313334D01*
X103401810Y-95313334D01*
X103592286Y-95265715D01*
X103687524Y-95218096D01*
X103782762Y-95122858D01*
X103830381Y-94980000D01*
X103830381Y-94741905D01*
X103830381Y-124269524D02*
X103830381Y-123698095D01*
X103830381Y-123983809D02*
X102830381Y-123983809D01*
X102973238Y-123888571D01*
X103068476Y-123793333D01*
X103116095Y-123698095D01*
X103830381Y-125221905D02*
X103830381Y-124650476D01*
X103830381Y-124936190D02*
X102830381Y-124936190D01*
X102973238Y-124840952D01*
X103068476Y-124745714D01*
X103116095Y-124650476D01*
X103830381Y-121729524D02*
X103830381Y-121158095D01*
X103830381Y-121443809D02*
X102830381Y-121443809D01*
X102973238Y-121348571D01*
X103068476Y-121253333D01*
X103116095Y-121158095D01*
X102830381Y-122348571D02*
X102830381Y-122443810D01*
X102878000Y-122539048D01*
X102925619Y-122586667D01*
X103020857Y-122634286D01*
X103211333Y-122681905D01*
X103449429Y-122681905D01*
X103639905Y-122634286D01*
X103735143Y-122586667D01*
X103782762Y-122539048D01*
X103830381Y-122443810D01*
X103830381Y-122348571D01*
X103782762Y-122253333D01*
X103735143Y-122205714D01*
X103639905Y-122158095D01*
X103449429Y-122110476D01*
X103211333Y-122110476D01*
X103020857Y-122158095D01*
X102925619Y-122205714D01*
X102878000Y-122253333D01*
X102830381Y-122348571D01*
X103830381Y-119189524D02*
X103830381Y-119380000D01*
X103782762Y-119475239D01*
X103735143Y-119522858D01*
X103592286Y-119618096D01*
X103401810Y-119665715D01*
X103020857Y-119665715D01*
X102925619Y-119618096D01*
X102878000Y-119570477D01*
X102830381Y-119475239D01*
X102830381Y-119284762D01*
X102878000Y-119189524D01*
X102925619Y-119141905D01*
X103020857Y-119094286D01*
X103258952Y-119094286D01*
X103354190Y-119141905D01*
X103401810Y-119189524D01*
X103449429Y-119284762D01*
X103449429Y-119475239D01*
X103401810Y-119570477D01*
X103354190Y-119618096D01*
X103258952Y-119665715D01*
X103258952Y-116744762D02*
X103211333Y-116649524D01*
X103163714Y-116601905D01*
X103068476Y-116554286D01*
X103020857Y-116554286D01*
X102925619Y-116601905D01*
X102878000Y-116649524D01*
X102830381Y-116744762D01*
X102830381Y-116935239D01*
X102878000Y-117030477D01*
X102925619Y-117078096D01*
X103020857Y-117125715D01*
X103068476Y-117125715D01*
X103163714Y-117078096D01*
X103211333Y-117030477D01*
X103258952Y-116935239D01*
X103258952Y-116744762D01*
X103306571Y-116649524D01*
X103354190Y-116601905D01*
X103449429Y-116554286D01*
X103639905Y-116554286D01*
X103735143Y-116601905D01*
X103782762Y-116649524D01*
X103830381Y-116744762D01*
X103830381Y-116935239D01*
X103782762Y-117030477D01*
X103735143Y-117078096D01*
X103639905Y-117125715D01*
X103449429Y-117125715D01*
X103354190Y-117078096D01*
X103306571Y-117030477D01*
X103258952Y-116935239D01*
X102830381Y-113966667D02*
X102830381Y-114633334D01*
X103830381Y-114204762D01*
X102830381Y-111950477D02*
X102830381Y-111760000D01*
X102878000Y-111664762D01*
X102925619Y-111617143D01*
X103068476Y-111521905D01*
X103258952Y-111474286D01*
X103639905Y-111474286D01*
X103735143Y-111521905D01*
X103782762Y-111569524D01*
X103830381Y-111664762D01*
X103830381Y-111855239D01*
X103782762Y-111950477D01*
X103735143Y-111998096D01*
X103639905Y-112045715D01*
X103401810Y-112045715D01*
X103306571Y-111998096D01*
X103258952Y-111950477D01*
X103211333Y-111855239D01*
X103211333Y-111664762D01*
X103258952Y-111569524D01*
X103306571Y-111521905D01*
X103401810Y-111474286D01*
X102830381Y-109458096D02*
X102830381Y-108981905D01*
X103306571Y-108934286D01*
X103258952Y-108981905D01*
X103211333Y-109077143D01*
X103211333Y-109315239D01*
X103258952Y-109410477D01*
X103306571Y-109458096D01*
X103401810Y-109505715D01*
X103639905Y-109505715D01*
X103735143Y-109458096D01*
X103782762Y-109410477D01*
X103830381Y-109315239D01*
X103830381Y-109077143D01*
X103782762Y-108981905D01*
X103735143Y-108934286D01*
X103163714Y-106997477D02*
X103830381Y-106997477D01*
X102782762Y-106759381D02*
X103497048Y-106521286D01*
X103497048Y-107140334D01*
X102830381Y-103806667D02*
X102830381Y-104425715D01*
X103211333Y-104092381D01*
X103211333Y-104235239D01*
X103258952Y-104330477D01*
X103306571Y-104378096D01*
X103401810Y-104425715D01*
X103639905Y-104425715D01*
X103735143Y-104378096D01*
X103782762Y-104330477D01*
X103830381Y-104235239D01*
X103830381Y-103949524D01*
X103782762Y-103854286D01*
X103735143Y-103806667D01*
X102925619Y-101314286D02*
X102878000Y-101361905D01*
X102830381Y-101457143D01*
X102830381Y-101695239D01*
X102878000Y-101790477D01*
X102925619Y-101838096D01*
X103020857Y-101885715D01*
X103116095Y-101885715D01*
X103258952Y-101838096D01*
X103830381Y-101266667D01*
X103830381Y-101885715D01*
X103830381Y-99345715D02*
X103830381Y-98774286D01*
X103830381Y-99060000D02*
X102830381Y-99060000D01*
X102973238Y-98964762D01*
X103068476Y-98869524D01*
X103116095Y-98774286D01*
X102830381Y-96472381D02*
X102830381Y-96567620D01*
X102878000Y-96662858D01*
X102925619Y-96710477D01*
X103020857Y-96758096D01*
X103211333Y-96805715D01*
X103449429Y-96805715D01*
X103639905Y-96758096D01*
X103735143Y-96710477D01*
X103782762Y-96662858D01*
X103830381Y-96567620D01*
X103830381Y-96472381D01*
X103782762Y-96377143D01*
X103735143Y-96329524D01*
X103639905Y-96281905D01*
X103449429Y-96234286D01*
X103211333Y-96234286D01*
X103020857Y-96281905D01*
X102925619Y-96329524D01*
X102878000Y-96377143D01*
X102830381Y-96472381D01*
M02*
