G04 #@! TF.FileFunction,Legend,Top*
%FSLAX46Y46*%
G04 Gerber Fmt 4.6, Leading zero omitted, Abs format (unit mm)*
G04 Created by KiCad (PCBNEW 4.0.2-4+6225~38~ubuntu14.04.1-stable) date on. 13. april 2016 kl. 20.39 +0200*
%MOMM*%
G01*
G04 APERTURE LIST*
%ADD10C,0.100000*%
%ADD11C,0.150000*%
%ADD12C,0.200000*%
%ADD13C,0.381000*%
%ADD14C,0.299720*%
%ADD15C,0.250190*%
%ADD16C,0.251460*%
G04 APERTURE END LIST*
D10*
D11*
X107950000Y-95250000D02*
X107950000Y-93980000D01*
X107950000Y-93980000D02*
X104140000Y-93980000D01*
X114300000Y-93980000D02*
X110490000Y-93980000D01*
X110490000Y-93980000D02*
X110490000Y-95250000D01*
X110490000Y-95250000D02*
X107950000Y-95250000D01*
X114300000Y-93980000D02*
X114300000Y-124460000D01*
X114300000Y-124460000D02*
X104140000Y-124460000D01*
X104140000Y-124460000D02*
X104140000Y-93980000D01*
X114800000Y-88050000D02*
X113800000Y-88050000D01*
X113800000Y-89750000D02*
X114800000Y-89750000D01*
X109720000Y-89575000D02*
X108720000Y-89575000D01*
X108720000Y-88225000D02*
X109720000Y-88225000D01*
X107315000Y-143510000D02*
X112395000Y-143510000D01*
X112395000Y-143510000D02*
X112395000Y-140970000D01*
X112395000Y-140970000D02*
X107315000Y-140970000D01*
X104495000Y-140690000D02*
X106045000Y-140690000D01*
X107315000Y-140970000D02*
X107315000Y-143510000D01*
X106045000Y-143790000D02*
X104495000Y-143790000D01*
X104495000Y-143790000D02*
X104495000Y-140690000D01*
X107315000Y-138430000D02*
X112395000Y-138430000D01*
X112395000Y-138430000D02*
X112395000Y-135890000D01*
X112395000Y-135890000D02*
X107315000Y-135890000D01*
X104495000Y-135610000D02*
X106045000Y-135610000D01*
X107315000Y-135890000D02*
X107315000Y-138430000D01*
X106045000Y-138710000D02*
X104495000Y-138710000D01*
X104495000Y-138710000D02*
X104495000Y-135610000D01*
X107315000Y-133350000D02*
X112395000Y-133350000D01*
X112395000Y-133350000D02*
X112395000Y-130810000D01*
X112395000Y-130810000D02*
X107315000Y-130810000D01*
X104495000Y-130530000D02*
X106045000Y-130530000D01*
X107315000Y-130810000D02*
X107315000Y-133350000D01*
X106045000Y-133630000D02*
X104495000Y-133630000D01*
X104495000Y-133630000D02*
X104495000Y-130530000D01*
X103640000Y-88225000D02*
X104640000Y-88225000D01*
X104640000Y-89575000D02*
X103640000Y-89575000D01*
X127500000Y-126405000D02*
X126500000Y-126405000D01*
X126500000Y-125055000D02*
X127500000Y-125055000D01*
X127500000Y-121325000D02*
X126500000Y-121325000D01*
X126500000Y-119975000D02*
X127500000Y-119975000D01*
X128945000Y-107450000D02*
X128945000Y-108450000D01*
X127595000Y-108450000D02*
X127595000Y-107450000D01*
X134120000Y-110450000D02*
X135120000Y-110450000D01*
X135120000Y-111800000D02*
X134120000Y-111800000D01*
X134120000Y-112990000D02*
X135120000Y-112990000D01*
X135120000Y-114340000D02*
X134120000Y-114340000D01*
X134120000Y-100290000D02*
X135120000Y-100290000D01*
X135120000Y-101640000D02*
X134120000Y-101640000D01*
X134120000Y-103465000D02*
X135120000Y-103465000D01*
X135120000Y-104815000D02*
X134120000Y-104815000D01*
X133310000Y-95115000D02*
X133310000Y-94115000D01*
X134660000Y-94115000D02*
X134660000Y-95115000D01*
X135850000Y-95115000D02*
X135850000Y-94115000D01*
X137200000Y-94115000D02*
X137200000Y-95115000D01*
X123785000Y-95115000D02*
X123785000Y-94115000D01*
X125135000Y-94115000D02*
X125135000Y-95115000D01*
X125690000Y-95115000D02*
X125690000Y-94115000D01*
X127040000Y-94115000D02*
X127040000Y-95115000D01*
X126405000Y-137930000D02*
X126405000Y-138930000D01*
X125055000Y-138930000D02*
X125055000Y-137930000D01*
X122515000Y-138930000D02*
X122515000Y-137930000D01*
X123865000Y-137930000D02*
X123865000Y-138930000D01*
X134025000Y-137930000D02*
X134025000Y-138930000D01*
X132675000Y-138930000D02*
X132675000Y-137930000D01*
X131485000Y-137930000D02*
X131485000Y-138930000D01*
X130135000Y-138930000D02*
X130135000Y-137930000D01*
X134120000Y-129500000D02*
X135120000Y-129500000D01*
X135120000Y-130850000D02*
X134120000Y-130850000D01*
X134120000Y-132675000D02*
X135120000Y-132675000D01*
X135120000Y-134025000D02*
X134120000Y-134025000D01*
X134120000Y-119975000D02*
X135120000Y-119975000D01*
X135120000Y-121325000D02*
X134120000Y-121325000D01*
X134120000Y-123150000D02*
X135120000Y-123150000D01*
X135120000Y-124500000D02*
X134120000Y-124500000D01*
D12*
X108220000Y-96790000D02*
X110220000Y-96790000D01*
X110220000Y-96790000D02*
X110220000Y-98790000D01*
X110220000Y-98790000D02*
X108720000Y-98790000D01*
X108720000Y-98790000D02*
X108220000Y-98290000D01*
X108220000Y-98290000D02*
X108220000Y-96790000D01*
X106720000Y-96790000D02*
X106720000Y-98790000D01*
X108720000Y-100290000D02*
X109720000Y-100290000D01*
X111720000Y-96790000D02*
X111720000Y-98790000D01*
X108720000Y-95290000D02*
X109720000Y-95290000D01*
X108220000Y-114570000D02*
X110220000Y-114570000D01*
X110220000Y-114570000D02*
X110220000Y-116570000D01*
X110220000Y-116570000D02*
X108720000Y-116570000D01*
X108720000Y-116570000D02*
X108220000Y-116070000D01*
X108220000Y-116070000D02*
X108220000Y-114570000D01*
X106720000Y-114570000D02*
X106720000Y-116570000D01*
X108720000Y-118070000D02*
X109720000Y-118070000D01*
X111720000Y-114570000D02*
X111720000Y-116570000D01*
X108720000Y-113070000D02*
X109720000Y-113070000D01*
D11*
X114300000Y-143510000D02*
X114300000Y-130810000D01*
X114300000Y-130810000D02*
X116840000Y-130810000D01*
X116840000Y-130810000D02*
X116840000Y-143510000D01*
X114020000Y-146330000D02*
X114020000Y-144780000D01*
X114300000Y-143510000D02*
X116840000Y-143510000D01*
X117120000Y-144780000D02*
X117120000Y-146330000D01*
X117120000Y-146330000D02*
X114020000Y-146330000D01*
X129755000Y-111975000D02*
X129730000Y-111975000D01*
X129755000Y-116625000D02*
X129730000Y-116625000D01*
X121705000Y-116625000D02*
X121730000Y-116625000D01*
X121705000Y-111975000D02*
X121730000Y-111975000D01*
X129755000Y-111975000D02*
X129755000Y-116625000D01*
X121705000Y-111975000D02*
X121705000Y-116625000D01*
X129730000Y-111975000D02*
X129730000Y-110900000D01*
D13*
X142669260Y-111031020D02*
X142669260Y-115028980D01*
D14*
X139966700Y-110830360D02*
X140868400Y-110830360D01*
X139969240Y-115229640D02*
X140870940Y-115229640D01*
D13*
X142669260Y-99601020D02*
X142669260Y-103598980D01*
D14*
X139966700Y-99400360D02*
X140868400Y-99400360D01*
X139969240Y-103799640D02*
X140870940Y-103799640D01*
D13*
X131351020Y-87200740D02*
X135348980Y-87200740D01*
D14*
X131150360Y-89903300D02*
X131150360Y-89001600D01*
X135549640Y-89900760D02*
X135549640Y-88999060D01*
D13*
X122461020Y-87200740D02*
X126458980Y-87200740D01*
D14*
X122260360Y-89903300D02*
X122260360Y-89001600D01*
X126659640Y-89900760D02*
X126659640Y-88999060D01*
D13*
X126458980Y-146479260D02*
X122461020Y-146479260D01*
D14*
X126659640Y-143776700D02*
X126659640Y-144678400D01*
X122260360Y-143779240D02*
X122260360Y-144680940D01*
D13*
X135348980Y-146479260D02*
X131351020Y-146479260D01*
D14*
X135549640Y-143776700D02*
X135549640Y-144678400D01*
X131150360Y-143779240D02*
X131150360Y-144680940D01*
D13*
X142669260Y-131986020D02*
X142669260Y-135983980D01*
D14*
X139966700Y-131785360D02*
X140868400Y-131785360D01*
X139969240Y-136184640D02*
X140870940Y-136184640D01*
D13*
X142669260Y-121826020D02*
X142669260Y-125823980D01*
D14*
X139966700Y-121625360D02*
X140868400Y-121625360D01*
X139969240Y-126024640D02*
X140870940Y-126024640D01*
D11*
X108077143Y-90618571D02*
X108077143Y-91832857D01*
X108148571Y-91975714D01*
X108220000Y-92047143D01*
X108362857Y-92118571D01*
X108648571Y-92118571D01*
X108791429Y-92047143D01*
X108862857Y-91975714D01*
X108934286Y-91832857D01*
X108934286Y-90618571D01*
X109577143Y-90761429D02*
X109648572Y-90690000D01*
X109791429Y-90618571D01*
X110148572Y-90618571D01*
X110291429Y-90690000D01*
X110362858Y-90761429D01*
X110434286Y-90904286D01*
X110434286Y-91047143D01*
X110362858Y-91261429D01*
X109505715Y-92118571D01*
X110434286Y-92118571D01*
X114133334Y-87157143D02*
X114085715Y-87204762D01*
X113942858Y-87252381D01*
X113847620Y-87252381D01*
X113704762Y-87204762D01*
X113609524Y-87109524D01*
X113561905Y-87014286D01*
X113514286Y-86823810D01*
X113514286Y-86680952D01*
X113561905Y-86490476D01*
X113609524Y-86395238D01*
X113704762Y-86300000D01*
X113847620Y-86252381D01*
X113942858Y-86252381D01*
X114085715Y-86300000D01*
X114133334Y-86347619D01*
X115085715Y-87252381D02*
X114514286Y-87252381D01*
X114800000Y-87252381D02*
X114800000Y-86252381D01*
X114704762Y-86395238D01*
X114609524Y-86490476D01*
X114514286Y-86538095D01*
X108481905Y-87452381D02*
X108481905Y-86452381D01*
X108720000Y-86452381D01*
X108862858Y-86500000D01*
X108958096Y-86595238D01*
X109005715Y-86690476D01*
X109053334Y-86880952D01*
X109053334Y-87023810D01*
X109005715Y-87214286D01*
X108958096Y-87309524D01*
X108862858Y-87404762D01*
X108720000Y-87452381D01*
X108481905Y-87452381D01*
X110005715Y-87452381D02*
X109434286Y-87452381D01*
X109720000Y-87452381D02*
X109720000Y-86452381D01*
X109624762Y-86595238D01*
X109529524Y-86690476D01*
X109434286Y-86738095D01*
X102131905Y-142692381D02*
X102131905Y-141692381D01*
X102512858Y-141692381D01*
X102608096Y-141740000D01*
X102655715Y-141787619D01*
X102703334Y-141882857D01*
X102703334Y-142025714D01*
X102655715Y-142120952D01*
X102608096Y-142168571D01*
X102512858Y-142216190D01*
X102131905Y-142216190D01*
X103655715Y-142692381D02*
X103084286Y-142692381D01*
X103370000Y-142692381D02*
X103370000Y-141692381D01*
X103274762Y-141835238D01*
X103179524Y-141930476D01*
X103084286Y-141978095D01*
X106323095Y-145867381D02*
X106323095Y-144867381D01*
X106656429Y-145581667D01*
X106989762Y-144867381D01*
X106989762Y-145867381D01*
X107656428Y-144867381D02*
X107846905Y-144867381D01*
X107942143Y-144915000D01*
X108037381Y-145010238D01*
X108085000Y-145200714D01*
X108085000Y-145534048D01*
X108037381Y-145724524D01*
X107942143Y-145819762D01*
X107846905Y-145867381D01*
X107656428Y-145867381D01*
X107561190Y-145819762D01*
X107465952Y-145724524D01*
X107418333Y-145534048D01*
X107418333Y-145200714D01*
X107465952Y-145010238D01*
X107561190Y-144915000D01*
X107656428Y-144867381D01*
X108370714Y-144867381D02*
X108942143Y-144867381D01*
X108656428Y-145867381D02*
X108656428Y-144867381D01*
X109465952Y-144867381D02*
X109656429Y-144867381D01*
X109751667Y-144915000D01*
X109846905Y-145010238D01*
X109894524Y-145200714D01*
X109894524Y-145534048D01*
X109846905Y-145724524D01*
X109751667Y-145819762D01*
X109656429Y-145867381D01*
X109465952Y-145867381D01*
X109370714Y-145819762D01*
X109275476Y-145724524D01*
X109227857Y-145534048D01*
X109227857Y-145200714D01*
X109275476Y-145010238D01*
X109370714Y-144915000D01*
X109465952Y-144867381D01*
X110894524Y-145867381D02*
X110561190Y-145391190D01*
X110323095Y-145867381D02*
X110323095Y-144867381D01*
X110704048Y-144867381D01*
X110799286Y-144915000D01*
X110846905Y-144962619D01*
X110894524Y-145057857D01*
X110894524Y-145200714D01*
X110846905Y-145295952D01*
X110799286Y-145343571D01*
X110704048Y-145391190D01*
X110323095Y-145391190D01*
X100226905Y-139517381D02*
X100226905Y-138517381D01*
X100607858Y-138517381D01*
X100703096Y-138565000D01*
X100750715Y-138612619D01*
X100798334Y-138707857D01*
X100798334Y-138850714D01*
X100750715Y-138945952D01*
X100703096Y-138993571D01*
X100607858Y-139041190D01*
X100226905Y-139041190D01*
X101179286Y-138612619D02*
X101226905Y-138565000D01*
X101322143Y-138517381D01*
X101560239Y-138517381D01*
X101655477Y-138565000D01*
X101703096Y-138612619D01*
X101750715Y-138707857D01*
X101750715Y-138803095D01*
X101703096Y-138945952D01*
X101131667Y-139517381D01*
X101750715Y-139517381D01*
X96996667Y-137564762D02*
X97139524Y-137612381D01*
X97377620Y-137612381D01*
X97472858Y-137564762D01*
X97520477Y-137517143D01*
X97568096Y-137421905D01*
X97568096Y-137326667D01*
X97520477Y-137231429D01*
X97472858Y-137183810D01*
X97377620Y-137136190D01*
X97187143Y-137088571D01*
X97091905Y-137040952D01*
X97044286Y-136993333D01*
X96996667Y-136898095D01*
X96996667Y-136802857D01*
X97044286Y-136707619D01*
X97091905Y-136660000D01*
X97187143Y-136612381D01*
X97425239Y-136612381D01*
X97568096Y-136660000D01*
X97853810Y-136612381D02*
X98425239Y-136612381D01*
X98139524Y-137612381D02*
X98139524Y-136612381D01*
X98758572Y-137088571D02*
X99091906Y-137088571D01*
X99234763Y-137612381D02*
X98758572Y-137612381D01*
X98758572Y-136612381D01*
X99234763Y-136612381D01*
X99663334Y-137088571D02*
X99996668Y-137088571D01*
X100139525Y-137612381D02*
X99663334Y-137612381D01*
X99663334Y-136612381D01*
X100139525Y-136612381D01*
X101139525Y-137612381D02*
X100806191Y-137136190D01*
X100568096Y-137612381D02*
X100568096Y-136612381D01*
X100949049Y-136612381D01*
X101044287Y-136660000D01*
X101091906Y-136707619D01*
X101139525Y-136802857D01*
X101139525Y-136945714D01*
X101091906Y-137040952D01*
X101044287Y-137088571D01*
X100949049Y-137136190D01*
X100568096Y-137136190D01*
X101568096Y-137612381D02*
X101568096Y-136612381D01*
X102044286Y-137612381D02*
X102044286Y-136612381D01*
X102615715Y-137612381D01*
X102615715Y-136612381D01*
X103615715Y-136660000D02*
X103520477Y-136612381D01*
X103377620Y-136612381D01*
X103234762Y-136660000D01*
X103139524Y-136755238D01*
X103091905Y-136850476D01*
X103044286Y-137040952D01*
X103044286Y-137183810D01*
X103091905Y-137374286D01*
X103139524Y-137469524D01*
X103234762Y-137564762D01*
X103377620Y-137612381D01*
X103472858Y-137612381D01*
X103615715Y-137564762D01*
X103663334Y-137517143D01*
X103663334Y-137183810D01*
X103472858Y-137183810D01*
X100226905Y-134437381D02*
X100226905Y-133437381D01*
X100607858Y-133437381D01*
X100703096Y-133485000D01*
X100750715Y-133532619D01*
X100798334Y-133627857D01*
X100798334Y-133770714D01*
X100750715Y-133865952D01*
X100703096Y-133913571D01*
X100607858Y-133961190D01*
X100226905Y-133961190D01*
X101131667Y-133437381D02*
X101750715Y-133437381D01*
X101417381Y-133818333D01*
X101560239Y-133818333D01*
X101655477Y-133865952D01*
X101703096Y-133913571D01*
X101750715Y-134008810D01*
X101750715Y-134246905D01*
X101703096Y-134342143D01*
X101655477Y-134389762D01*
X101560239Y-134437381D01*
X101274524Y-134437381D01*
X101179286Y-134389762D01*
X101131667Y-134342143D01*
X98988809Y-132484762D02*
X99131666Y-132532381D01*
X99369762Y-132532381D01*
X99465000Y-132484762D01*
X99512619Y-132437143D01*
X99560238Y-132341905D01*
X99560238Y-132246667D01*
X99512619Y-132151429D01*
X99465000Y-132103810D01*
X99369762Y-132056190D01*
X99179285Y-132008571D01*
X99084047Y-131960952D01*
X99036428Y-131913333D01*
X98988809Y-131818095D01*
X98988809Y-131722857D01*
X99036428Y-131627619D01*
X99084047Y-131580000D01*
X99179285Y-131532381D01*
X99417381Y-131532381D01*
X99560238Y-131580000D01*
X99845952Y-131532381D02*
X100417381Y-131532381D01*
X100131666Y-132532381D02*
X100131666Y-131532381D01*
X100703095Y-132246667D02*
X101179286Y-132246667D01*
X100607857Y-132532381D02*
X100941190Y-131532381D01*
X101274524Y-132532381D01*
X102179286Y-132532381D02*
X101845952Y-132056190D01*
X101607857Y-132532381D02*
X101607857Y-131532381D01*
X101988810Y-131532381D01*
X102084048Y-131580000D01*
X102131667Y-131627619D01*
X102179286Y-131722857D01*
X102179286Y-131865714D01*
X102131667Y-131960952D01*
X102084048Y-132008571D01*
X101988810Y-132056190D01*
X101607857Y-132056190D01*
X102465000Y-131532381D02*
X103036429Y-131532381D01*
X102750714Y-132532381D02*
X102750714Y-131532381D01*
X103973334Y-91252381D02*
X103640000Y-90776190D01*
X103401905Y-91252381D02*
X103401905Y-90252381D01*
X103782858Y-90252381D01*
X103878096Y-90300000D01*
X103925715Y-90347619D01*
X103973334Y-90442857D01*
X103973334Y-90585714D01*
X103925715Y-90680952D01*
X103878096Y-90728571D01*
X103782858Y-90776190D01*
X103401905Y-90776190D01*
X104925715Y-91252381D02*
X104354286Y-91252381D01*
X104640000Y-91252381D02*
X104640000Y-90252381D01*
X104544762Y-90395238D01*
X104449524Y-90490476D01*
X104354286Y-90538095D01*
X126833334Y-124282381D02*
X126500000Y-123806190D01*
X126261905Y-124282381D02*
X126261905Y-123282381D01*
X126642858Y-123282381D01*
X126738096Y-123330000D01*
X126785715Y-123377619D01*
X126833334Y-123472857D01*
X126833334Y-123615714D01*
X126785715Y-123710952D01*
X126738096Y-123758571D01*
X126642858Y-123806190D01*
X126261905Y-123806190D01*
X127214286Y-123377619D02*
X127261905Y-123330000D01*
X127357143Y-123282381D01*
X127595239Y-123282381D01*
X127690477Y-123330000D01*
X127738096Y-123377619D01*
X127785715Y-123472857D01*
X127785715Y-123568095D01*
X127738096Y-123710952D01*
X127166667Y-124282381D01*
X127785715Y-124282381D01*
X126833334Y-119202381D02*
X126500000Y-118726190D01*
X126261905Y-119202381D02*
X126261905Y-118202381D01*
X126642858Y-118202381D01*
X126738096Y-118250000D01*
X126785715Y-118297619D01*
X126833334Y-118392857D01*
X126833334Y-118535714D01*
X126785715Y-118630952D01*
X126738096Y-118678571D01*
X126642858Y-118726190D01*
X126261905Y-118726190D01*
X127166667Y-118202381D02*
X127785715Y-118202381D01*
X127452381Y-118583333D01*
X127595239Y-118583333D01*
X127690477Y-118630952D01*
X127738096Y-118678571D01*
X127785715Y-118773810D01*
X127785715Y-119011905D01*
X127738096Y-119107143D01*
X127690477Y-119154762D01*
X127595239Y-119202381D01*
X127309524Y-119202381D01*
X127214286Y-119154762D01*
X127166667Y-119107143D01*
X126822381Y-108116666D02*
X126346190Y-108450000D01*
X126822381Y-108688095D02*
X125822381Y-108688095D01*
X125822381Y-108307142D01*
X125870000Y-108211904D01*
X125917619Y-108164285D01*
X126012857Y-108116666D01*
X126155714Y-108116666D01*
X126250952Y-108164285D01*
X126298571Y-108211904D01*
X126346190Y-108307142D01*
X126346190Y-108688095D01*
X126155714Y-107259523D02*
X126822381Y-107259523D01*
X125774762Y-107497619D02*
X126489048Y-107735714D01*
X126489048Y-107116666D01*
X134453334Y-113477381D02*
X134120000Y-113001190D01*
X133881905Y-113477381D02*
X133881905Y-112477381D01*
X134262858Y-112477381D01*
X134358096Y-112525000D01*
X134405715Y-112572619D01*
X134453334Y-112667857D01*
X134453334Y-112810714D01*
X134405715Y-112905952D01*
X134358096Y-112953571D01*
X134262858Y-113001190D01*
X133881905Y-113001190D01*
X135358096Y-112477381D02*
X134881905Y-112477381D01*
X134834286Y-112953571D01*
X134881905Y-112905952D01*
X134977143Y-112858333D01*
X135215239Y-112858333D01*
X135310477Y-112905952D01*
X135358096Y-112953571D01*
X135405715Y-113048810D01*
X135405715Y-113286905D01*
X135358096Y-113382143D01*
X135310477Y-113429762D01*
X135215239Y-113477381D01*
X134977143Y-113477381D01*
X134881905Y-113429762D01*
X134834286Y-113382143D01*
X134453334Y-116017381D02*
X134120000Y-115541190D01*
X133881905Y-116017381D02*
X133881905Y-115017381D01*
X134262858Y-115017381D01*
X134358096Y-115065000D01*
X134405715Y-115112619D01*
X134453334Y-115207857D01*
X134453334Y-115350714D01*
X134405715Y-115445952D01*
X134358096Y-115493571D01*
X134262858Y-115541190D01*
X133881905Y-115541190D01*
X135310477Y-115017381D02*
X135120000Y-115017381D01*
X135024762Y-115065000D01*
X134977143Y-115112619D01*
X134881905Y-115255476D01*
X134834286Y-115445952D01*
X134834286Y-115826905D01*
X134881905Y-115922143D01*
X134929524Y-115969762D01*
X135024762Y-116017381D01*
X135215239Y-116017381D01*
X135310477Y-115969762D01*
X135358096Y-115922143D01*
X135405715Y-115826905D01*
X135405715Y-115588810D01*
X135358096Y-115493571D01*
X135310477Y-115445952D01*
X135215239Y-115398333D01*
X135024762Y-115398333D01*
X134929524Y-115445952D01*
X134881905Y-115493571D01*
X134834286Y-115588810D01*
X134453334Y-103317381D02*
X134120000Y-102841190D01*
X133881905Y-103317381D02*
X133881905Y-102317381D01*
X134262858Y-102317381D01*
X134358096Y-102365000D01*
X134405715Y-102412619D01*
X134453334Y-102507857D01*
X134453334Y-102650714D01*
X134405715Y-102745952D01*
X134358096Y-102793571D01*
X134262858Y-102841190D01*
X133881905Y-102841190D01*
X134786667Y-102317381D02*
X135453334Y-102317381D01*
X135024762Y-103317381D01*
X134453334Y-106492381D02*
X134120000Y-106016190D01*
X133881905Y-106492381D02*
X133881905Y-105492381D01*
X134262858Y-105492381D01*
X134358096Y-105540000D01*
X134405715Y-105587619D01*
X134453334Y-105682857D01*
X134453334Y-105825714D01*
X134405715Y-105920952D01*
X134358096Y-105968571D01*
X134262858Y-106016190D01*
X133881905Y-106016190D01*
X135024762Y-105920952D02*
X134929524Y-105873333D01*
X134881905Y-105825714D01*
X134834286Y-105730476D01*
X134834286Y-105682857D01*
X134881905Y-105587619D01*
X134929524Y-105540000D01*
X135024762Y-105492381D01*
X135215239Y-105492381D01*
X135310477Y-105540000D01*
X135358096Y-105587619D01*
X135405715Y-105682857D01*
X135405715Y-105730476D01*
X135358096Y-105825714D01*
X135310477Y-105873333D01*
X135215239Y-105920952D01*
X135024762Y-105920952D01*
X134929524Y-105968571D01*
X134881905Y-106016190D01*
X134834286Y-106111429D01*
X134834286Y-106301905D01*
X134881905Y-106397143D01*
X134929524Y-106444762D01*
X135024762Y-106492381D01*
X135215239Y-106492381D01*
X135310477Y-106444762D01*
X135358096Y-106397143D01*
X135405715Y-106301905D01*
X135405715Y-106111429D01*
X135358096Y-106016190D01*
X135310477Y-105968571D01*
X135215239Y-105920952D01*
X136337381Y-94781666D02*
X135861190Y-95115000D01*
X136337381Y-95353095D02*
X135337381Y-95353095D01*
X135337381Y-94972142D01*
X135385000Y-94876904D01*
X135432619Y-94829285D01*
X135527857Y-94781666D01*
X135670714Y-94781666D01*
X135765952Y-94829285D01*
X135813571Y-94876904D01*
X135861190Y-94972142D01*
X135861190Y-95353095D01*
X136337381Y-94305476D02*
X136337381Y-94115000D01*
X136289762Y-94019761D01*
X136242143Y-93972142D01*
X136099286Y-93876904D01*
X135908810Y-93829285D01*
X135527857Y-93829285D01*
X135432619Y-93876904D01*
X135385000Y-93924523D01*
X135337381Y-94019761D01*
X135337381Y-94210238D01*
X135385000Y-94305476D01*
X135432619Y-94353095D01*
X135527857Y-94400714D01*
X135765952Y-94400714D01*
X135861190Y-94353095D01*
X135908810Y-94305476D01*
X135956429Y-94210238D01*
X135956429Y-94019761D01*
X135908810Y-93924523D01*
X135861190Y-93876904D01*
X135765952Y-93829285D01*
X138877381Y-95257857D02*
X138401190Y-95591191D01*
X138877381Y-95829286D02*
X137877381Y-95829286D01*
X137877381Y-95448333D01*
X137925000Y-95353095D01*
X137972619Y-95305476D01*
X138067857Y-95257857D01*
X138210714Y-95257857D01*
X138305952Y-95305476D01*
X138353571Y-95353095D01*
X138401190Y-95448333D01*
X138401190Y-95829286D01*
X138877381Y-94305476D02*
X138877381Y-94876905D01*
X138877381Y-94591191D02*
X137877381Y-94591191D01*
X138020238Y-94686429D01*
X138115476Y-94781667D01*
X138163095Y-94876905D01*
X137877381Y-93686429D02*
X137877381Y-93591190D01*
X137925000Y-93495952D01*
X137972619Y-93448333D01*
X138067857Y-93400714D01*
X138258333Y-93353095D01*
X138496429Y-93353095D01*
X138686905Y-93400714D01*
X138782143Y-93448333D01*
X138829762Y-93495952D01*
X138877381Y-93591190D01*
X138877381Y-93686429D01*
X138829762Y-93781667D01*
X138782143Y-93829286D01*
X138686905Y-93876905D01*
X138496429Y-93924524D01*
X138258333Y-93924524D01*
X138067857Y-93876905D01*
X137972619Y-93829286D01*
X137925000Y-93781667D01*
X137877381Y-93686429D01*
X126812381Y-95257857D02*
X126336190Y-95591191D01*
X126812381Y-95829286D02*
X125812381Y-95829286D01*
X125812381Y-95448333D01*
X125860000Y-95353095D01*
X125907619Y-95305476D01*
X126002857Y-95257857D01*
X126145714Y-95257857D01*
X126240952Y-95305476D01*
X126288571Y-95353095D01*
X126336190Y-95448333D01*
X126336190Y-95829286D01*
X126812381Y-94305476D02*
X126812381Y-94876905D01*
X126812381Y-94591191D02*
X125812381Y-94591191D01*
X125955238Y-94686429D01*
X126050476Y-94781667D01*
X126098095Y-94876905D01*
X126812381Y-93353095D02*
X126812381Y-93924524D01*
X126812381Y-93638810D02*
X125812381Y-93638810D01*
X125955238Y-93734048D01*
X126050476Y-93829286D01*
X126098095Y-93924524D01*
X128717381Y-95257857D02*
X128241190Y-95591191D01*
X128717381Y-95829286D02*
X127717381Y-95829286D01*
X127717381Y-95448333D01*
X127765000Y-95353095D01*
X127812619Y-95305476D01*
X127907857Y-95257857D01*
X128050714Y-95257857D01*
X128145952Y-95305476D01*
X128193571Y-95353095D01*
X128241190Y-95448333D01*
X128241190Y-95829286D01*
X128717381Y-94305476D02*
X128717381Y-94876905D01*
X128717381Y-94591191D02*
X127717381Y-94591191D01*
X127860238Y-94686429D01*
X127955476Y-94781667D01*
X128003095Y-94876905D01*
X127812619Y-93924524D02*
X127765000Y-93876905D01*
X127717381Y-93781667D01*
X127717381Y-93543571D01*
X127765000Y-93448333D01*
X127812619Y-93400714D01*
X127907857Y-93353095D01*
X128003095Y-93353095D01*
X128145952Y-93400714D01*
X128717381Y-93972143D01*
X128717381Y-93353095D01*
X124282381Y-139072857D02*
X123806190Y-139406191D01*
X124282381Y-139644286D02*
X123282381Y-139644286D01*
X123282381Y-139263333D01*
X123330000Y-139168095D01*
X123377619Y-139120476D01*
X123472857Y-139072857D01*
X123615714Y-139072857D01*
X123710952Y-139120476D01*
X123758571Y-139168095D01*
X123806190Y-139263333D01*
X123806190Y-139644286D01*
X124282381Y-138120476D02*
X124282381Y-138691905D01*
X124282381Y-138406191D02*
X123282381Y-138406191D01*
X123425238Y-138501429D01*
X123520476Y-138596667D01*
X123568095Y-138691905D01*
X123282381Y-137787143D02*
X123282381Y-137168095D01*
X123663333Y-137501429D01*
X123663333Y-137358571D01*
X123710952Y-137263333D01*
X123758571Y-137215714D01*
X123853810Y-137168095D01*
X124091905Y-137168095D01*
X124187143Y-137215714D01*
X124234762Y-137263333D01*
X124282381Y-137358571D01*
X124282381Y-137644286D01*
X124234762Y-137739524D01*
X124187143Y-137787143D01*
X125542381Y-139072857D02*
X125066190Y-139406191D01*
X125542381Y-139644286D02*
X124542381Y-139644286D01*
X124542381Y-139263333D01*
X124590000Y-139168095D01*
X124637619Y-139120476D01*
X124732857Y-139072857D01*
X124875714Y-139072857D01*
X124970952Y-139120476D01*
X125018571Y-139168095D01*
X125066190Y-139263333D01*
X125066190Y-139644286D01*
X125542381Y-138120476D02*
X125542381Y-138691905D01*
X125542381Y-138406191D02*
X124542381Y-138406191D01*
X124685238Y-138501429D01*
X124780476Y-138596667D01*
X124828095Y-138691905D01*
X124875714Y-137263333D02*
X125542381Y-137263333D01*
X124494762Y-137501429D02*
X125209048Y-137739524D01*
X125209048Y-137120476D01*
X131902381Y-139072857D02*
X131426190Y-139406191D01*
X131902381Y-139644286D02*
X130902381Y-139644286D01*
X130902381Y-139263333D01*
X130950000Y-139168095D01*
X130997619Y-139120476D01*
X131092857Y-139072857D01*
X131235714Y-139072857D01*
X131330952Y-139120476D01*
X131378571Y-139168095D01*
X131426190Y-139263333D01*
X131426190Y-139644286D01*
X131902381Y-138120476D02*
X131902381Y-138691905D01*
X131902381Y-138406191D02*
X130902381Y-138406191D01*
X131045238Y-138501429D01*
X131140476Y-138596667D01*
X131188095Y-138691905D01*
X130902381Y-137215714D02*
X130902381Y-137691905D01*
X131378571Y-137739524D01*
X131330952Y-137691905D01*
X131283333Y-137596667D01*
X131283333Y-137358571D01*
X131330952Y-137263333D01*
X131378571Y-137215714D01*
X131473810Y-137168095D01*
X131711905Y-137168095D01*
X131807143Y-137215714D01*
X131854762Y-137263333D01*
X131902381Y-137358571D01*
X131902381Y-137596667D01*
X131854762Y-137691905D01*
X131807143Y-137739524D01*
X129362381Y-139072857D02*
X128886190Y-139406191D01*
X129362381Y-139644286D02*
X128362381Y-139644286D01*
X128362381Y-139263333D01*
X128410000Y-139168095D01*
X128457619Y-139120476D01*
X128552857Y-139072857D01*
X128695714Y-139072857D01*
X128790952Y-139120476D01*
X128838571Y-139168095D01*
X128886190Y-139263333D01*
X128886190Y-139644286D01*
X129362381Y-138120476D02*
X129362381Y-138691905D01*
X129362381Y-138406191D02*
X128362381Y-138406191D01*
X128505238Y-138501429D01*
X128600476Y-138596667D01*
X128648095Y-138691905D01*
X128362381Y-137263333D02*
X128362381Y-137453810D01*
X128410000Y-137549048D01*
X128457619Y-137596667D01*
X128600476Y-137691905D01*
X128790952Y-137739524D01*
X129171905Y-137739524D01*
X129267143Y-137691905D01*
X129314762Y-137644286D01*
X129362381Y-137549048D01*
X129362381Y-137358571D01*
X129314762Y-137263333D01*
X129267143Y-137215714D01*
X129171905Y-137168095D01*
X128933810Y-137168095D01*
X128838571Y-137215714D01*
X128790952Y-137263333D01*
X128743333Y-137358571D01*
X128743333Y-137549048D01*
X128790952Y-137644286D01*
X128838571Y-137691905D01*
X128933810Y-137739524D01*
X133977143Y-132527381D02*
X133643809Y-132051190D01*
X133405714Y-132527381D02*
X133405714Y-131527381D01*
X133786667Y-131527381D01*
X133881905Y-131575000D01*
X133929524Y-131622619D01*
X133977143Y-131717857D01*
X133977143Y-131860714D01*
X133929524Y-131955952D01*
X133881905Y-132003571D01*
X133786667Y-132051190D01*
X133405714Y-132051190D01*
X134929524Y-132527381D02*
X134358095Y-132527381D01*
X134643809Y-132527381D02*
X134643809Y-131527381D01*
X134548571Y-131670238D01*
X134453333Y-131765476D01*
X134358095Y-131813095D01*
X135262857Y-131527381D02*
X135929524Y-131527381D01*
X135500952Y-132527381D01*
X133977143Y-135702381D02*
X133643809Y-135226190D01*
X133405714Y-135702381D02*
X133405714Y-134702381D01*
X133786667Y-134702381D01*
X133881905Y-134750000D01*
X133929524Y-134797619D01*
X133977143Y-134892857D01*
X133977143Y-135035714D01*
X133929524Y-135130952D01*
X133881905Y-135178571D01*
X133786667Y-135226190D01*
X133405714Y-135226190D01*
X134929524Y-135702381D02*
X134358095Y-135702381D01*
X134643809Y-135702381D02*
X134643809Y-134702381D01*
X134548571Y-134845238D01*
X134453333Y-134940476D01*
X134358095Y-134988095D01*
X135500952Y-135130952D02*
X135405714Y-135083333D01*
X135358095Y-135035714D01*
X135310476Y-134940476D01*
X135310476Y-134892857D01*
X135358095Y-134797619D01*
X135405714Y-134750000D01*
X135500952Y-134702381D01*
X135691429Y-134702381D01*
X135786667Y-134750000D01*
X135834286Y-134797619D01*
X135881905Y-134892857D01*
X135881905Y-134940476D01*
X135834286Y-135035714D01*
X135786667Y-135083333D01*
X135691429Y-135130952D01*
X135500952Y-135130952D01*
X135405714Y-135178571D01*
X135358095Y-135226190D01*
X135310476Y-135321429D01*
X135310476Y-135511905D01*
X135358095Y-135607143D01*
X135405714Y-135654762D01*
X135500952Y-135702381D01*
X135691429Y-135702381D01*
X135786667Y-135654762D01*
X135834286Y-135607143D01*
X135881905Y-135511905D01*
X135881905Y-135321429D01*
X135834286Y-135226190D01*
X135786667Y-135178571D01*
X135691429Y-135130952D01*
X133977143Y-123002381D02*
X133643809Y-122526190D01*
X133405714Y-123002381D02*
X133405714Y-122002381D01*
X133786667Y-122002381D01*
X133881905Y-122050000D01*
X133929524Y-122097619D01*
X133977143Y-122192857D01*
X133977143Y-122335714D01*
X133929524Y-122430952D01*
X133881905Y-122478571D01*
X133786667Y-122526190D01*
X133405714Y-122526190D01*
X134929524Y-123002381D02*
X134358095Y-123002381D01*
X134643809Y-123002381D02*
X134643809Y-122002381D01*
X134548571Y-122145238D01*
X134453333Y-122240476D01*
X134358095Y-122288095D01*
X135405714Y-123002381D02*
X135596190Y-123002381D01*
X135691429Y-122954762D01*
X135739048Y-122907143D01*
X135834286Y-122764286D01*
X135881905Y-122573810D01*
X135881905Y-122192857D01*
X135834286Y-122097619D01*
X135786667Y-122050000D01*
X135691429Y-122002381D01*
X135500952Y-122002381D01*
X135405714Y-122050000D01*
X135358095Y-122097619D01*
X135310476Y-122192857D01*
X135310476Y-122430952D01*
X135358095Y-122526190D01*
X135405714Y-122573810D01*
X135500952Y-122621429D01*
X135691429Y-122621429D01*
X135786667Y-122573810D01*
X135834286Y-122526190D01*
X135881905Y-122430952D01*
X133977143Y-126177381D02*
X133643809Y-125701190D01*
X133405714Y-126177381D02*
X133405714Y-125177381D01*
X133786667Y-125177381D01*
X133881905Y-125225000D01*
X133929524Y-125272619D01*
X133977143Y-125367857D01*
X133977143Y-125510714D01*
X133929524Y-125605952D01*
X133881905Y-125653571D01*
X133786667Y-125701190D01*
X133405714Y-125701190D01*
X134358095Y-125272619D02*
X134405714Y-125225000D01*
X134500952Y-125177381D01*
X134739048Y-125177381D01*
X134834286Y-125225000D01*
X134881905Y-125272619D01*
X134929524Y-125367857D01*
X134929524Y-125463095D01*
X134881905Y-125605952D01*
X134310476Y-126177381D01*
X134929524Y-126177381D01*
X135548571Y-125177381D02*
X135643810Y-125177381D01*
X135739048Y-125225000D01*
X135786667Y-125272619D01*
X135834286Y-125367857D01*
X135881905Y-125558333D01*
X135881905Y-125796429D01*
X135834286Y-125986905D01*
X135786667Y-126082143D01*
X135739048Y-126129762D01*
X135643810Y-126177381D01*
X135548571Y-126177381D01*
X135453333Y-126129762D01*
X135405714Y-126082143D01*
X135358095Y-125986905D01*
X135310476Y-125796429D01*
X135310476Y-125558333D01*
X135358095Y-125367857D01*
X135405714Y-125272619D01*
X135453333Y-125225000D01*
X135548571Y-125177381D01*
D12*
X108458095Y-92542381D02*
X108458095Y-93351905D01*
X108505714Y-93447143D01*
X108553333Y-93494762D01*
X108648571Y-93542381D01*
X108839048Y-93542381D01*
X108934286Y-93494762D01*
X108981905Y-93447143D01*
X109029524Y-93351905D01*
X109029524Y-92542381D01*
X110029524Y-93542381D02*
X109458095Y-93542381D01*
X109743809Y-93542381D02*
X109743809Y-92542381D01*
X109648571Y-92685238D01*
X109553333Y-92780476D01*
X109458095Y-92828095D01*
X108458095Y-110322381D02*
X108458095Y-111131905D01*
X108505714Y-111227143D01*
X108553333Y-111274762D01*
X108648571Y-111322381D01*
X108839048Y-111322381D01*
X108934286Y-111274762D01*
X108981905Y-111227143D01*
X109029524Y-111131905D01*
X109029524Y-110322381D01*
X109410476Y-110322381D02*
X110029524Y-110322381D01*
X109696190Y-110703333D01*
X109839048Y-110703333D01*
X109934286Y-110750952D01*
X109981905Y-110798571D01*
X110029524Y-110893810D01*
X110029524Y-111131905D01*
X109981905Y-111227143D01*
X109934286Y-111274762D01*
X109839048Y-111322381D01*
X109553333Y-111322381D01*
X109458095Y-111274762D01*
X109410476Y-111227143D01*
D11*
X117983095Y-130897381D02*
X117983095Y-131706905D01*
X118030714Y-131802143D01*
X118078333Y-131849762D01*
X118173571Y-131897381D01*
X118364048Y-131897381D01*
X118459286Y-131849762D01*
X118506905Y-131802143D01*
X118554524Y-131706905D01*
X118554524Y-130897381D01*
X119459286Y-131230714D02*
X119459286Y-131897381D01*
X119221190Y-130849762D02*
X118983095Y-131564048D01*
X119602143Y-131564048D01*
X119197381Y-142263333D02*
X118197381Y-142263333D01*
X118673571Y-142263333D02*
X118673571Y-141691904D01*
X119197381Y-141691904D02*
X118197381Y-141691904D01*
X119102143Y-140644285D02*
X119149762Y-140691904D01*
X119197381Y-140834761D01*
X119197381Y-140929999D01*
X119149762Y-141072857D01*
X119054524Y-141168095D01*
X118959286Y-141215714D01*
X118768810Y-141263333D01*
X118625952Y-141263333D01*
X118435476Y-141215714D01*
X118340238Y-141168095D01*
X118245000Y-141072857D01*
X118197381Y-140929999D01*
X118197381Y-140834761D01*
X118245000Y-140691904D01*
X118292619Y-140644285D01*
X118816429Y-140215714D02*
X118816429Y-139453809D01*
X118197381Y-138787143D02*
X118197381Y-138691904D01*
X118245000Y-138596666D01*
X118292619Y-138549047D01*
X118387857Y-138501428D01*
X118578333Y-138453809D01*
X118816429Y-138453809D01*
X119006905Y-138501428D01*
X119102143Y-138549047D01*
X119149762Y-138596666D01*
X119197381Y-138691904D01*
X119197381Y-138787143D01*
X119149762Y-138882381D01*
X119102143Y-138930000D01*
X119006905Y-138977619D01*
X118816429Y-139025238D01*
X118578333Y-139025238D01*
X118387857Y-138977619D01*
X118292619Y-138930000D01*
X118245000Y-138882381D01*
X118197381Y-138787143D01*
X118197381Y-137549047D02*
X118197381Y-138025238D01*
X118673571Y-138072857D01*
X118625952Y-138025238D01*
X118578333Y-137930000D01*
X118578333Y-137691904D01*
X118625952Y-137596666D01*
X118673571Y-137549047D01*
X118768810Y-137501428D01*
X119006905Y-137501428D01*
X119102143Y-137549047D01*
X119149762Y-137596666D01*
X119197381Y-137691904D01*
X119197381Y-137930000D01*
X119149762Y-138025238D01*
X119102143Y-138072857D01*
X118149762Y-136358571D02*
X119435476Y-137215714D01*
X118197381Y-135834762D02*
X118197381Y-135739523D01*
X118245000Y-135644285D01*
X118292619Y-135596666D01*
X118387857Y-135549047D01*
X118578333Y-135501428D01*
X118816429Y-135501428D01*
X119006905Y-135549047D01*
X119102143Y-135596666D01*
X119149762Y-135644285D01*
X119197381Y-135739523D01*
X119197381Y-135834762D01*
X119149762Y-135930000D01*
X119102143Y-135977619D01*
X119006905Y-136025238D01*
X118816429Y-136072857D01*
X118578333Y-136072857D01*
X118387857Y-136025238D01*
X118292619Y-135977619D01*
X118245000Y-135930000D01*
X118197381Y-135834762D01*
X118197381Y-134644285D02*
X118197381Y-134834762D01*
X118245000Y-134930000D01*
X118292619Y-134977619D01*
X118435476Y-135072857D01*
X118625952Y-135120476D01*
X119006905Y-135120476D01*
X119102143Y-135072857D01*
X119149762Y-135025238D01*
X119197381Y-134930000D01*
X119197381Y-134739523D01*
X119149762Y-134644285D01*
X119102143Y-134596666D01*
X119006905Y-134549047D01*
X118768810Y-134549047D01*
X118673571Y-134596666D01*
X118625952Y-134644285D01*
X118578333Y-134739523D01*
X118578333Y-134930000D01*
X118625952Y-135025238D01*
X118673571Y-135072857D01*
X118768810Y-135120476D01*
X130132381Y-115061905D02*
X130941905Y-115061905D01*
X131037143Y-115014286D01*
X131084762Y-114966667D01*
X131132381Y-114871429D01*
X131132381Y-114680952D01*
X131084762Y-114585714D01*
X131037143Y-114538095D01*
X130941905Y-114490476D01*
X130132381Y-114490476D01*
X130132381Y-113538095D02*
X130132381Y-114014286D01*
X130608571Y-114061905D01*
X130560952Y-114014286D01*
X130513333Y-113919048D01*
X130513333Y-113680952D01*
X130560952Y-113585714D01*
X130608571Y-113538095D01*
X130703810Y-113490476D01*
X130941905Y-113490476D01*
X131037143Y-113538095D01*
X131084762Y-113585714D01*
X131132381Y-113680952D01*
X131132381Y-113919048D01*
X131084762Y-114014286D01*
X131037143Y-114061905D01*
D15*
X143421705Y-113792484D02*
X144231844Y-113792484D01*
X144327154Y-113744829D01*
X144374810Y-113697173D01*
X144422465Y-113601863D01*
X144422465Y-113411242D01*
X144374810Y-113315931D01*
X144327154Y-113268276D01*
X144231844Y-113220621D01*
X143421705Y-113220621D01*
X143421705Y-112315172D02*
X143421705Y-112505793D01*
X143469360Y-112601103D01*
X143517015Y-112648758D01*
X143659981Y-112744069D01*
X143850602Y-112791724D01*
X144231844Y-112791724D01*
X144327154Y-112744069D01*
X144374810Y-112696414D01*
X144422465Y-112601103D01*
X144422465Y-112410482D01*
X144374810Y-112315172D01*
X144327154Y-112267516D01*
X144231844Y-112219861D01*
X143993568Y-112219861D01*
X143898257Y-112267516D01*
X143850602Y-112315172D01*
X143802947Y-112410482D01*
X143802947Y-112601103D01*
X143850602Y-112696414D01*
X143898257Y-112744069D01*
X143993568Y-112791724D01*
D16*
D15*
X143421705Y-102362484D02*
X144231844Y-102362484D01*
X144327154Y-102314829D01*
X144374810Y-102267173D01*
X144422465Y-102171863D01*
X144422465Y-101981242D01*
X144374810Y-101885931D01*
X144327154Y-101838276D01*
X144231844Y-101790621D01*
X143421705Y-101790621D01*
X143421705Y-101409379D02*
X143421705Y-100742206D01*
X144422465Y-101171103D01*
D16*
D15*
X132587516Y-85352225D02*
X132587516Y-86162364D01*
X132635171Y-86257674D01*
X132682827Y-86305330D01*
X132778137Y-86352985D01*
X132968758Y-86352985D01*
X133064069Y-86305330D01*
X133111724Y-86257674D01*
X133159379Y-86162364D01*
X133159379Y-85352225D01*
X133778897Y-85781122D02*
X133683586Y-85733467D01*
X133635931Y-85685811D01*
X133588276Y-85590501D01*
X133588276Y-85542846D01*
X133635931Y-85447535D01*
X133683586Y-85399880D01*
X133778897Y-85352225D01*
X133969518Y-85352225D01*
X134064828Y-85399880D01*
X134112484Y-85447535D01*
X134160139Y-85542846D01*
X134160139Y-85590501D01*
X134112484Y-85685811D01*
X134064828Y-85733467D01*
X133969518Y-85781122D01*
X133778897Y-85781122D01*
X133683586Y-85828777D01*
X133635931Y-85876432D01*
X133588276Y-85971743D01*
X133588276Y-86162364D01*
X133635931Y-86257674D01*
X133683586Y-86305330D01*
X133778897Y-86352985D01*
X133969518Y-86352985D01*
X134064828Y-86305330D01*
X134112484Y-86257674D01*
X134160139Y-86162364D01*
X134160139Y-85971743D01*
X134112484Y-85876432D01*
X134064828Y-85828777D01*
X133969518Y-85781122D01*
D16*
D15*
X123697516Y-85352225D02*
X123697516Y-86162364D01*
X123745171Y-86257674D01*
X123792827Y-86305330D01*
X123888137Y-86352985D01*
X124078758Y-86352985D01*
X124174069Y-86305330D01*
X124221724Y-86257674D01*
X124269379Y-86162364D01*
X124269379Y-85352225D01*
X124793586Y-86352985D02*
X124984207Y-86352985D01*
X125079518Y-86305330D01*
X125127173Y-86257674D01*
X125222484Y-86114709D01*
X125270139Y-85924088D01*
X125270139Y-85542846D01*
X125222484Y-85447535D01*
X125174828Y-85399880D01*
X125079518Y-85352225D01*
X124888897Y-85352225D01*
X124793586Y-85399880D01*
X124745931Y-85447535D01*
X124698276Y-85542846D01*
X124698276Y-85781122D01*
X124745931Y-85876432D01*
X124793586Y-85924088D01*
X124888897Y-85971743D01*
X125079518Y-85971743D01*
X125174828Y-85924088D01*
X125222484Y-85876432D01*
X125270139Y-85781122D01*
D16*
D15*
X123220964Y-147231705D02*
X123220964Y-148041844D01*
X123268619Y-148137154D01*
X123316275Y-148184810D01*
X123411585Y-148232465D01*
X123602206Y-148232465D01*
X123697517Y-148184810D01*
X123745172Y-148137154D01*
X123792827Y-148041844D01*
X123792827Y-147231705D01*
X124793587Y-148232465D02*
X124221724Y-148232465D01*
X124507655Y-148232465D02*
X124507655Y-147231705D01*
X124412345Y-147374670D01*
X124317034Y-147469981D01*
X124221724Y-147517636D01*
X125413105Y-147231705D02*
X125508416Y-147231705D01*
X125603726Y-147279360D01*
X125651381Y-147327015D01*
X125699037Y-147422326D01*
X125746692Y-147612947D01*
X125746692Y-147851223D01*
X125699037Y-148041844D01*
X125651381Y-148137154D01*
X125603726Y-148184810D01*
X125508416Y-148232465D01*
X125413105Y-148232465D01*
X125317795Y-148184810D01*
X125270139Y-148137154D01*
X125222484Y-148041844D01*
X125174829Y-147851223D01*
X125174829Y-147612947D01*
X125222484Y-147422326D01*
X125270139Y-147327015D01*
X125317795Y-147279360D01*
X125413105Y-147231705D01*
D16*
D15*
X132110964Y-147231705D02*
X132110964Y-148041844D01*
X132158619Y-148137154D01*
X132206275Y-148184810D01*
X132301585Y-148232465D01*
X132492206Y-148232465D01*
X132587517Y-148184810D01*
X132635172Y-148137154D01*
X132682827Y-148041844D01*
X132682827Y-147231705D01*
X133683587Y-148232465D02*
X133111724Y-148232465D01*
X133397655Y-148232465D02*
X133397655Y-147231705D01*
X133302345Y-147374670D01*
X133207034Y-147469981D01*
X133111724Y-147517636D01*
X134636692Y-148232465D02*
X134064829Y-148232465D01*
X134350760Y-148232465D02*
X134350760Y-147231705D01*
X134255450Y-147374670D01*
X134160139Y-147469981D01*
X134064829Y-147517636D01*
D16*
D15*
X143421705Y-135224036D02*
X144231844Y-135224036D01*
X144327154Y-135176381D01*
X144374810Y-135128725D01*
X144422465Y-135033415D01*
X144422465Y-134842794D01*
X144374810Y-134747483D01*
X144327154Y-134699828D01*
X144231844Y-134652173D01*
X143421705Y-134652173D01*
X144422465Y-133651413D02*
X144422465Y-134223276D01*
X144422465Y-133937345D02*
X143421705Y-133937345D01*
X143564670Y-134032655D01*
X143659981Y-134127966D01*
X143707636Y-134223276D01*
X143517015Y-133270171D02*
X143469360Y-133222516D01*
X143421705Y-133127205D01*
X143421705Y-132888929D01*
X143469360Y-132793619D01*
X143517015Y-132745963D01*
X143612326Y-132698308D01*
X143707636Y-132698308D01*
X143850602Y-132745963D01*
X144422465Y-133317826D01*
X144422465Y-132698308D01*
D16*
D15*
X143421705Y-125064036D02*
X144231844Y-125064036D01*
X144327154Y-125016381D01*
X144374810Y-124968725D01*
X144422465Y-124873415D01*
X144422465Y-124682794D01*
X144374810Y-124587483D01*
X144327154Y-124539828D01*
X144231844Y-124492173D01*
X143421705Y-124492173D01*
X144422465Y-123491413D02*
X144422465Y-124063276D01*
X144422465Y-123777345D02*
X143421705Y-123777345D01*
X143564670Y-123872655D01*
X143659981Y-123967966D01*
X143707636Y-124063276D01*
X143421705Y-123157826D02*
X143421705Y-122538308D01*
X143802947Y-122871895D01*
X143802947Y-122728929D01*
X143850602Y-122633619D01*
X143898257Y-122585963D01*
X143993568Y-122538308D01*
X144231844Y-122538308D01*
X144327154Y-122585963D01*
X144374810Y-122633619D01*
X144422465Y-122728929D01*
X144422465Y-123014861D01*
X144374810Y-123110171D01*
X144327154Y-123157826D01*
D16*
M02*
