G04 #@! TF.FileFunction,Copper,L1,Top,Signal*
%FSLAX46Y46*%
G04 Gerber Fmt 4.6, Leading zero omitted, Abs format (unit mm)*
G04 Created by KiCad (PCBNEW 4.0.2-4+6225~38~ubuntu14.04.1-stable) date on. 13. april 2016 kl. 20.39 +0200*
%MOMM*%
G01*
G04 APERTURE LIST*
%ADD10C,0.100000*%
%ADD11C,1.900000*%
%ADD12R,1.000000X1.250000*%
%ADD13R,0.500000X0.900000*%
%ADD14R,1.727200X2.032000*%
%ADD15O,1.727200X2.032000*%
%ADD16R,0.900000X0.500000*%
%ADD17R,1.400000X1.800000*%
%ADD18R,2.032000X1.727200*%
%ADD19O,2.032000X1.727200*%
%ADD20R,0.400000X1.100000*%
%ADD21R,1.549400X0.599440*%
%ADD22R,1.800860X1.198880*%
%ADD23R,0.599440X1.549400*%
%ADD24R,1.198880X1.800860*%
%ADD25C,0.600000*%
%ADD26C,0.400000*%
%ADD27C,0.250000*%
%ADD28C,0.300000*%
%ADD29C,0.254000*%
G04 APERTURE END LIST*
D10*
D11*
X101600000Y-96520000D03*
X101600000Y-99060000D03*
X101600000Y-101600000D03*
X101600000Y-104140000D03*
X101600000Y-106680000D03*
X101600000Y-109220000D03*
X101600000Y-111760000D03*
X101600000Y-114300000D03*
X101600000Y-116840000D03*
X101600000Y-119380000D03*
X101600000Y-121920000D03*
X101600000Y-124460000D03*
X101600000Y-127000000D03*
X116840000Y-127000000D03*
X116840000Y-124460000D03*
X116840000Y-121920000D03*
X116840000Y-119380000D03*
X116840000Y-116840000D03*
X116840000Y-114300000D03*
X116840000Y-111760000D03*
X116840000Y-109220000D03*
X116840000Y-106680000D03*
X116840000Y-104140000D03*
X116840000Y-101600000D03*
X116840000Y-99060000D03*
X116840000Y-96520000D03*
X116840000Y-93980000D03*
X101600000Y-93980000D03*
X114300000Y-127000000D03*
X111760000Y-127000000D03*
X109220000Y-127000000D03*
X106680000Y-127000000D03*
X104140000Y-127000000D03*
X114300000Y-96520000D03*
X114300000Y-101600000D03*
X114300000Y-104140000D03*
X114300000Y-106680000D03*
D12*
X113300000Y-88900000D03*
X115300000Y-88900000D03*
D13*
X108470000Y-88900000D03*
X109970000Y-88900000D03*
D14*
X106045000Y-142240000D03*
D15*
X108585000Y-142240000D03*
X111125000Y-142240000D03*
D14*
X106045000Y-137160000D03*
D15*
X108585000Y-137160000D03*
X111125000Y-137160000D03*
D14*
X106045000Y-132080000D03*
D15*
X108585000Y-132080000D03*
X111125000Y-132080000D03*
D13*
X104890000Y-88900000D03*
X103390000Y-88900000D03*
X126250000Y-125730000D03*
X127750000Y-125730000D03*
X126250000Y-120650000D03*
X127750000Y-120650000D03*
D16*
X128270000Y-108700000D03*
X128270000Y-107200000D03*
D13*
X135370000Y-111125000D03*
X133870000Y-111125000D03*
X135370000Y-113665000D03*
X133870000Y-113665000D03*
X135370000Y-100965000D03*
X133870000Y-100965000D03*
X135370000Y-104140000D03*
X133870000Y-104140000D03*
D16*
X133985000Y-93865000D03*
X133985000Y-95365000D03*
X136525000Y-93865000D03*
X136525000Y-95365000D03*
X124460000Y-93865000D03*
X124460000Y-95365000D03*
X126365000Y-93865000D03*
X126365000Y-95365000D03*
X125730000Y-139180000D03*
X125730000Y-137680000D03*
X123190000Y-137680000D03*
X123190000Y-139180000D03*
X133350000Y-139180000D03*
X133350000Y-137680000D03*
X130810000Y-139180000D03*
X130810000Y-137680000D03*
D13*
X135370000Y-130175000D03*
X133870000Y-130175000D03*
X135370000Y-133350000D03*
X133870000Y-133350000D03*
X135370000Y-120650000D03*
X133870000Y-120650000D03*
X135370000Y-123825000D03*
X133870000Y-123825000D03*
D17*
X110870000Y-95390000D03*
X107570000Y-95390000D03*
X107570000Y-100190000D03*
X110870000Y-100190000D03*
X110870000Y-113170000D03*
X107570000Y-113170000D03*
X107570000Y-117970000D03*
X110870000Y-117970000D03*
D18*
X115570000Y-144780000D03*
D19*
X115570000Y-142240000D03*
X115570000Y-139700000D03*
X115570000Y-137160000D03*
X115570000Y-134620000D03*
X115570000Y-132080000D03*
D20*
X129305000Y-111450000D03*
X128655000Y-111450000D03*
X128005000Y-111450000D03*
X127355000Y-111450000D03*
X126705000Y-111450000D03*
X126055000Y-111450000D03*
X125405000Y-111450000D03*
X124755000Y-111450000D03*
X124105000Y-111450000D03*
X123455000Y-111450000D03*
X122805000Y-111450000D03*
X122155000Y-111450000D03*
X122155000Y-117150000D03*
X122805000Y-117150000D03*
X123455000Y-117150000D03*
X124105000Y-117150000D03*
X124755000Y-117150000D03*
X125405000Y-117150000D03*
X126055000Y-117150000D03*
X126705000Y-117150000D03*
X127355000Y-117150000D03*
X128005000Y-117150000D03*
X128655000Y-117150000D03*
X129305000Y-117150000D03*
D21*
X139440920Y-112532160D03*
X139440920Y-113532920D03*
X139440920Y-111531400D03*
D22*
X141970760Y-110230920D03*
X141970760Y-115829080D03*
D21*
X139440920Y-114533680D03*
X139440920Y-101102160D03*
X139440920Y-102102920D03*
X139440920Y-100101400D03*
D22*
X141970760Y-98800920D03*
X141970760Y-104399080D03*
D21*
X139440920Y-103103680D03*
D23*
X132852160Y-90429080D03*
X133852920Y-90429080D03*
X131851400Y-90429080D03*
D24*
X130550920Y-87899240D03*
X136149080Y-87899240D03*
D23*
X134853680Y-90429080D03*
X123962160Y-90429080D03*
X124962920Y-90429080D03*
X122961400Y-90429080D03*
D24*
X121660920Y-87899240D03*
X127259080Y-87899240D03*
D23*
X125963680Y-90429080D03*
X124957840Y-143250920D03*
X123957080Y-143250920D03*
X125958600Y-143250920D03*
D24*
X127259080Y-145780760D03*
X121660920Y-145780760D03*
D23*
X122956320Y-143250920D03*
X133847840Y-143250920D03*
X132847080Y-143250920D03*
X134848600Y-143250920D03*
D24*
X136149080Y-145780760D03*
X130550920Y-145780760D03*
D23*
X131846320Y-143250920D03*
D21*
X139440920Y-133487160D03*
X139440920Y-134487920D03*
X139440920Y-132486400D03*
D22*
X141970760Y-131185920D03*
X141970760Y-136784080D03*
D21*
X139440920Y-135488680D03*
X139440920Y-123327160D03*
X139440920Y-124327920D03*
X139440920Y-122326400D03*
D22*
X141970760Y-121025920D03*
X141970760Y-126624080D03*
D21*
X139440920Y-125328680D03*
D25*
X120210167Y-98864833D03*
X120015000Y-106045000D03*
X121285000Y-100965000D03*
X141605000Y-101633448D03*
X132715000Y-106680000D03*
X130175000Y-109220000D03*
X128270000Y-115570000D03*
X127000000Y-123190000D03*
X122555000Y-113665000D03*
X128905000Y-133985000D03*
X132080000Y-113665000D03*
X132715000Y-109220000D03*
X138430000Y-108585000D03*
X137160000Y-121285000D03*
X130175000Y-124460000D03*
X129540000Y-127635000D03*
X128270000Y-140335000D03*
X123190000Y-140970000D03*
X131445000Y-117475000D03*
X128905000Y-123190000D03*
X125095000Y-114935000D03*
X141605000Y-114300000D03*
X136525000Y-111125000D03*
X137159982Y-112395000D03*
X137160000Y-114935000D03*
X137160000Y-100330000D03*
X126365000Y-103505000D03*
X135255000Y-92710000D03*
X125730000Y-102235000D03*
X137160000Y-91440000D03*
X125095000Y-100965000D03*
X123825000Y-92710000D03*
X124460000Y-99695000D03*
X124460000Y-135890000D03*
X120015000Y-139065000D03*
X129540000Y-135890000D03*
X130175000Y-141605000D03*
X132204456Y-128145544D03*
X126365000Y-128905000D03*
X97790000Y-101600000D03*
D26*
X110870000Y-113170000D02*
X110870000Y-103031998D01*
X110870000Y-103031998D02*
X112268000Y-101633998D01*
X112268000Y-101633998D02*
X112268000Y-97028000D01*
X112268000Y-97028000D02*
X110870000Y-95630000D01*
X110870000Y-95630000D02*
X110870000Y-95390000D01*
X120015000Y-106045000D02*
X120015000Y-99060000D01*
X120015000Y-99060000D02*
X120210167Y-98864833D01*
D27*
X116840000Y-93980000D02*
X112080000Y-93980000D01*
X112080000Y-93980000D02*
X110870000Y-95190000D01*
X110870000Y-95190000D02*
X110870000Y-95390000D01*
X109970000Y-88900000D02*
X113300000Y-88900000D01*
X110870000Y-95390000D02*
X110870000Y-89300000D01*
X110870000Y-89300000D02*
X110470000Y-88900000D01*
X110470000Y-88900000D02*
X109970000Y-88900000D01*
D28*
X122155000Y-111450000D02*
X122155000Y-101835000D01*
D27*
X122155000Y-101835000D02*
X121285000Y-100965000D01*
D26*
X133847840Y-143250920D02*
X133847840Y-145879392D01*
X133847840Y-145879392D02*
X135149639Y-147181191D01*
X140473809Y-147181191D02*
X143371191Y-144283809D01*
X143371191Y-144283809D02*
X143371191Y-135784639D01*
X135149639Y-147181191D02*
X140473809Y-147181191D01*
X143371191Y-135784639D02*
X141073712Y-133487160D01*
X141073712Y-133487160D02*
X140615620Y-133487160D01*
X140615620Y-133487160D02*
X139440920Y-133487160D01*
X143371191Y-103399639D02*
X141605000Y-101633448D01*
X141605000Y-101633448D02*
X141073712Y-101102160D01*
D27*
X130175000Y-109220000D02*
X132715000Y-106680000D01*
X130175000Y-109220000D02*
X129305000Y-110090000D01*
X129305000Y-110090000D02*
X129305000Y-111450000D01*
X128135000Y-115570000D02*
X128270000Y-115570000D01*
X127355000Y-117150000D02*
X127355000Y-116350000D01*
X127355000Y-116350000D02*
X128135000Y-115570000D01*
D26*
X129305000Y-111450000D02*
X128705001Y-111450000D01*
X139440920Y-101102160D02*
X142069392Y-101102160D01*
X142069392Y-101102160D02*
X142875000Y-100296552D01*
X142875000Y-99900361D02*
X143271191Y-99900361D01*
X143271191Y-99900361D02*
X143371191Y-99800361D01*
X142875000Y-87630000D02*
X141605000Y-86360000D01*
X132852160Y-88796288D02*
X132852160Y-89254380D01*
X142875000Y-100296552D02*
X142875000Y-99900361D01*
X143271191Y-97701479D02*
X142875000Y-97701479D01*
X143371191Y-99800361D02*
X143371191Y-97801479D01*
X143371191Y-97801479D02*
X143271191Y-97701479D01*
X142875000Y-97701479D02*
X142875000Y-87630000D01*
X141605000Y-86360000D02*
X135288448Y-86360000D01*
X135288448Y-86360000D02*
X132852160Y-88796288D01*
X132852160Y-89254380D02*
X132852160Y-90429080D01*
X139440920Y-112532160D02*
X142069392Y-112532160D01*
X142069392Y-112532160D02*
X143371191Y-111230361D01*
X143371191Y-111230361D02*
X143371191Y-103399639D01*
X141073712Y-101102160D02*
X140615620Y-101102160D01*
X140615620Y-101102160D02*
X139440920Y-101102160D01*
X143371191Y-122025361D02*
X143371191Y-114829639D01*
X139440920Y-123327160D02*
X142069392Y-123327160D01*
X142069392Y-123327160D02*
X143371191Y-122025361D01*
X143371191Y-114829639D02*
X141073712Y-112532160D01*
X141073712Y-112532160D02*
X140615620Y-112532160D01*
X140615620Y-112532160D02*
X139440920Y-112532160D01*
X139440920Y-133487160D02*
X142069392Y-133487160D01*
X142069392Y-133487160D02*
X143371191Y-132185361D01*
X141073712Y-123327160D02*
X140615620Y-123327160D01*
X143371191Y-132185361D02*
X143371191Y-125624639D01*
X143371191Y-125624639D02*
X141073712Y-123327160D01*
X140615620Y-123327160D02*
X139440920Y-123327160D01*
X133847840Y-143250920D02*
X133847840Y-144883712D01*
X133847840Y-144883712D02*
X131550361Y-147181191D01*
X131550361Y-147181191D02*
X126259639Y-147181191D01*
X126259639Y-147181191D02*
X124957840Y-145879392D01*
X124957840Y-145879392D02*
X124957840Y-144425620D01*
X124957840Y-144425620D02*
X124957840Y-143250920D01*
D27*
X104890000Y-88900000D02*
X108470000Y-88900000D01*
X101600000Y-104792998D02*
X101600000Y-104140000D01*
X99424980Y-106968018D02*
X101600000Y-104792998D01*
X106045000Y-142240000D02*
X106045000Y-140974000D01*
X106045000Y-140974000D02*
X99424978Y-134353977D01*
X99424978Y-134353977D02*
X99424980Y-106968018D01*
X106045000Y-142240000D02*
X106045000Y-142087600D01*
X100650001Y-107629999D02*
X101600000Y-106680000D01*
X99874988Y-108405012D02*
X100650001Y-107629999D01*
X99874988Y-128448576D02*
X99874988Y-108405012D01*
X106045000Y-134618588D02*
X99874988Y-128448576D01*
X106045000Y-137160000D02*
X106045000Y-134618588D01*
X101600000Y-107332998D02*
X101600000Y-106680000D01*
X100324999Y-116227999D02*
X100982998Y-115570000D01*
X100324999Y-113687999D02*
X100982998Y-113030000D01*
X100982998Y-125730000D02*
X100324999Y-125072001D01*
X100982998Y-120650000D02*
X100324999Y-119992001D01*
X100324999Y-112372001D02*
X100324999Y-111147999D01*
X100982998Y-113030000D02*
X100324999Y-112372001D01*
X100324999Y-111147999D02*
X101600000Y-109872998D01*
X100324999Y-121307999D02*
X100982998Y-120650000D01*
X100324999Y-127612001D02*
X100324999Y-126387999D01*
X100324999Y-117452001D02*
X100324999Y-116227999D01*
X100324999Y-114912001D02*
X100324999Y-113687999D01*
X100982998Y-118110000D02*
X100324999Y-117452001D01*
X100324999Y-122532001D02*
X100324999Y-121307999D01*
X100987999Y-128275001D02*
X100324999Y-127612001D01*
X100324999Y-118767999D02*
X100982998Y-118110000D01*
X100324999Y-119992001D02*
X100324999Y-118767999D01*
X100324999Y-126387999D02*
X100982998Y-125730000D01*
X100324999Y-123847999D02*
X100982998Y-123190000D01*
X100982998Y-115570000D02*
X100324999Y-114912001D01*
X102050011Y-128275001D02*
X100987999Y-128275001D01*
X105855010Y-132080000D02*
X102050011Y-128275001D01*
X106045000Y-132080000D02*
X105855010Y-132080000D01*
X100982998Y-123190000D02*
X100324999Y-122532001D01*
X101600000Y-109872998D02*
X101600000Y-109220000D01*
X100324999Y-125072001D02*
X100324999Y-123847999D01*
X127000000Y-123190000D02*
X127000000Y-124280000D01*
X127000000Y-124280000D02*
X126250000Y-125030000D01*
X116840000Y-111760000D02*
X120650000Y-111760000D01*
X120650000Y-111760000D02*
X122555000Y-113665000D01*
X128005000Y-117150000D02*
X128005000Y-117950000D01*
X128005000Y-117950000D02*
X126080001Y-119874999D01*
X126080001Y-119874999D02*
X125739999Y-119874999D01*
X125739999Y-119874999D02*
X125674999Y-119939999D01*
X126250000Y-125030000D02*
X126250000Y-125730000D01*
X125674999Y-119939999D02*
X125674999Y-124454999D01*
X125674999Y-124454999D02*
X126250000Y-125030000D01*
X130810000Y-137680000D02*
X130810000Y-135890000D01*
X130810000Y-135890000D02*
X128905000Y-133985000D01*
X122961400Y-90429080D02*
X122961400Y-92938600D01*
X122961400Y-92938600D02*
X120535000Y-95365000D01*
X133870000Y-113665000D02*
X132080000Y-113665000D01*
X132715000Y-109220000D02*
X132715000Y-110470000D01*
X132715000Y-110470000D02*
X133370000Y-111125000D01*
X133370000Y-111125000D02*
X133870000Y-111125000D01*
X139440920Y-111531400D02*
X139440920Y-109595920D01*
X139440920Y-109595920D02*
X138430000Y-108585000D01*
X127750000Y-120650000D02*
X128270000Y-120650000D01*
X128270000Y-120650000D02*
X131445000Y-117475000D01*
X131445000Y-117475000D02*
X131445000Y-118725000D01*
X131445000Y-118725000D02*
X133370000Y-120650000D01*
X133370000Y-120650000D02*
X133870000Y-120650000D01*
X133870000Y-123825000D02*
X133870000Y-120650000D01*
X139440920Y-122326400D02*
X138201400Y-122326400D01*
X138201400Y-122326400D02*
X137160000Y-121285000D01*
X130175000Y-124460000D02*
X128905000Y-125730000D01*
X128905000Y-125730000D02*
X127750000Y-125730000D01*
X130810000Y-127635000D02*
X129540000Y-127635000D01*
X127750000Y-125730000D02*
X132165000Y-125730000D01*
X132165000Y-125730000D02*
X133870000Y-124025000D01*
X133870000Y-124025000D02*
X133870000Y-123825000D01*
X130924457Y-127520543D02*
X130810000Y-127635000D01*
X133350000Y-130175000D02*
X133870000Y-130175000D01*
X134000083Y-127520543D02*
X130924457Y-127520543D01*
X138965940Y-132486400D02*
X134000083Y-127520543D01*
X139440920Y-132486400D02*
X138965940Y-132486400D01*
X130810000Y-127635000D02*
X133350000Y-130175000D01*
X133350000Y-137680000D02*
X133350000Y-133370000D01*
X133350000Y-133370000D02*
X133370000Y-133350000D01*
X133370000Y-133350000D02*
X133870000Y-133350000D01*
X133350000Y-137680000D02*
X130810000Y-137680000D01*
X134848600Y-143250920D02*
X134848600Y-138978600D01*
X134848600Y-138978600D02*
X133550000Y-137680000D01*
X133550000Y-137680000D02*
X133350000Y-137680000D01*
X126505001Y-142229539D02*
X126505001Y-140335000D01*
X126505001Y-140335000D02*
X126505001Y-138255001D01*
X128270000Y-140335000D02*
X126505001Y-140335000D01*
X123190000Y-139180000D02*
X123190000Y-140970000D01*
X125958600Y-143250920D02*
X125958600Y-142775940D01*
X125958600Y-142775940D02*
X126505001Y-142229539D01*
X126505001Y-138255001D02*
X125930000Y-137680000D01*
X125930000Y-137680000D02*
X125730000Y-137680000D01*
X129305000Y-117150000D02*
X131120000Y-117150000D01*
X131120000Y-117150000D02*
X131445000Y-117475000D01*
X135070011Y-105540011D02*
X135070011Y-109724989D01*
X133870000Y-104140000D02*
X134084998Y-104140000D01*
X134838205Y-104893207D02*
X134838205Y-105308205D01*
X134084998Y-104140000D02*
X134838205Y-104893207D01*
X134838205Y-105308205D02*
X135070011Y-105540011D01*
X135070011Y-109724989D02*
X133870000Y-110925000D01*
X133870000Y-110925000D02*
X133870000Y-111125000D01*
X133870000Y-104140000D02*
X130830000Y-104140000D01*
X130830000Y-104140000D02*
X128270000Y-106700000D01*
X128270000Y-106700000D02*
X128270000Y-107200000D01*
X133870000Y-100965000D02*
X133870000Y-104140000D01*
X133985000Y-95365000D02*
X133985000Y-100850000D01*
X133985000Y-100850000D02*
X133870000Y-100965000D01*
X136525000Y-95365000D02*
X136525000Y-97660460D01*
X136525000Y-97660460D02*
X138965940Y-100101400D01*
X138965940Y-100101400D02*
X139440920Y-100101400D01*
X133985000Y-95365000D02*
X136525000Y-95365000D01*
X131851400Y-90429080D02*
X131851400Y-93431400D01*
X131851400Y-93431400D02*
X133785000Y-95365000D01*
X133785000Y-95365000D02*
X133985000Y-95365000D01*
X126365000Y-95365000D02*
X127390460Y-95365000D01*
X127390460Y-95365000D02*
X131851400Y-90904060D01*
X131851400Y-90904060D02*
X131851400Y-90429080D01*
X124460000Y-95365000D02*
X120535000Y-95365000D01*
X120535000Y-95365000D02*
X116840000Y-99060000D01*
X128905000Y-123190000D02*
X126365000Y-120650000D01*
X126365000Y-120650000D02*
X126250000Y-120650000D01*
X116840000Y-114300000D02*
X124460000Y-114300000D01*
X124460000Y-114300000D02*
X125095000Y-114935000D01*
X128655000Y-117150000D02*
X128655000Y-118245000D01*
X128655000Y-118245000D02*
X126950000Y-119950000D01*
X126950000Y-119950000D02*
X126750000Y-119950000D01*
X126750000Y-119950000D02*
X126250000Y-120450000D01*
X126250000Y-120450000D02*
X126250000Y-120650000D01*
X128005000Y-111450000D02*
X128005000Y-108965000D01*
X128005000Y-108965000D02*
X128270000Y-108700000D01*
X141305001Y-114000001D02*
X141605000Y-114300000D01*
X140837920Y-113532920D02*
X141305001Y-114000001D01*
X139440920Y-113532920D02*
X140837920Y-113532920D01*
X136525000Y-111125000D02*
X135370000Y-111125000D01*
X127355000Y-111450000D02*
X127355000Y-112250000D01*
X127355000Y-112250000D02*
X127430001Y-112325001D01*
X127430001Y-112325001D02*
X134369999Y-112325001D01*
X134369999Y-112325001D02*
X135370000Y-111325000D01*
X135370000Y-111325000D02*
X135370000Y-111125000D01*
X131434974Y-113944976D02*
X131929999Y-114440001D01*
X126705000Y-112250000D02*
X128399976Y-113944976D01*
X135370000Y-113865000D02*
X135370000Y-113665000D01*
X134794999Y-114440001D02*
X135370000Y-113865000D01*
X126705000Y-111450000D02*
X126705000Y-112250000D01*
X131929999Y-114440001D02*
X134794999Y-114440001D01*
X128399976Y-113944976D02*
X131434974Y-113944976D01*
X137159982Y-112395018D02*
X137159982Y-112395000D01*
X136860001Y-112694999D02*
X137159982Y-112395018D01*
X135370000Y-113665000D02*
X135890000Y-113665000D01*
X135890000Y-113665000D02*
X136860001Y-112694999D01*
X136410000Y-113145000D02*
X136860001Y-112694999D01*
X139440920Y-114533680D02*
X137561320Y-114533680D01*
X137561320Y-114533680D02*
X137160000Y-114935000D01*
X137160000Y-100330000D02*
X136005000Y-100330000D01*
X136005000Y-100330000D02*
X135370000Y-100965000D01*
X126055000Y-111450000D02*
X126055000Y-103815000D01*
X126055000Y-103815000D02*
X126365000Y-103505000D01*
X139440920Y-102102920D02*
X136307920Y-102102920D01*
X136307920Y-102102920D02*
X135370000Y-101165000D01*
X135370000Y-101165000D02*
X135370000Y-100965000D01*
X137785020Y-112695002D02*
X137785020Y-111460018D01*
X131248574Y-114394987D02*
X131743599Y-114890012D01*
X135870000Y-104840000D02*
X135370000Y-104340000D01*
X135370000Y-104340000D02*
X135370000Y-104140000D01*
X125480001Y-112325001D02*
X127549987Y-114394987D01*
X135870000Y-109544998D02*
X135870000Y-104840000D01*
X135590010Y-114890012D02*
X137785020Y-112695002D01*
X137785020Y-111460018D02*
X135870000Y-109544998D01*
X127549987Y-114394987D02*
X131248574Y-114394987D01*
X131743599Y-114890012D02*
X135590010Y-114890012D01*
X125405000Y-112250000D02*
X125480001Y-112325001D01*
X125405000Y-111450000D02*
X125405000Y-112250000D01*
X125480001Y-112325001D02*
X125405000Y-111450000D01*
X139440920Y-103103680D02*
X136206320Y-103103680D01*
X136206320Y-103103680D02*
X135370000Y-103940000D01*
X135370000Y-103940000D02*
X135370000Y-104140000D01*
X135255000Y-92710000D02*
X135140000Y-92710000D01*
X135140000Y-92710000D02*
X133985000Y-93865000D01*
X124755000Y-111450000D02*
X124755000Y-103210000D01*
X124755000Y-103210000D02*
X125730000Y-102235000D01*
X133985000Y-93865000D02*
X133985000Y-90561160D01*
X133985000Y-90561160D02*
X133852920Y-90429080D01*
X136525000Y-92575380D02*
X136525000Y-93865000D01*
X134853680Y-90904060D02*
X136525000Y-92575380D01*
X134853680Y-90429080D02*
X134853680Y-90904060D01*
X137160000Y-91440000D02*
X135864600Y-91440000D01*
X135864600Y-91440000D02*
X135850820Y-91453780D01*
X135850820Y-91453780D02*
X135403400Y-91453780D01*
X135403400Y-91453780D02*
X134853680Y-90904060D01*
X124105000Y-111450000D02*
X124105000Y-101955000D01*
X124105000Y-101955000D02*
X125095000Y-100965000D01*
X123825000Y-92710000D02*
X124962920Y-91572080D01*
X124962920Y-91572080D02*
X124962920Y-90429080D01*
X123455000Y-111450000D02*
X123455000Y-100700000D01*
X123455000Y-100700000D02*
X124460000Y-99695000D01*
X124460000Y-93865000D02*
X124460000Y-93365000D01*
X124460000Y-93365000D02*
X124962920Y-92862080D01*
X124962920Y-92862080D02*
X124962920Y-90429080D01*
X122805000Y-111450000D02*
X122805000Y-98305002D01*
X122805000Y-98305002D02*
X125589999Y-95520003D01*
X125589999Y-94440001D02*
X126165000Y-93865000D01*
X125589999Y-95520003D02*
X125589999Y-94440001D01*
X126165000Y-93865000D02*
X126365000Y-93865000D01*
X125963680Y-90429080D02*
X125963680Y-93463680D01*
X125963680Y-93463680D02*
X126365000Y-93865000D01*
X123957080Y-143250920D02*
X123957080Y-140752920D01*
X123957080Y-140752920D02*
X125530000Y-139180000D01*
X125530000Y-139180000D02*
X125730000Y-139180000D01*
X122155000Y-117150000D02*
X122155000Y-137930002D01*
X122155000Y-137930002D02*
X122829997Y-138604999D01*
X122829997Y-138604999D02*
X124454999Y-138604999D01*
X124454999Y-138604999D02*
X125030000Y-139180000D01*
X125030000Y-139180000D02*
X125730000Y-139180000D01*
X124460000Y-135890000D02*
X124460000Y-136410000D01*
X124460000Y-136410000D02*
X123190000Y-137680000D01*
X122956320Y-143250920D02*
X122956320Y-142006320D01*
X122956320Y-142006320D02*
X120015000Y-139065000D01*
X122805000Y-117150000D02*
X122805000Y-137295000D01*
X122805000Y-137295000D02*
X123190000Y-137680000D01*
X132847080Y-143250920D02*
X132847080Y-140527082D01*
X132847080Y-140527082D02*
X132074999Y-139755001D01*
X123424944Y-133584944D02*
X129595001Y-139755001D01*
X129595001Y-139755001D02*
X132074999Y-139755001D01*
X132074999Y-139755001D02*
X132650000Y-139180000D01*
X132650000Y-139180000D02*
X133350000Y-139180000D01*
X123424944Y-119007999D02*
X123424944Y-133584944D01*
X123455000Y-118977943D02*
X123424944Y-119007999D01*
X123455000Y-117150000D02*
X123455000Y-118977943D01*
X123874955Y-132444955D02*
X127635000Y-136205000D01*
X127635000Y-136205000D02*
X130610000Y-139180000D01*
X129540000Y-135890000D02*
X129225000Y-136205000D01*
X129225000Y-136205000D02*
X127635000Y-136205000D01*
X131846320Y-143250920D02*
X131846320Y-142775940D01*
X131846320Y-142775940D02*
X130675380Y-141605000D01*
X130675380Y-141605000D02*
X130175000Y-141605000D01*
X123874955Y-119194399D02*
X123874955Y-132444955D01*
X124105000Y-117150000D02*
X124105000Y-118964354D01*
X124105000Y-118964354D02*
X123874955Y-119194399D01*
X130610000Y-139180000D02*
X130810000Y-139180000D01*
X135370000Y-129975000D02*
X133540544Y-128145544D01*
X133540544Y-128145544D02*
X132628720Y-128145544D01*
X132628720Y-128145544D02*
X132204456Y-128145544D01*
X135370000Y-130175000D02*
X135370000Y-129975000D01*
X139440920Y-134487920D02*
X138416220Y-134487920D01*
X138416220Y-134487920D02*
X135370000Y-131441700D01*
X135370000Y-131441700D02*
X135370000Y-130875000D01*
X135370000Y-130875000D02*
X135370000Y-130175000D01*
X124755000Y-118950765D02*
X124324966Y-119380799D01*
X124324966Y-126864966D02*
X126365000Y-128905000D01*
X124755000Y-117150000D02*
X124755000Y-118950765D01*
X124324966Y-119380799D02*
X124324966Y-126864966D01*
X139440920Y-135488680D02*
X137308680Y-135488680D01*
X137308680Y-135488680D02*
X135370000Y-133550000D01*
X135370000Y-133550000D02*
X135370000Y-133350000D01*
X135370000Y-133150000D02*
X135370000Y-133350000D01*
X124774977Y-126176390D02*
X131173586Y-132574999D01*
X124774977Y-119567199D02*
X124774977Y-126176390D01*
X125405000Y-118937176D02*
X124774977Y-119567199D01*
X125405000Y-117150000D02*
X125405000Y-118937176D01*
X134794999Y-132574999D02*
X135370000Y-133150000D01*
X131173586Y-132574999D02*
X134794999Y-132574999D01*
X127560002Y-114844998D02*
X129764998Y-114844998D01*
X129764998Y-114844998D02*
X135370000Y-120450000D01*
X126055000Y-116350000D02*
X127560002Y-114844998D01*
X126055000Y-117150000D02*
X126055000Y-116350000D01*
X135370000Y-120450000D02*
X135370000Y-120650000D01*
X139440920Y-124327920D02*
X138347920Y-124327920D01*
X138347920Y-124327920D02*
X135370000Y-121350000D01*
X135370000Y-121350000D02*
X135370000Y-120650000D01*
X139440920Y-125328680D02*
X136673680Y-125328680D01*
X136673680Y-125328680D02*
X135370000Y-124025000D01*
X135370000Y-124025000D02*
X135370000Y-123825000D01*
X125739999Y-126505001D02*
X132889999Y-126505001D01*
X125224988Y-119753599D02*
X125224988Y-125989990D01*
X126705000Y-117150000D02*
X126705000Y-118273587D01*
X125224988Y-125989990D02*
X125739999Y-126505001D01*
X132889999Y-126505001D02*
X135370000Y-124025000D01*
X126705000Y-118273587D02*
X125224988Y-119753599D01*
X107570000Y-113170000D02*
X107570000Y-102540000D01*
X107570000Y-102540000D02*
X109920000Y-100190000D01*
X109920000Y-100190000D02*
X110870000Y-100190000D01*
X100650001Y-97469999D02*
X101600000Y-96520000D01*
X98974967Y-99145033D02*
X100650001Y-97469999D01*
X105411410Y-144145000D02*
X98974967Y-137708557D01*
X114304000Y-140894348D02*
X111053348Y-144145000D01*
X114304000Y-140813600D02*
X114304000Y-140894348D01*
X115417600Y-139700000D02*
X114304000Y-140813600D01*
X115570000Y-139700000D02*
X115417600Y-139700000D01*
X111053348Y-144145000D02*
X105411410Y-144145000D01*
X98974967Y-137708557D02*
X98974967Y-99145033D01*
X106045000Y-145415000D02*
X97790000Y-137160000D01*
X97790000Y-137160000D02*
X97790000Y-101600000D01*
X111129000Y-145415000D02*
X106045000Y-145415000D01*
X115570000Y-142240000D02*
X114304000Y-142240000D01*
X114304000Y-142240000D02*
X111129000Y-145415000D01*
X110870000Y-117970000D02*
X110870000Y-118170000D01*
X110870000Y-118170000D02*
X102040000Y-127000000D01*
X102040000Y-127000000D02*
X101600000Y-127000000D01*
D29*
G36*
X142748000Y-97554040D02*
X141070330Y-97554040D01*
X140835013Y-97598318D01*
X140618889Y-97737390D01*
X140473899Y-97949590D01*
X140422890Y-98201480D01*
X140422890Y-99196213D01*
X140215620Y-99154240D01*
X139093582Y-99154240D01*
X137285000Y-97345658D01*
X137285000Y-96170105D01*
X137426441Y-96079090D01*
X137571431Y-95866890D01*
X137622440Y-95615000D01*
X137622440Y-95115000D01*
X137578162Y-94879683D01*
X137439090Y-94663559D01*
X137369289Y-94615866D01*
X137426441Y-94579090D01*
X137571431Y-94366890D01*
X137622440Y-94115000D01*
X137622440Y-93615000D01*
X137578162Y-93379683D01*
X137439090Y-93163559D01*
X137285000Y-93058274D01*
X137285000Y-92575380D01*
X137245156Y-92375075D01*
X137345167Y-92375162D01*
X137688943Y-92233117D01*
X137952192Y-91970327D01*
X138094838Y-91626799D01*
X138095162Y-91254833D01*
X137953117Y-90911057D01*
X137690327Y-90647808D01*
X137346799Y-90505162D01*
X136974833Y-90504838D01*
X136631057Y-90646883D01*
X136597882Y-90680000D01*
X135864600Y-90680000D01*
X135800840Y-90692683D01*
X135800840Y-89654380D01*
X135761839Y-89447110D01*
X136748520Y-89447110D01*
X136983837Y-89402832D01*
X137199961Y-89263760D01*
X137251346Y-89188555D01*
X137384711Y-89859024D01*
X137927954Y-90672046D01*
X138740976Y-91215289D01*
X139700000Y-91406051D01*
X140659024Y-91215289D01*
X141472046Y-90672046D01*
X142015289Y-89859024D01*
X142206051Y-88900000D01*
X142015289Y-87940976D01*
X141472046Y-87127954D01*
X140659024Y-86584711D01*
X139700000Y-86393949D01*
X138740976Y-86584711D01*
X137927954Y-87127954D01*
X137395960Y-87924141D01*
X137395960Y-86998810D01*
X137351682Y-86763493D01*
X137212610Y-86547369D01*
X137000410Y-86402379D01*
X136748520Y-86351370D01*
X135549640Y-86351370D01*
X135314323Y-86395648D01*
X135098199Y-86534720D01*
X134953209Y-86746920D01*
X134902200Y-86998810D01*
X134902200Y-88799670D01*
X134941201Y-89006940D01*
X134553960Y-89006940D01*
X134345934Y-89046083D01*
X134152640Y-89006940D01*
X133553200Y-89006940D01*
X133343442Y-89046409D01*
X133278189Y-89019380D01*
X133137910Y-89019380D01*
X132979160Y-89178130D01*
X132979160Y-89369720D01*
X132956769Y-89402490D01*
X132905760Y-89654380D01*
X132905760Y-91203780D01*
X132950038Y-91439097D01*
X132979160Y-91484354D01*
X132979160Y-91680030D01*
X133137910Y-91838780D01*
X133225000Y-91838780D01*
X133225000Y-93059895D01*
X133083559Y-93150910D01*
X132938569Y-93363110D01*
X132924986Y-93430184D01*
X132611400Y-93116598D01*
X132611400Y-91793790D01*
X132725160Y-91680030D01*
X132725160Y-91488440D01*
X132747551Y-91455670D01*
X132798560Y-91203780D01*
X132798560Y-89654380D01*
X132754282Y-89419063D01*
X132725160Y-89373806D01*
X132725160Y-89178130D01*
X132566410Y-89019380D01*
X132426131Y-89019380D01*
X132356000Y-89048429D01*
X132151120Y-89006940D01*
X131755827Y-89006940D01*
X131797800Y-88799670D01*
X131797800Y-86998810D01*
X131753522Y-86763493D01*
X131614450Y-86547369D01*
X131402250Y-86402379D01*
X131150360Y-86351370D01*
X129951480Y-86351370D01*
X129716163Y-86395648D01*
X129500039Y-86534720D01*
X129355049Y-86746920D01*
X129304040Y-86998810D01*
X129304040Y-88799670D01*
X129348318Y-89034987D01*
X129487390Y-89251111D01*
X129699590Y-89396101D01*
X129951480Y-89447110D01*
X130946213Y-89447110D01*
X130904240Y-89654380D01*
X130904240Y-90776418D01*
X127436230Y-94244428D01*
X127462440Y-94115000D01*
X127462440Y-93615000D01*
X127418162Y-93379683D01*
X127279090Y-93163559D01*
X127066890Y-93018569D01*
X126815000Y-92967560D01*
X126723680Y-92967560D01*
X126723680Y-91654934D01*
X126859831Y-91455670D01*
X126910840Y-91203780D01*
X126910840Y-89654380D01*
X126871839Y-89447110D01*
X127858520Y-89447110D01*
X128093837Y-89402832D01*
X128309961Y-89263760D01*
X128454951Y-89051560D01*
X128505960Y-88799670D01*
X128505960Y-86998810D01*
X128461682Y-86763493D01*
X128322610Y-86547369D01*
X128110410Y-86402379D01*
X127858520Y-86351370D01*
X126659640Y-86351370D01*
X126424323Y-86395648D01*
X126208199Y-86534720D01*
X126063209Y-86746920D01*
X126012200Y-86998810D01*
X126012200Y-88799670D01*
X126051201Y-89006940D01*
X125663960Y-89006940D01*
X125455934Y-89046083D01*
X125262640Y-89006940D01*
X124663200Y-89006940D01*
X124453442Y-89046409D01*
X124388189Y-89019380D01*
X124247910Y-89019380D01*
X124089160Y-89178130D01*
X124089160Y-89369720D01*
X124066769Y-89402490D01*
X124015760Y-89654380D01*
X124015760Y-90576080D01*
X123908560Y-90576080D01*
X123908560Y-89654380D01*
X123864282Y-89419063D01*
X123835160Y-89373806D01*
X123835160Y-89178130D01*
X123676410Y-89019380D01*
X123536131Y-89019380D01*
X123466000Y-89048429D01*
X123261120Y-89006940D01*
X122865827Y-89006940D01*
X122907800Y-88799670D01*
X122907800Y-86998810D01*
X122863522Y-86763493D01*
X122724450Y-86547369D01*
X122512250Y-86402379D01*
X122260360Y-86351370D01*
X121061480Y-86351370D01*
X120826163Y-86395648D01*
X120610039Y-86534720D01*
X120465049Y-86746920D01*
X120414040Y-86998810D01*
X120414040Y-88799670D01*
X120458318Y-89034987D01*
X120597390Y-89251111D01*
X120809590Y-89396101D01*
X121061480Y-89447110D01*
X122056213Y-89447110D01*
X122014240Y-89654380D01*
X122014240Y-91203780D01*
X122058518Y-91439097D01*
X122197590Y-91655221D01*
X122201400Y-91657824D01*
X122201400Y-92623798D01*
X118421641Y-96403557D01*
X118411352Y-96142539D01*
X118218019Y-95675792D01*
X117956350Y-95583255D01*
X117019605Y-96520000D01*
X117033748Y-96534143D01*
X116854143Y-96713748D01*
X116840000Y-96699605D01*
X115903255Y-97636350D01*
X115934407Y-97724439D01*
X115497086Y-98160997D01*
X115255276Y-98743341D01*
X115254725Y-99373893D01*
X115495519Y-99956657D01*
X115868471Y-100330261D01*
X115569739Y-100628471D01*
X115199003Y-100257086D01*
X114616659Y-100015276D01*
X113986107Y-100014725D01*
X113403343Y-100255519D01*
X113103000Y-100555338D01*
X113103000Y-97564396D01*
X113400997Y-97862914D01*
X113983341Y-98104724D01*
X114613893Y-98105275D01*
X115196657Y-97864481D01*
X115636116Y-97425789D01*
X115723650Y-97456745D01*
X116660395Y-96520000D01*
X115723650Y-95583255D01*
X115635561Y-95614407D01*
X115199003Y-95177086D01*
X114616659Y-94935276D01*
X113986107Y-94934725D01*
X113403343Y-95175519D01*
X112957086Y-95620997D01*
X112715276Y-96203341D01*
X112715196Y-96294328D01*
X112217440Y-95796572D01*
X112217440Y-94917362D01*
X112394802Y-94740000D01*
X115439053Y-94740000D01*
X115495519Y-94876657D01*
X115934211Y-95316116D01*
X115903255Y-95403650D01*
X116840000Y-96340395D01*
X117776745Y-95403650D01*
X117745593Y-95315561D01*
X118182914Y-94879003D01*
X118424724Y-94296659D01*
X118425275Y-93666107D01*
X118184481Y-93083343D01*
X117739003Y-92637086D01*
X117156659Y-92395276D01*
X116526107Y-92394725D01*
X115943343Y-92635519D01*
X115497086Y-93080997D01*
X115439367Y-93220000D01*
X112080000Y-93220000D01*
X111837414Y-93268254D01*
X111789160Y-93277852D01*
X111630000Y-93384199D01*
X111630000Y-89660000D01*
X112177962Y-89660000D01*
X112196838Y-89760317D01*
X112335910Y-89976441D01*
X112548110Y-90121431D01*
X112800000Y-90172440D01*
X113800000Y-90172440D01*
X114035317Y-90128162D01*
X114251441Y-89989090D01*
X114297969Y-89920994D01*
X114440302Y-90063327D01*
X114673691Y-90160000D01*
X115014250Y-90160000D01*
X115173000Y-90001250D01*
X115173000Y-89027000D01*
X115427000Y-89027000D01*
X115427000Y-90001250D01*
X115585750Y-90160000D01*
X115926309Y-90160000D01*
X116159698Y-90063327D01*
X116338327Y-89884699D01*
X116435000Y-89651310D01*
X116435000Y-89185750D01*
X116276250Y-89027000D01*
X115427000Y-89027000D01*
X115173000Y-89027000D01*
X115153000Y-89027000D01*
X115153000Y-88773000D01*
X115173000Y-88773000D01*
X115173000Y-87798750D01*
X115427000Y-87798750D01*
X115427000Y-88773000D01*
X116276250Y-88773000D01*
X116435000Y-88614250D01*
X116435000Y-88148690D01*
X116338327Y-87915301D01*
X116159698Y-87736673D01*
X115926309Y-87640000D01*
X115585750Y-87640000D01*
X115427000Y-87798750D01*
X115173000Y-87798750D01*
X115014250Y-87640000D01*
X114673691Y-87640000D01*
X114440302Y-87736673D01*
X114299064Y-87877910D01*
X114264090Y-87823559D01*
X114051890Y-87678569D01*
X113800000Y-87627560D01*
X112800000Y-87627560D01*
X112564683Y-87671838D01*
X112348559Y-87810910D01*
X112203569Y-88023110D01*
X112179898Y-88140000D01*
X110775105Y-88140000D01*
X110684090Y-87998559D01*
X110471890Y-87853569D01*
X110220000Y-87802560D01*
X109720000Y-87802560D01*
X109484683Y-87846838D01*
X109268559Y-87985910D01*
X109220866Y-88055711D01*
X109184090Y-87998559D01*
X108971890Y-87853569D01*
X108720000Y-87802560D01*
X108220000Y-87802560D01*
X107984683Y-87846838D01*
X107768559Y-87985910D01*
X107663274Y-88140000D01*
X105695105Y-88140000D01*
X105604090Y-87998559D01*
X105391890Y-87853569D01*
X105140000Y-87802560D01*
X104640000Y-87802560D01*
X104404683Y-87846838D01*
X104188559Y-87985910D01*
X104142031Y-88054006D01*
X103999698Y-87911673D01*
X103766309Y-87815000D01*
X103673750Y-87815000D01*
X103515000Y-87973750D01*
X103515000Y-88773000D01*
X103537000Y-88773000D01*
X103537000Y-89027000D01*
X103515000Y-89027000D01*
X103515000Y-89826250D01*
X103673750Y-89985000D01*
X103766309Y-89985000D01*
X103999698Y-89888327D01*
X104140936Y-89747090D01*
X104175910Y-89801441D01*
X104388110Y-89946431D01*
X104640000Y-89997440D01*
X105140000Y-89997440D01*
X105375317Y-89953162D01*
X105591441Y-89814090D01*
X105696726Y-89660000D01*
X107664895Y-89660000D01*
X107755910Y-89801441D01*
X107968110Y-89946431D01*
X108220000Y-89997440D01*
X108720000Y-89997440D01*
X108955317Y-89953162D01*
X109171441Y-89814090D01*
X109219134Y-89744289D01*
X109255910Y-89801441D01*
X109468110Y-89946431D01*
X109720000Y-89997440D01*
X110110000Y-89997440D01*
X110110000Y-93853850D01*
X109934683Y-93886838D01*
X109718559Y-94025910D01*
X109573569Y-94238110D01*
X109522560Y-94490000D01*
X109522560Y-96290000D01*
X109566838Y-96525317D01*
X109705910Y-96741441D01*
X109918110Y-96886431D01*
X110170000Y-96937440D01*
X110996572Y-96937440D01*
X111433000Y-97373868D01*
X111433000Y-98642560D01*
X110170000Y-98642560D01*
X109934683Y-98686838D01*
X109718559Y-98825910D01*
X109573569Y-99038110D01*
X109522560Y-99290000D01*
X109522560Y-99559080D01*
X109382599Y-99652599D01*
X108905000Y-100130198D01*
X108905000Y-100062998D01*
X108746252Y-100062998D01*
X108905000Y-99904250D01*
X108905000Y-99163690D01*
X108808327Y-98930301D01*
X108629698Y-98751673D01*
X108396309Y-98655000D01*
X107855750Y-98655000D01*
X107697000Y-98813750D01*
X107697000Y-100063000D01*
X107717000Y-100063000D01*
X107717000Y-100317000D01*
X107697000Y-100317000D01*
X107697000Y-100337000D01*
X107443000Y-100337000D01*
X107443000Y-100317000D01*
X106393750Y-100317000D01*
X106235000Y-100475750D01*
X106235000Y-101216310D01*
X106331673Y-101449699D01*
X106510302Y-101628327D01*
X106743691Y-101725000D01*
X107284250Y-101725000D01*
X107442998Y-101566252D01*
X107442998Y-101592200D01*
X107032599Y-102002599D01*
X106867852Y-102249161D01*
X106810000Y-102540000D01*
X106810000Y-111633850D01*
X106634683Y-111666838D01*
X106418559Y-111805910D01*
X106273569Y-112018110D01*
X106222560Y-112270000D01*
X106222560Y-114070000D01*
X106266838Y-114305317D01*
X106405910Y-114521441D01*
X106618110Y-114666431D01*
X106870000Y-114717440D01*
X108270000Y-114717440D01*
X108505317Y-114673162D01*
X108721441Y-114534090D01*
X108866431Y-114321890D01*
X108917440Y-114070000D01*
X108917440Y-112270000D01*
X108873162Y-112034683D01*
X108734090Y-111818559D01*
X108521890Y-111673569D01*
X108330000Y-111634710D01*
X108330000Y-102854802D01*
X109681420Y-101503382D01*
X109705910Y-101541441D01*
X109918110Y-101686431D01*
X110170000Y-101737440D01*
X110983690Y-101737440D01*
X110279566Y-102441564D01*
X110098561Y-102712457D01*
X110035000Y-103031998D01*
X110035000Y-111647962D01*
X109934683Y-111666838D01*
X109718559Y-111805910D01*
X109573569Y-112018110D01*
X109522560Y-112270000D01*
X109522560Y-114070000D01*
X109566838Y-114305317D01*
X109705910Y-114521441D01*
X109918110Y-114666431D01*
X110170000Y-114717440D01*
X111570000Y-114717440D01*
X111805317Y-114673162D01*
X112021441Y-114534090D01*
X112166431Y-114321890D01*
X112217440Y-114070000D01*
X112217440Y-112270000D01*
X112173162Y-112034683D01*
X112034090Y-111818559D01*
X111821890Y-111673569D01*
X111705000Y-111649898D01*
X111705000Y-103377866D01*
X112847539Y-102235327D01*
X112955519Y-102496657D01*
X113328471Y-102870261D01*
X112957086Y-103240997D01*
X112715276Y-103823341D01*
X112714725Y-104453893D01*
X112955519Y-105036657D01*
X113328471Y-105410261D01*
X112957086Y-105780997D01*
X112715276Y-106363341D01*
X112714725Y-106993893D01*
X112955519Y-107576657D01*
X113400997Y-108022914D01*
X113983341Y-108264724D01*
X114613893Y-108265275D01*
X115196657Y-108024481D01*
X115570261Y-107651529D01*
X115868471Y-107950261D01*
X115497086Y-108320997D01*
X115255276Y-108903341D01*
X115254725Y-109533893D01*
X115495519Y-110116657D01*
X115868471Y-110490261D01*
X115497086Y-110860997D01*
X115255276Y-111443341D01*
X115254725Y-112073893D01*
X115495519Y-112656657D01*
X115868471Y-113030261D01*
X115497086Y-113400997D01*
X115255276Y-113983341D01*
X115254725Y-114613893D01*
X115495519Y-115196657D01*
X115868471Y-115570261D01*
X115497086Y-115940997D01*
X115255276Y-116523341D01*
X115254725Y-117153893D01*
X115495519Y-117736657D01*
X115868471Y-118110261D01*
X115497086Y-118480997D01*
X115255276Y-119063341D01*
X115254725Y-119693893D01*
X115495519Y-120276657D01*
X115868471Y-120650261D01*
X115497086Y-121020997D01*
X115255276Y-121603341D01*
X115254725Y-122233893D01*
X115495519Y-122816657D01*
X115868471Y-123190261D01*
X115497086Y-123560997D01*
X115255276Y-124143341D01*
X115254725Y-124773893D01*
X115495519Y-125356657D01*
X115868471Y-125730261D01*
X115569739Y-126028471D01*
X115199003Y-125657086D01*
X114616659Y-125415276D01*
X113986107Y-125414725D01*
X113403343Y-125655519D01*
X113029739Y-126028471D01*
X112659003Y-125657086D01*
X112076659Y-125415276D01*
X111446107Y-125414725D01*
X110863343Y-125655519D01*
X110423884Y-126094211D01*
X110336350Y-126063255D01*
X109399605Y-127000000D01*
X110336350Y-127936745D01*
X110424439Y-127905593D01*
X110860997Y-128342914D01*
X111443341Y-128584724D01*
X112073893Y-128585275D01*
X112656657Y-128344481D01*
X113030261Y-127971529D01*
X113400997Y-128342914D01*
X113983341Y-128584724D01*
X114613893Y-128585275D01*
X115196657Y-128344481D01*
X115570261Y-127971529D01*
X115940997Y-128342914D01*
X116523341Y-128584724D01*
X117153893Y-128585275D01*
X117736657Y-128344481D01*
X118182914Y-127899003D01*
X118424724Y-127316659D01*
X118425275Y-126686107D01*
X118184481Y-126103343D01*
X117811529Y-125729739D01*
X118182914Y-125359003D01*
X118424724Y-124776659D01*
X118425275Y-124146107D01*
X118184481Y-123563343D01*
X117811529Y-123189739D01*
X118182914Y-122819003D01*
X118424724Y-122236659D01*
X118425275Y-121606107D01*
X118184481Y-121023343D01*
X117811529Y-120649739D01*
X118182914Y-120279003D01*
X118424724Y-119696659D01*
X118425275Y-119066107D01*
X118184481Y-118483343D01*
X117811529Y-118109739D01*
X118182914Y-117739003D01*
X118424724Y-117156659D01*
X118425275Y-116526107D01*
X118184481Y-115943343D01*
X117811529Y-115569739D01*
X118182914Y-115199003D01*
X118240633Y-115060000D01*
X124145198Y-115060000D01*
X124159878Y-115074680D01*
X124159838Y-115120167D01*
X124301883Y-115463943D01*
X124564673Y-115727192D01*
X124908201Y-115869838D01*
X125280167Y-115870162D01*
X125586687Y-115743511D01*
X125517599Y-115812599D01*
X125424080Y-115952560D01*
X125205000Y-115952560D01*
X125075411Y-115976944D01*
X124955000Y-115952560D01*
X124555000Y-115952560D01*
X124425411Y-115976944D01*
X124305000Y-115952560D01*
X123905000Y-115952560D01*
X123775411Y-115976944D01*
X123655000Y-115952560D01*
X123255000Y-115952560D01*
X123125411Y-115976944D01*
X123005000Y-115952560D01*
X122605000Y-115952560D01*
X122475411Y-115976944D01*
X122355000Y-115952560D01*
X121955000Y-115952560D01*
X121719683Y-115996838D01*
X121503559Y-116135910D01*
X121358569Y-116348110D01*
X121307560Y-116600000D01*
X121307560Y-117700000D01*
X121351838Y-117935317D01*
X121395000Y-118002393D01*
X121395000Y-137930002D01*
X121452852Y-138220841D01*
X121617599Y-138467403D01*
X122092560Y-138942364D01*
X122092560Y-139430000D01*
X122136838Y-139665317D01*
X122275910Y-139881441D01*
X122430000Y-139986726D01*
X122430000Y-140405198D01*
X120950122Y-138925320D01*
X120950162Y-138879833D01*
X120808117Y-138536057D01*
X120545327Y-138272808D01*
X120201799Y-138130162D01*
X119829833Y-138129838D01*
X119486057Y-138271883D01*
X119222808Y-138534673D01*
X119080162Y-138878201D01*
X119079838Y-139250167D01*
X119221883Y-139593943D01*
X119484673Y-139857192D01*
X119828201Y-139999838D01*
X119875077Y-139999879D01*
X122076146Y-142200948D01*
X122060169Y-142224330D01*
X122009160Y-142476220D01*
X122009160Y-144025620D01*
X122048161Y-144232890D01*
X121061480Y-144232890D01*
X120826163Y-144277168D01*
X120610039Y-144416240D01*
X120465049Y-144628440D01*
X120414040Y-144880330D01*
X120414040Y-146681190D01*
X120458318Y-146916507D01*
X120597390Y-147132631D01*
X120685743Y-147193000D01*
X96012000Y-147193000D01*
X96012000Y-144145000D01*
X96553949Y-144145000D01*
X96744711Y-145104024D01*
X97287954Y-145917046D01*
X98100976Y-146460289D01*
X99060000Y-146651051D01*
X100019024Y-146460289D01*
X100832046Y-145917046D01*
X101375289Y-145104024D01*
X101566051Y-144145000D01*
X101375289Y-143185976D01*
X100832046Y-142372954D01*
X100019024Y-141829711D01*
X99060000Y-141638949D01*
X98100976Y-141829711D01*
X97287954Y-142372954D01*
X96744711Y-143185976D01*
X96553949Y-144145000D01*
X96012000Y-144145000D01*
X96012000Y-101785167D01*
X96854838Y-101785167D01*
X96996883Y-102128943D01*
X97030000Y-102162118D01*
X97030000Y-137160000D01*
X97087852Y-137450839D01*
X97252599Y-137697401D01*
X105507599Y-145952401D01*
X105754161Y-146117148D01*
X106045000Y-146175000D01*
X111129000Y-146175000D01*
X111419839Y-146117148D01*
X111666401Y-145952401D01*
X113964638Y-143654164D01*
X113957569Y-143664510D01*
X113906560Y-143916400D01*
X113906560Y-145643600D01*
X113950838Y-145878917D01*
X114089910Y-146095041D01*
X114302110Y-146240031D01*
X114554000Y-146291040D01*
X116586000Y-146291040D01*
X116821317Y-146246762D01*
X117037441Y-146107690D01*
X117182431Y-145895490D01*
X117233440Y-145643600D01*
X117233440Y-143916400D01*
X117189162Y-143681083D01*
X117050090Y-143464959D01*
X116837890Y-143319969D01*
X116796561Y-143311600D01*
X116814415Y-143299670D01*
X117139271Y-142813489D01*
X117253345Y-142240000D01*
X117139271Y-141666511D01*
X116814415Y-141180330D01*
X116499634Y-140970000D01*
X116814415Y-140759670D01*
X117139271Y-140273489D01*
X117253345Y-139700000D01*
X117139271Y-139126511D01*
X116814415Y-138640330D01*
X116504931Y-138433539D01*
X116920732Y-138062036D01*
X117174709Y-137534791D01*
X117177358Y-137519026D01*
X117056217Y-137287000D01*
X115697000Y-137287000D01*
X115697000Y-137307000D01*
X115443000Y-137307000D01*
X115443000Y-137287000D01*
X114083783Y-137287000D01*
X113962642Y-137519026D01*
X113965291Y-137534791D01*
X114219268Y-138062036D01*
X114635069Y-138433539D01*
X114325585Y-138640330D01*
X114000729Y-139126511D01*
X113886655Y-139700000D01*
X113962334Y-140080464D01*
X113766599Y-140276199D01*
X113604001Y-140519545D01*
X112515666Y-141607880D01*
X112416954Y-141325680D01*
X112027036Y-140889268D01*
X111499791Y-140635291D01*
X111484026Y-140632642D01*
X111252000Y-140753783D01*
X111252000Y-142113000D01*
X111272000Y-142113000D01*
X111272000Y-142367000D01*
X111252000Y-142367000D01*
X111252000Y-142387000D01*
X110998000Y-142387000D01*
X110998000Y-142367000D01*
X110978000Y-142367000D01*
X110978000Y-142113000D01*
X110998000Y-142113000D01*
X110998000Y-140753783D01*
X110765974Y-140632642D01*
X110750209Y-140635291D01*
X110222964Y-140889268D01*
X109851461Y-141305069D01*
X109644670Y-140995585D01*
X109158489Y-140670729D01*
X108585000Y-140556655D01*
X108011511Y-140670729D01*
X107525330Y-140995585D01*
X107515757Y-141009913D01*
X107511762Y-140988683D01*
X107372690Y-140772559D01*
X107160490Y-140627569D01*
X106908600Y-140576560D01*
X106675920Y-140576560D01*
X106582401Y-140436599D01*
X104893906Y-138748104D01*
X104929510Y-138772431D01*
X105181400Y-138823440D01*
X106908600Y-138823440D01*
X107143917Y-138779162D01*
X107360041Y-138640090D01*
X107505031Y-138427890D01*
X107513400Y-138386561D01*
X107525330Y-138404415D01*
X108011511Y-138729271D01*
X108585000Y-138843345D01*
X109158489Y-138729271D01*
X109644670Y-138404415D01*
X109851461Y-138094931D01*
X110222964Y-138510732D01*
X110750209Y-138764709D01*
X110765974Y-138767358D01*
X110998000Y-138646217D01*
X110998000Y-137287000D01*
X111252000Y-137287000D01*
X111252000Y-138646217D01*
X111484026Y-138767358D01*
X111499791Y-138764709D01*
X112027036Y-138510732D01*
X112416954Y-138074320D01*
X112610184Y-137521913D01*
X112465924Y-137287000D01*
X111252000Y-137287000D01*
X110998000Y-137287000D01*
X110978000Y-137287000D01*
X110978000Y-137033000D01*
X110998000Y-137033000D01*
X110998000Y-135673783D01*
X111252000Y-135673783D01*
X111252000Y-137033000D01*
X112465924Y-137033000D01*
X112610184Y-136798087D01*
X112416954Y-136245680D01*
X112027036Y-135809268D01*
X111499791Y-135555291D01*
X111484026Y-135552642D01*
X111252000Y-135673783D01*
X110998000Y-135673783D01*
X110765974Y-135552642D01*
X110750209Y-135555291D01*
X110222964Y-135809268D01*
X109851461Y-136225069D01*
X109644670Y-135915585D01*
X109158489Y-135590729D01*
X108585000Y-135476655D01*
X108011511Y-135590729D01*
X107525330Y-135915585D01*
X107515757Y-135929913D01*
X107511762Y-135908683D01*
X107372690Y-135692559D01*
X107160490Y-135547569D01*
X106908600Y-135496560D01*
X106805000Y-135496560D01*
X106805000Y-134618588D01*
X106747148Y-134327749D01*
X106582401Y-134081187D01*
X106244654Y-133743440D01*
X106908600Y-133743440D01*
X107143917Y-133699162D01*
X107360041Y-133560090D01*
X107505031Y-133347890D01*
X107513400Y-133306561D01*
X107525330Y-133324415D01*
X108011511Y-133649271D01*
X108585000Y-133763345D01*
X109158489Y-133649271D01*
X109644670Y-133324415D01*
X109851461Y-133014931D01*
X110222964Y-133430732D01*
X110750209Y-133684709D01*
X110765974Y-133687358D01*
X110998000Y-133566217D01*
X110998000Y-132207000D01*
X111252000Y-132207000D01*
X111252000Y-133566217D01*
X111484026Y-133687358D01*
X111499791Y-133684709D01*
X112027036Y-133430732D01*
X112416954Y-132994320D01*
X112610184Y-132441913D01*
X112465924Y-132207000D01*
X111252000Y-132207000D01*
X110998000Y-132207000D01*
X110978000Y-132207000D01*
X110978000Y-132080000D01*
X113886655Y-132080000D01*
X114000729Y-132653489D01*
X114325585Y-133139670D01*
X114640366Y-133350000D01*
X114325585Y-133560330D01*
X114000729Y-134046511D01*
X113886655Y-134620000D01*
X114000729Y-135193489D01*
X114325585Y-135679670D01*
X114635069Y-135886461D01*
X114219268Y-136257964D01*
X113965291Y-136785209D01*
X113962642Y-136800974D01*
X114083783Y-137033000D01*
X115443000Y-137033000D01*
X115443000Y-137013000D01*
X115697000Y-137013000D01*
X115697000Y-137033000D01*
X117056217Y-137033000D01*
X117177358Y-136800974D01*
X117174709Y-136785209D01*
X116920732Y-136257964D01*
X116504931Y-135886461D01*
X116814415Y-135679670D01*
X117139271Y-135193489D01*
X117253345Y-134620000D01*
X117139271Y-134046511D01*
X116814415Y-133560330D01*
X116499634Y-133350000D01*
X116814415Y-133139670D01*
X117139271Y-132653489D01*
X117253345Y-132080000D01*
X117139271Y-131506511D01*
X116814415Y-131020330D01*
X116328234Y-130695474D01*
X115754745Y-130581400D01*
X115385255Y-130581400D01*
X114811766Y-130695474D01*
X114325585Y-131020330D01*
X114000729Y-131506511D01*
X113886655Y-132080000D01*
X110978000Y-132080000D01*
X110978000Y-131953000D01*
X110998000Y-131953000D01*
X110998000Y-130593783D01*
X111252000Y-130593783D01*
X111252000Y-131953000D01*
X112465924Y-131953000D01*
X112610184Y-131718087D01*
X112416954Y-131165680D01*
X112027036Y-130729268D01*
X111499791Y-130475291D01*
X111484026Y-130472642D01*
X111252000Y-130593783D01*
X110998000Y-130593783D01*
X110765974Y-130472642D01*
X110750209Y-130475291D01*
X110222964Y-130729268D01*
X109851461Y-131145069D01*
X109644670Y-130835585D01*
X109158489Y-130510729D01*
X108585000Y-130396655D01*
X108011511Y-130510729D01*
X107525330Y-130835585D01*
X107515757Y-130849913D01*
X107511762Y-130828683D01*
X107372690Y-130612559D01*
X107160490Y-130467569D01*
X106908600Y-130416560D01*
X105266372Y-130416560D01*
X102845780Y-127995968D01*
X102870261Y-127971529D01*
X103240997Y-128342914D01*
X103823341Y-128584724D01*
X104453893Y-128585275D01*
X105036657Y-128344481D01*
X105410261Y-127971529D01*
X105780997Y-128342914D01*
X106363341Y-128584724D01*
X106993893Y-128585275D01*
X107576657Y-128344481D01*
X107805186Y-128116350D01*
X108283255Y-128116350D01*
X108375792Y-128378019D01*
X108967398Y-128596188D01*
X109597461Y-128571352D01*
X110064208Y-128378019D01*
X110156745Y-128116350D01*
X109220000Y-127179605D01*
X108283255Y-128116350D01*
X107805186Y-128116350D01*
X108016116Y-127905789D01*
X108103650Y-127936745D01*
X109040395Y-127000000D01*
X108103650Y-126063255D01*
X108015561Y-126094407D01*
X107805172Y-125883650D01*
X108283255Y-125883650D01*
X109220000Y-126820395D01*
X110156745Y-125883650D01*
X110064208Y-125621981D01*
X109472602Y-125403812D01*
X108842539Y-125428648D01*
X108375792Y-125621981D01*
X108283255Y-125883650D01*
X107805172Y-125883650D01*
X107579003Y-125657086D01*
X106996659Y-125415276D01*
X106366107Y-125414725D01*
X105783343Y-125655519D01*
X105409739Y-126028471D01*
X105039003Y-125657086D01*
X104628268Y-125486534D01*
X110597362Y-119517440D01*
X111570000Y-119517440D01*
X111805317Y-119473162D01*
X112021441Y-119334090D01*
X112166431Y-119121890D01*
X112217440Y-118870000D01*
X112217440Y-117070000D01*
X112173162Y-116834683D01*
X112034090Y-116618559D01*
X111821890Y-116473569D01*
X111570000Y-116422560D01*
X110170000Y-116422560D01*
X109934683Y-116466838D01*
X109718559Y-116605910D01*
X109573569Y-116818110D01*
X109522560Y-117070000D01*
X109522560Y-118442638D01*
X108859824Y-119105374D01*
X108905000Y-118996310D01*
X108905000Y-118255750D01*
X108746250Y-118097000D01*
X107697000Y-118097000D01*
X107697000Y-119346250D01*
X107855750Y-119505000D01*
X108396309Y-119505000D01*
X108505374Y-119459824D01*
X103182015Y-124783183D01*
X103184724Y-124776659D01*
X103185275Y-124146107D01*
X102944481Y-123563343D01*
X102571529Y-123189739D01*
X102942914Y-122819003D01*
X103184724Y-122236659D01*
X103185275Y-121606107D01*
X102944481Y-121023343D01*
X102571529Y-120649739D01*
X102942914Y-120279003D01*
X103184724Y-119696659D01*
X103185275Y-119066107D01*
X102944481Y-118483343D01*
X102717286Y-118255750D01*
X106235000Y-118255750D01*
X106235000Y-118996310D01*
X106331673Y-119229699D01*
X106510302Y-119408327D01*
X106743691Y-119505000D01*
X107284250Y-119505000D01*
X107443000Y-119346250D01*
X107443000Y-118097000D01*
X106393750Y-118097000D01*
X106235000Y-118255750D01*
X102717286Y-118255750D01*
X102571529Y-118109739D01*
X102942914Y-117739003D01*
X103184724Y-117156659D01*
X103184910Y-116943690D01*
X106235000Y-116943690D01*
X106235000Y-117684250D01*
X106393750Y-117843000D01*
X107443000Y-117843000D01*
X107443000Y-116593750D01*
X107697000Y-116593750D01*
X107697000Y-117843000D01*
X108746250Y-117843000D01*
X108905000Y-117684250D01*
X108905000Y-116943690D01*
X108808327Y-116710301D01*
X108629698Y-116531673D01*
X108396309Y-116435000D01*
X107855750Y-116435000D01*
X107697000Y-116593750D01*
X107443000Y-116593750D01*
X107284250Y-116435000D01*
X106743691Y-116435000D01*
X106510302Y-116531673D01*
X106331673Y-116710301D01*
X106235000Y-116943690D01*
X103184910Y-116943690D01*
X103185275Y-116526107D01*
X102944481Y-115943343D01*
X102571529Y-115569739D01*
X102942914Y-115199003D01*
X103184724Y-114616659D01*
X103185275Y-113986107D01*
X102944481Y-113403343D01*
X102571529Y-113029739D01*
X102942914Y-112659003D01*
X103184724Y-112076659D01*
X103185275Y-111446107D01*
X102944481Y-110863343D01*
X102571529Y-110489739D01*
X102942914Y-110119003D01*
X103184724Y-109536659D01*
X103185275Y-108906107D01*
X102944481Y-108323343D01*
X102571529Y-107949739D01*
X102942914Y-107579003D01*
X103184724Y-106996659D01*
X103185275Y-106366107D01*
X102944481Y-105783343D01*
X102571529Y-105409739D01*
X102942914Y-105039003D01*
X103184724Y-104456659D01*
X103185275Y-103826107D01*
X102944481Y-103243343D01*
X102571529Y-102869739D01*
X102942914Y-102499003D01*
X103184724Y-101916659D01*
X103185275Y-101286107D01*
X102944481Y-100703343D01*
X102571529Y-100329739D01*
X102942914Y-99959003D01*
X103184724Y-99376659D01*
X103184910Y-99163690D01*
X106235000Y-99163690D01*
X106235000Y-99904250D01*
X106393750Y-100063000D01*
X107443000Y-100063000D01*
X107443000Y-98813750D01*
X107284250Y-98655000D01*
X106743691Y-98655000D01*
X106510302Y-98751673D01*
X106331673Y-98930301D01*
X106235000Y-99163690D01*
X103184910Y-99163690D01*
X103185275Y-98746107D01*
X102944481Y-98163343D01*
X102571529Y-97789739D01*
X102942914Y-97419003D01*
X103184724Y-96836659D01*
X103185275Y-96206107D01*
X102944481Y-95623343D01*
X102505789Y-95183884D01*
X102536745Y-95096350D01*
X101600000Y-94159605D01*
X100663255Y-95096350D01*
X100694407Y-95184439D01*
X100257086Y-95620997D01*
X100015276Y-96203341D01*
X100014725Y-96833893D01*
X100072202Y-96972996D01*
X98437566Y-98607632D01*
X98272819Y-98854194D01*
X98214967Y-99145033D01*
X98214967Y-100764058D01*
X97976799Y-100665162D01*
X97604833Y-100664838D01*
X97261057Y-100806883D01*
X96997808Y-101069673D01*
X96855162Y-101413201D01*
X96854838Y-101785167D01*
X96012000Y-101785167D01*
X96012000Y-93727398D01*
X100003812Y-93727398D01*
X100028648Y-94357461D01*
X100221981Y-94824208D01*
X100483650Y-94916745D01*
X101420395Y-93980000D01*
X101779605Y-93980000D01*
X102716350Y-94916745D01*
X102978019Y-94824208D01*
X103101266Y-94490000D01*
X106222560Y-94490000D01*
X106222560Y-96290000D01*
X106266838Y-96525317D01*
X106405910Y-96741441D01*
X106618110Y-96886431D01*
X106870000Y-96937440D01*
X108270000Y-96937440D01*
X108505317Y-96893162D01*
X108721441Y-96754090D01*
X108866431Y-96541890D01*
X108917440Y-96290000D01*
X108917440Y-94490000D01*
X108873162Y-94254683D01*
X108734090Y-94038559D01*
X108521890Y-93893569D01*
X108270000Y-93842560D01*
X106870000Y-93842560D01*
X106634683Y-93886838D01*
X106418559Y-94025910D01*
X106273569Y-94238110D01*
X106222560Y-94490000D01*
X103101266Y-94490000D01*
X103196188Y-94232602D01*
X103171352Y-93602539D01*
X102978019Y-93135792D01*
X102716350Y-93043255D01*
X101779605Y-93980000D01*
X101420395Y-93980000D01*
X100483650Y-93043255D01*
X100221981Y-93135792D01*
X100003812Y-93727398D01*
X96012000Y-93727398D01*
X96012000Y-92863650D01*
X100663255Y-92863650D01*
X101600000Y-93800395D01*
X102536745Y-92863650D01*
X102444208Y-92601981D01*
X101852602Y-92383812D01*
X101222539Y-92408648D01*
X100755792Y-92601981D01*
X100663255Y-92863650D01*
X96012000Y-92863650D01*
X96012000Y-88900000D01*
X96553949Y-88900000D01*
X96744711Y-89859024D01*
X97287954Y-90672046D01*
X98100976Y-91215289D01*
X99060000Y-91406051D01*
X100019024Y-91215289D01*
X100832046Y-90672046D01*
X101375289Y-89859024D01*
X101509211Y-89185750D01*
X102505000Y-89185750D01*
X102505000Y-89476310D01*
X102601673Y-89709699D01*
X102780302Y-89888327D01*
X103013691Y-89985000D01*
X103106250Y-89985000D01*
X103265000Y-89826250D01*
X103265000Y-89027000D01*
X102663750Y-89027000D01*
X102505000Y-89185750D01*
X101509211Y-89185750D01*
X101566051Y-88900000D01*
X101451416Y-88323690D01*
X102505000Y-88323690D01*
X102505000Y-88614250D01*
X102663750Y-88773000D01*
X103265000Y-88773000D01*
X103265000Y-87973750D01*
X103106250Y-87815000D01*
X103013691Y-87815000D01*
X102780302Y-87911673D01*
X102601673Y-88090301D01*
X102505000Y-88323690D01*
X101451416Y-88323690D01*
X101375289Y-87940976D01*
X100832046Y-87127954D01*
X100019024Y-86584711D01*
X99060000Y-86393949D01*
X98100976Y-86584711D01*
X97287954Y-87127954D01*
X96744711Y-87940976D01*
X96553949Y-88900000D01*
X96012000Y-88900000D01*
X96012000Y-85852000D01*
X142748000Y-85852000D01*
X142748000Y-97554040D01*
X142748000Y-97554040D01*
G37*
X142748000Y-97554040D02*
X141070330Y-97554040D01*
X140835013Y-97598318D01*
X140618889Y-97737390D01*
X140473899Y-97949590D01*
X140422890Y-98201480D01*
X140422890Y-99196213D01*
X140215620Y-99154240D01*
X139093582Y-99154240D01*
X137285000Y-97345658D01*
X137285000Y-96170105D01*
X137426441Y-96079090D01*
X137571431Y-95866890D01*
X137622440Y-95615000D01*
X137622440Y-95115000D01*
X137578162Y-94879683D01*
X137439090Y-94663559D01*
X137369289Y-94615866D01*
X137426441Y-94579090D01*
X137571431Y-94366890D01*
X137622440Y-94115000D01*
X137622440Y-93615000D01*
X137578162Y-93379683D01*
X137439090Y-93163559D01*
X137285000Y-93058274D01*
X137285000Y-92575380D01*
X137245156Y-92375075D01*
X137345167Y-92375162D01*
X137688943Y-92233117D01*
X137952192Y-91970327D01*
X138094838Y-91626799D01*
X138095162Y-91254833D01*
X137953117Y-90911057D01*
X137690327Y-90647808D01*
X137346799Y-90505162D01*
X136974833Y-90504838D01*
X136631057Y-90646883D01*
X136597882Y-90680000D01*
X135864600Y-90680000D01*
X135800840Y-90692683D01*
X135800840Y-89654380D01*
X135761839Y-89447110D01*
X136748520Y-89447110D01*
X136983837Y-89402832D01*
X137199961Y-89263760D01*
X137251346Y-89188555D01*
X137384711Y-89859024D01*
X137927954Y-90672046D01*
X138740976Y-91215289D01*
X139700000Y-91406051D01*
X140659024Y-91215289D01*
X141472046Y-90672046D01*
X142015289Y-89859024D01*
X142206051Y-88900000D01*
X142015289Y-87940976D01*
X141472046Y-87127954D01*
X140659024Y-86584711D01*
X139700000Y-86393949D01*
X138740976Y-86584711D01*
X137927954Y-87127954D01*
X137395960Y-87924141D01*
X137395960Y-86998810D01*
X137351682Y-86763493D01*
X137212610Y-86547369D01*
X137000410Y-86402379D01*
X136748520Y-86351370D01*
X135549640Y-86351370D01*
X135314323Y-86395648D01*
X135098199Y-86534720D01*
X134953209Y-86746920D01*
X134902200Y-86998810D01*
X134902200Y-88799670D01*
X134941201Y-89006940D01*
X134553960Y-89006940D01*
X134345934Y-89046083D01*
X134152640Y-89006940D01*
X133553200Y-89006940D01*
X133343442Y-89046409D01*
X133278189Y-89019380D01*
X133137910Y-89019380D01*
X132979160Y-89178130D01*
X132979160Y-89369720D01*
X132956769Y-89402490D01*
X132905760Y-89654380D01*
X132905760Y-91203780D01*
X132950038Y-91439097D01*
X132979160Y-91484354D01*
X132979160Y-91680030D01*
X133137910Y-91838780D01*
X133225000Y-91838780D01*
X133225000Y-93059895D01*
X133083559Y-93150910D01*
X132938569Y-93363110D01*
X132924986Y-93430184D01*
X132611400Y-93116598D01*
X132611400Y-91793790D01*
X132725160Y-91680030D01*
X132725160Y-91488440D01*
X132747551Y-91455670D01*
X132798560Y-91203780D01*
X132798560Y-89654380D01*
X132754282Y-89419063D01*
X132725160Y-89373806D01*
X132725160Y-89178130D01*
X132566410Y-89019380D01*
X132426131Y-89019380D01*
X132356000Y-89048429D01*
X132151120Y-89006940D01*
X131755827Y-89006940D01*
X131797800Y-88799670D01*
X131797800Y-86998810D01*
X131753522Y-86763493D01*
X131614450Y-86547369D01*
X131402250Y-86402379D01*
X131150360Y-86351370D01*
X129951480Y-86351370D01*
X129716163Y-86395648D01*
X129500039Y-86534720D01*
X129355049Y-86746920D01*
X129304040Y-86998810D01*
X129304040Y-88799670D01*
X129348318Y-89034987D01*
X129487390Y-89251111D01*
X129699590Y-89396101D01*
X129951480Y-89447110D01*
X130946213Y-89447110D01*
X130904240Y-89654380D01*
X130904240Y-90776418D01*
X127436230Y-94244428D01*
X127462440Y-94115000D01*
X127462440Y-93615000D01*
X127418162Y-93379683D01*
X127279090Y-93163559D01*
X127066890Y-93018569D01*
X126815000Y-92967560D01*
X126723680Y-92967560D01*
X126723680Y-91654934D01*
X126859831Y-91455670D01*
X126910840Y-91203780D01*
X126910840Y-89654380D01*
X126871839Y-89447110D01*
X127858520Y-89447110D01*
X128093837Y-89402832D01*
X128309961Y-89263760D01*
X128454951Y-89051560D01*
X128505960Y-88799670D01*
X128505960Y-86998810D01*
X128461682Y-86763493D01*
X128322610Y-86547369D01*
X128110410Y-86402379D01*
X127858520Y-86351370D01*
X126659640Y-86351370D01*
X126424323Y-86395648D01*
X126208199Y-86534720D01*
X126063209Y-86746920D01*
X126012200Y-86998810D01*
X126012200Y-88799670D01*
X126051201Y-89006940D01*
X125663960Y-89006940D01*
X125455934Y-89046083D01*
X125262640Y-89006940D01*
X124663200Y-89006940D01*
X124453442Y-89046409D01*
X124388189Y-89019380D01*
X124247910Y-89019380D01*
X124089160Y-89178130D01*
X124089160Y-89369720D01*
X124066769Y-89402490D01*
X124015760Y-89654380D01*
X124015760Y-90576080D01*
X123908560Y-90576080D01*
X123908560Y-89654380D01*
X123864282Y-89419063D01*
X123835160Y-89373806D01*
X123835160Y-89178130D01*
X123676410Y-89019380D01*
X123536131Y-89019380D01*
X123466000Y-89048429D01*
X123261120Y-89006940D01*
X122865827Y-89006940D01*
X122907800Y-88799670D01*
X122907800Y-86998810D01*
X122863522Y-86763493D01*
X122724450Y-86547369D01*
X122512250Y-86402379D01*
X122260360Y-86351370D01*
X121061480Y-86351370D01*
X120826163Y-86395648D01*
X120610039Y-86534720D01*
X120465049Y-86746920D01*
X120414040Y-86998810D01*
X120414040Y-88799670D01*
X120458318Y-89034987D01*
X120597390Y-89251111D01*
X120809590Y-89396101D01*
X121061480Y-89447110D01*
X122056213Y-89447110D01*
X122014240Y-89654380D01*
X122014240Y-91203780D01*
X122058518Y-91439097D01*
X122197590Y-91655221D01*
X122201400Y-91657824D01*
X122201400Y-92623798D01*
X118421641Y-96403557D01*
X118411352Y-96142539D01*
X118218019Y-95675792D01*
X117956350Y-95583255D01*
X117019605Y-96520000D01*
X117033748Y-96534143D01*
X116854143Y-96713748D01*
X116840000Y-96699605D01*
X115903255Y-97636350D01*
X115934407Y-97724439D01*
X115497086Y-98160997D01*
X115255276Y-98743341D01*
X115254725Y-99373893D01*
X115495519Y-99956657D01*
X115868471Y-100330261D01*
X115569739Y-100628471D01*
X115199003Y-100257086D01*
X114616659Y-100015276D01*
X113986107Y-100014725D01*
X113403343Y-100255519D01*
X113103000Y-100555338D01*
X113103000Y-97564396D01*
X113400997Y-97862914D01*
X113983341Y-98104724D01*
X114613893Y-98105275D01*
X115196657Y-97864481D01*
X115636116Y-97425789D01*
X115723650Y-97456745D01*
X116660395Y-96520000D01*
X115723650Y-95583255D01*
X115635561Y-95614407D01*
X115199003Y-95177086D01*
X114616659Y-94935276D01*
X113986107Y-94934725D01*
X113403343Y-95175519D01*
X112957086Y-95620997D01*
X112715276Y-96203341D01*
X112715196Y-96294328D01*
X112217440Y-95796572D01*
X112217440Y-94917362D01*
X112394802Y-94740000D01*
X115439053Y-94740000D01*
X115495519Y-94876657D01*
X115934211Y-95316116D01*
X115903255Y-95403650D01*
X116840000Y-96340395D01*
X117776745Y-95403650D01*
X117745593Y-95315561D01*
X118182914Y-94879003D01*
X118424724Y-94296659D01*
X118425275Y-93666107D01*
X118184481Y-93083343D01*
X117739003Y-92637086D01*
X117156659Y-92395276D01*
X116526107Y-92394725D01*
X115943343Y-92635519D01*
X115497086Y-93080997D01*
X115439367Y-93220000D01*
X112080000Y-93220000D01*
X111837414Y-93268254D01*
X111789160Y-93277852D01*
X111630000Y-93384199D01*
X111630000Y-89660000D01*
X112177962Y-89660000D01*
X112196838Y-89760317D01*
X112335910Y-89976441D01*
X112548110Y-90121431D01*
X112800000Y-90172440D01*
X113800000Y-90172440D01*
X114035317Y-90128162D01*
X114251441Y-89989090D01*
X114297969Y-89920994D01*
X114440302Y-90063327D01*
X114673691Y-90160000D01*
X115014250Y-90160000D01*
X115173000Y-90001250D01*
X115173000Y-89027000D01*
X115427000Y-89027000D01*
X115427000Y-90001250D01*
X115585750Y-90160000D01*
X115926309Y-90160000D01*
X116159698Y-90063327D01*
X116338327Y-89884699D01*
X116435000Y-89651310D01*
X116435000Y-89185750D01*
X116276250Y-89027000D01*
X115427000Y-89027000D01*
X115173000Y-89027000D01*
X115153000Y-89027000D01*
X115153000Y-88773000D01*
X115173000Y-88773000D01*
X115173000Y-87798750D01*
X115427000Y-87798750D01*
X115427000Y-88773000D01*
X116276250Y-88773000D01*
X116435000Y-88614250D01*
X116435000Y-88148690D01*
X116338327Y-87915301D01*
X116159698Y-87736673D01*
X115926309Y-87640000D01*
X115585750Y-87640000D01*
X115427000Y-87798750D01*
X115173000Y-87798750D01*
X115014250Y-87640000D01*
X114673691Y-87640000D01*
X114440302Y-87736673D01*
X114299064Y-87877910D01*
X114264090Y-87823559D01*
X114051890Y-87678569D01*
X113800000Y-87627560D01*
X112800000Y-87627560D01*
X112564683Y-87671838D01*
X112348559Y-87810910D01*
X112203569Y-88023110D01*
X112179898Y-88140000D01*
X110775105Y-88140000D01*
X110684090Y-87998559D01*
X110471890Y-87853569D01*
X110220000Y-87802560D01*
X109720000Y-87802560D01*
X109484683Y-87846838D01*
X109268559Y-87985910D01*
X109220866Y-88055711D01*
X109184090Y-87998559D01*
X108971890Y-87853569D01*
X108720000Y-87802560D01*
X108220000Y-87802560D01*
X107984683Y-87846838D01*
X107768559Y-87985910D01*
X107663274Y-88140000D01*
X105695105Y-88140000D01*
X105604090Y-87998559D01*
X105391890Y-87853569D01*
X105140000Y-87802560D01*
X104640000Y-87802560D01*
X104404683Y-87846838D01*
X104188559Y-87985910D01*
X104142031Y-88054006D01*
X103999698Y-87911673D01*
X103766309Y-87815000D01*
X103673750Y-87815000D01*
X103515000Y-87973750D01*
X103515000Y-88773000D01*
X103537000Y-88773000D01*
X103537000Y-89027000D01*
X103515000Y-89027000D01*
X103515000Y-89826250D01*
X103673750Y-89985000D01*
X103766309Y-89985000D01*
X103999698Y-89888327D01*
X104140936Y-89747090D01*
X104175910Y-89801441D01*
X104388110Y-89946431D01*
X104640000Y-89997440D01*
X105140000Y-89997440D01*
X105375317Y-89953162D01*
X105591441Y-89814090D01*
X105696726Y-89660000D01*
X107664895Y-89660000D01*
X107755910Y-89801441D01*
X107968110Y-89946431D01*
X108220000Y-89997440D01*
X108720000Y-89997440D01*
X108955317Y-89953162D01*
X109171441Y-89814090D01*
X109219134Y-89744289D01*
X109255910Y-89801441D01*
X109468110Y-89946431D01*
X109720000Y-89997440D01*
X110110000Y-89997440D01*
X110110000Y-93853850D01*
X109934683Y-93886838D01*
X109718559Y-94025910D01*
X109573569Y-94238110D01*
X109522560Y-94490000D01*
X109522560Y-96290000D01*
X109566838Y-96525317D01*
X109705910Y-96741441D01*
X109918110Y-96886431D01*
X110170000Y-96937440D01*
X110996572Y-96937440D01*
X111433000Y-97373868D01*
X111433000Y-98642560D01*
X110170000Y-98642560D01*
X109934683Y-98686838D01*
X109718559Y-98825910D01*
X109573569Y-99038110D01*
X109522560Y-99290000D01*
X109522560Y-99559080D01*
X109382599Y-99652599D01*
X108905000Y-100130198D01*
X108905000Y-100062998D01*
X108746252Y-100062998D01*
X108905000Y-99904250D01*
X108905000Y-99163690D01*
X108808327Y-98930301D01*
X108629698Y-98751673D01*
X108396309Y-98655000D01*
X107855750Y-98655000D01*
X107697000Y-98813750D01*
X107697000Y-100063000D01*
X107717000Y-100063000D01*
X107717000Y-100317000D01*
X107697000Y-100317000D01*
X107697000Y-100337000D01*
X107443000Y-100337000D01*
X107443000Y-100317000D01*
X106393750Y-100317000D01*
X106235000Y-100475750D01*
X106235000Y-101216310D01*
X106331673Y-101449699D01*
X106510302Y-101628327D01*
X106743691Y-101725000D01*
X107284250Y-101725000D01*
X107442998Y-101566252D01*
X107442998Y-101592200D01*
X107032599Y-102002599D01*
X106867852Y-102249161D01*
X106810000Y-102540000D01*
X106810000Y-111633850D01*
X106634683Y-111666838D01*
X106418559Y-111805910D01*
X106273569Y-112018110D01*
X106222560Y-112270000D01*
X106222560Y-114070000D01*
X106266838Y-114305317D01*
X106405910Y-114521441D01*
X106618110Y-114666431D01*
X106870000Y-114717440D01*
X108270000Y-114717440D01*
X108505317Y-114673162D01*
X108721441Y-114534090D01*
X108866431Y-114321890D01*
X108917440Y-114070000D01*
X108917440Y-112270000D01*
X108873162Y-112034683D01*
X108734090Y-111818559D01*
X108521890Y-111673569D01*
X108330000Y-111634710D01*
X108330000Y-102854802D01*
X109681420Y-101503382D01*
X109705910Y-101541441D01*
X109918110Y-101686431D01*
X110170000Y-101737440D01*
X110983690Y-101737440D01*
X110279566Y-102441564D01*
X110098561Y-102712457D01*
X110035000Y-103031998D01*
X110035000Y-111647962D01*
X109934683Y-111666838D01*
X109718559Y-111805910D01*
X109573569Y-112018110D01*
X109522560Y-112270000D01*
X109522560Y-114070000D01*
X109566838Y-114305317D01*
X109705910Y-114521441D01*
X109918110Y-114666431D01*
X110170000Y-114717440D01*
X111570000Y-114717440D01*
X111805317Y-114673162D01*
X112021441Y-114534090D01*
X112166431Y-114321890D01*
X112217440Y-114070000D01*
X112217440Y-112270000D01*
X112173162Y-112034683D01*
X112034090Y-111818559D01*
X111821890Y-111673569D01*
X111705000Y-111649898D01*
X111705000Y-103377866D01*
X112847539Y-102235327D01*
X112955519Y-102496657D01*
X113328471Y-102870261D01*
X112957086Y-103240997D01*
X112715276Y-103823341D01*
X112714725Y-104453893D01*
X112955519Y-105036657D01*
X113328471Y-105410261D01*
X112957086Y-105780997D01*
X112715276Y-106363341D01*
X112714725Y-106993893D01*
X112955519Y-107576657D01*
X113400997Y-108022914D01*
X113983341Y-108264724D01*
X114613893Y-108265275D01*
X115196657Y-108024481D01*
X115570261Y-107651529D01*
X115868471Y-107950261D01*
X115497086Y-108320997D01*
X115255276Y-108903341D01*
X115254725Y-109533893D01*
X115495519Y-110116657D01*
X115868471Y-110490261D01*
X115497086Y-110860997D01*
X115255276Y-111443341D01*
X115254725Y-112073893D01*
X115495519Y-112656657D01*
X115868471Y-113030261D01*
X115497086Y-113400997D01*
X115255276Y-113983341D01*
X115254725Y-114613893D01*
X115495519Y-115196657D01*
X115868471Y-115570261D01*
X115497086Y-115940997D01*
X115255276Y-116523341D01*
X115254725Y-117153893D01*
X115495519Y-117736657D01*
X115868471Y-118110261D01*
X115497086Y-118480997D01*
X115255276Y-119063341D01*
X115254725Y-119693893D01*
X115495519Y-120276657D01*
X115868471Y-120650261D01*
X115497086Y-121020997D01*
X115255276Y-121603341D01*
X115254725Y-122233893D01*
X115495519Y-122816657D01*
X115868471Y-123190261D01*
X115497086Y-123560997D01*
X115255276Y-124143341D01*
X115254725Y-124773893D01*
X115495519Y-125356657D01*
X115868471Y-125730261D01*
X115569739Y-126028471D01*
X115199003Y-125657086D01*
X114616659Y-125415276D01*
X113986107Y-125414725D01*
X113403343Y-125655519D01*
X113029739Y-126028471D01*
X112659003Y-125657086D01*
X112076659Y-125415276D01*
X111446107Y-125414725D01*
X110863343Y-125655519D01*
X110423884Y-126094211D01*
X110336350Y-126063255D01*
X109399605Y-127000000D01*
X110336350Y-127936745D01*
X110424439Y-127905593D01*
X110860997Y-128342914D01*
X111443341Y-128584724D01*
X112073893Y-128585275D01*
X112656657Y-128344481D01*
X113030261Y-127971529D01*
X113400997Y-128342914D01*
X113983341Y-128584724D01*
X114613893Y-128585275D01*
X115196657Y-128344481D01*
X115570261Y-127971529D01*
X115940997Y-128342914D01*
X116523341Y-128584724D01*
X117153893Y-128585275D01*
X117736657Y-128344481D01*
X118182914Y-127899003D01*
X118424724Y-127316659D01*
X118425275Y-126686107D01*
X118184481Y-126103343D01*
X117811529Y-125729739D01*
X118182914Y-125359003D01*
X118424724Y-124776659D01*
X118425275Y-124146107D01*
X118184481Y-123563343D01*
X117811529Y-123189739D01*
X118182914Y-122819003D01*
X118424724Y-122236659D01*
X118425275Y-121606107D01*
X118184481Y-121023343D01*
X117811529Y-120649739D01*
X118182914Y-120279003D01*
X118424724Y-119696659D01*
X118425275Y-119066107D01*
X118184481Y-118483343D01*
X117811529Y-118109739D01*
X118182914Y-117739003D01*
X118424724Y-117156659D01*
X118425275Y-116526107D01*
X118184481Y-115943343D01*
X117811529Y-115569739D01*
X118182914Y-115199003D01*
X118240633Y-115060000D01*
X124145198Y-115060000D01*
X124159878Y-115074680D01*
X124159838Y-115120167D01*
X124301883Y-115463943D01*
X124564673Y-115727192D01*
X124908201Y-115869838D01*
X125280167Y-115870162D01*
X125586687Y-115743511D01*
X125517599Y-115812599D01*
X125424080Y-115952560D01*
X125205000Y-115952560D01*
X125075411Y-115976944D01*
X124955000Y-115952560D01*
X124555000Y-115952560D01*
X124425411Y-115976944D01*
X124305000Y-115952560D01*
X123905000Y-115952560D01*
X123775411Y-115976944D01*
X123655000Y-115952560D01*
X123255000Y-115952560D01*
X123125411Y-115976944D01*
X123005000Y-115952560D01*
X122605000Y-115952560D01*
X122475411Y-115976944D01*
X122355000Y-115952560D01*
X121955000Y-115952560D01*
X121719683Y-115996838D01*
X121503559Y-116135910D01*
X121358569Y-116348110D01*
X121307560Y-116600000D01*
X121307560Y-117700000D01*
X121351838Y-117935317D01*
X121395000Y-118002393D01*
X121395000Y-137930002D01*
X121452852Y-138220841D01*
X121617599Y-138467403D01*
X122092560Y-138942364D01*
X122092560Y-139430000D01*
X122136838Y-139665317D01*
X122275910Y-139881441D01*
X122430000Y-139986726D01*
X122430000Y-140405198D01*
X120950122Y-138925320D01*
X120950162Y-138879833D01*
X120808117Y-138536057D01*
X120545327Y-138272808D01*
X120201799Y-138130162D01*
X119829833Y-138129838D01*
X119486057Y-138271883D01*
X119222808Y-138534673D01*
X119080162Y-138878201D01*
X119079838Y-139250167D01*
X119221883Y-139593943D01*
X119484673Y-139857192D01*
X119828201Y-139999838D01*
X119875077Y-139999879D01*
X122076146Y-142200948D01*
X122060169Y-142224330D01*
X122009160Y-142476220D01*
X122009160Y-144025620D01*
X122048161Y-144232890D01*
X121061480Y-144232890D01*
X120826163Y-144277168D01*
X120610039Y-144416240D01*
X120465049Y-144628440D01*
X120414040Y-144880330D01*
X120414040Y-146681190D01*
X120458318Y-146916507D01*
X120597390Y-147132631D01*
X120685743Y-147193000D01*
X96012000Y-147193000D01*
X96012000Y-144145000D01*
X96553949Y-144145000D01*
X96744711Y-145104024D01*
X97287954Y-145917046D01*
X98100976Y-146460289D01*
X99060000Y-146651051D01*
X100019024Y-146460289D01*
X100832046Y-145917046D01*
X101375289Y-145104024D01*
X101566051Y-144145000D01*
X101375289Y-143185976D01*
X100832046Y-142372954D01*
X100019024Y-141829711D01*
X99060000Y-141638949D01*
X98100976Y-141829711D01*
X97287954Y-142372954D01*
X96744711Y-143185976D01*
X96553949Y-144145000D01*
X96012000Y-144145000D01*
X96012000Y-101785167D01*
X96854838Y-101785167D01*
X96996883Y-102128943D01*
X97030000Y-102162118D01*
X97030000Y-137160000D01*
X97087852Y-137450839D01*
X97252599Y-137697401D01*
X105507599Y-145952401D01*
X105754161Y-146117148D01*
X106045000Y-146175000D01*
X111129000Y-146175000D01*
X111419839Y-146117148D01*
X111666401Y-145952401D01*
X113964638Y-143654164D01*
X113957569Y-143664510D01*
X113906560Y-143916400D01*
X113906560Y-145643600D01*
X113950838Y-145878917D01*
X114089910Y-146095041D01*
X114302110Y-146240031D01*
X114554000Y-146291040D01*
X116586000Y-146291040D01*
X116821317Y-146246762D01*
X117037441Y-146107690D01*
X117182431Y-145895490D01*
X117233440Y-145643600D01*
X117233440Y-143916400D01*
X117189162Y-143681083D01*
X117050090Y-143464959D01*
X116837890Y-143319969D01*
X116796561Y-143311600D01*
X116814415Y-143299670D01*
X117139271Y-142813489D01*
X117253345Y-142240000D01*
X117139271Y-141666511D01*
X116814415Y-141180330D01*
X116499634Y-140970000D01*
X116814415Y-140759670D01*
X117139271Y-140273489D01*
X117253345Y-139700000D01*
X117139271Y-139126511D01*
X116814415Y-138640330D01*
X116504931Y-138433539D01*
X116920732Y-138062036D01*
X117174709Y-137534791D01*
X117177358Y-137519026D01*
X117056217Y-137287000D01*
X115697000Y-137287000D01*
X115697000Y-137307000D01*
X115443000Y-137307000D01*
X115443000Y-137287000D01*
X114083783Y-137287000D01*
X113962642Y-137519026D01*
X113965291Y-137534791D01*
X114219268Y-138062036D01*
X114635069Y-138433539D01*
X114325585Y-138640330D01*
X114000729Y-139126511D01*
X113886655Y-139700000D01*
X113962334Y-140080464D01*
X113766599Y-140276199D01*
X113604001Y-140519545D01*
X112515666Y-141607880D01*
X112416954Y-141325680D01*
X112027036Y-140889268D01*
X111499791Y-140635291D01*
X111484026Y-140632642D01*
X111252000Y-140753783D01*
X111252000Y-142113000D01*
X111272000Y-142113000D01*
X111272000Y-142367000D01*
X111252000Y-142367000D01*
X111252000Y-142387000D01*
X110998000Y-142387000D01*
X110998000Y-142367000D01*
X110978000Y-142367000D01*
X110978000Y-142113000D01*
X110998000Y-142113000D01*
X110998000Y-140753783D01*
X110765974Y-140632642D01*
X110750209Y-140635291D01*
X110222964Y-140889268D01*
X109851461Y-141305069D01*
X109644670Y-140995585D01*
X109158489Y-140670729D01*
X108585000Y-140556655D01*
X108011511Y-140670729D01*
X107525330Y-140995585D01*
X107515757Y-141009913D01*
X107511762Y-140988683D01*
X107372690Y-140772559D01*
X107160490Y-140627569D01*
X106908600Y-140576560D01*
X106675920Y-140576560D01*
X106582401Y-140436599D01*
X104893906Y-138748104D01*
X104929510Y-138772431D01*
X105181400Y-138823440D01*
X106908600Y-138823440D01*
X107143917Y-138779162D01*
X107360041Y-138640090D01*
X107505031Y-138427890D01*
X107513400Y-138386561D01*
X107525330Y-138404415D01*
X108011511Y-138729271D01*
X108585000Y-138843345D01*
X109158489Y-138729271D01*
X109644670Y-138404415D01*
X109851461Y-138094931D01*
X110222964Y-138510732D01*
X110750209Y-138764709D01*
X110765974Y-138767358D01*
X110998000Y-138646217D01*
X110998000Y-137287000D01*
X111252000Y-137287000D01*
X111252000Y-138646217D01*
X111484026Y-138767358D01*
X111499791Y-138764709D01*
X112027036Y-138510732D01*
X112416954Y-138074320D01*
X112610184Y-137521913D01*
X112465924Y-137287000D01*
X111252000Y-137287000D01*
X110998000Y-137287000D01*
X110978000Y-137287000D01*
X110978000Y-137033000D01*
X110998000Y-137033000D01*
X110998000Y-135673783D01*
X111252000Y-135673783D01*
X111252000Y-137033000D01*
X112465924Y-137033000D01*
X112610184Y-136798087D01*
X112416954Y-136245680D01*
X112027036Y-135809268D01*
X111499791Y-135555291D01*
X111484026Y-135552642D01*
X111252000Y-135673783D01*
X110998000Y-135673783D01*
X110765974Y-135552642D01*
X110750209Y-135555291D01*
X110222964Y-135809268D01*
X109851461Y-136225069D01*
X109644670Y-135915585D01*
X109158489Y-135590729D01*
X108585000Y-135476655D01*
X108011511Y-135590729D01*
X107525330Y-135915585D01*
X107515757Y-135929913D01*
X107511762Y-135908683D01*
X107372690Y-135692559D01*
X107160490Y-135547569D01*
X106908600Y-135496560D01*
X106805000Y-135496560D01*
X106805000Y-134618588D01*
X106747148Y-134327749D01*
X106582401Y-134081187D01*
X106244654Y-133743440D01*
X106908600Y-133743440D01*
X107143917Y-133699162D01*
X107360041Y-133560090D01*
X107505031Y-133347890D01*
X107513400Y-133306561D01*
X107525330Y-133324415D01*
X108011511Y-133649271D01*
X108585000Y-133763345D01*
X109158489Y-133649271D01*
X109644670Y-133324415D01*
X109851461Y-133014931D01*
X110222964Y-133430732D01*
X110750209Y-133684709D01*
X110765974Y-133687358D01*
X110998000Y-133566217D01*
X110998000Y-132207000D01*
X111252000Y-132207000D01*
X111252000Y-133566217D01*
X111484026Y-133687358D01*
X111499791Y-133684709D01*
X112027036Y-133430732D01*
X112416954Y-132994320D01*
X112610184Y-132441913D01*
X112465924Y-132207000D01*
X111252000Y-132207000D01*
X110998000Y-132207000D01*
X110978000Y-132207000D01*
X110978000Y-132080000D01*
X113886655Y-132080000D01*
X114000729Y-132653489D01*
X114325585Y-133139670D01*
X114640366Y-133350000D01*
X114325585Y-133560330D01*
X114000729Y-134046511D01*
X113886655Y-134620000D01*
X114000729Y-135193489D01*
X114325585Y-135679670D01*
X114635069Y-135886461D01*
X114219268Y-136257964D01*
X113965291Y-136785209D01*
X113962642Y-136800974D01*
X114083783Y-137033000D01*
X115443000Y-137033000D01*
X115443000Y-137013000D01*
X115697000Y-137013000D01*
X115697000Y-137033000D01*
X117056217Y-137033000D01*
X117177358Y-136800974D01*
X117174709Y-136785209D01*
X116920732Y-136257964D01*
X116504931Y-135886461D01*
X116814415Y-135679670D01*
X117139271Y-135193489D01*
X117253345Y-134620000D01*
X117139271Y-134046511D01*
X116814415Y-133560330D01*
X116499634Y-133350000D01*
X116814415Y-133139670D01*
X117139271Y-132653489D01*
X117253345Y-132080000D01*
X117139271Y-131506511D01*
X116814415Y-131020330D01*
X116328234Y-130695474D01*
X115754745Y-130581400D01*
X115385255Y-130581400D01*
X114811766Y-130695474D01*
X114325585Y-131020330D01*
X114000729Y-131506511D01*
X113886655Y-132080000D01*
X110978000Y-132080000D01*
X110978000Y-131953000D01*
X110998000Y-131953000D01*
X110998000Y-130593783D01*
X111252000Y-130593783D01*
X111252000Y-131953000D01*
X112465924Y-131953000D01*
X112610184Y-131718087D01*
X112416954Y-131165680D01*
X112027036Y-130729268D01*
X111499791Y-130475291D01*
X111484026Y-130472642D01*
X111252000Y-130593783D01*
X110998000Y-130593783D01*
X110765974Y-130472642D01*
X110750209Y-130475291D01*
X110222964Y-130729268D01*
X109851461Y-131145069D01*
X109644670Y-130835585D01*
X109158489Y-130510729D01*
X108585000Y-130396655D01*
X108011511Y-130510729D01*
X107525330Y-130835585D01*
X107515757Y-130849913D01*
X107511762Y-130828683D01*
X107372690Y-130612559D01*
X107160490Y-130467569D01*
X106908600Y-130416560D01*
X105266372Y-130416560D01*
X102845780Y-127995968D01*
X102870261Y-127971529D01*
X103240997Y-128342914D01*
X103823341Y-128584724D01*
X104453893Y-128585275D01*
X105036657Y-128344481D01*
X105410261Y-127971529D01*
X105780997Y-128342914D01*
X106363341Y-128584724D01*
X106993893Y-128585275D01*
X107576657Y-128344481D01*
X107805186Y-128116350D01*
X108283255Y-128116350D01*
X108375792Y-128378019D01*
X108967398Y-128596188D01*
X109597461Y-128571352D01*
X110064208Y-128378019D01*
X110156745Y-128116350D01*
X109220000Y-127179605D01*
X108283255Y-128116350D01*
X107805186Y-128116350D01*
X108016116Y-127905789D01*
X108103650Y-127936745D01*
X109040395Y-127000000D01*
X108103650Y-126063255D01*
X108015561Y-126094407D01*
X107805172Y-125883650D01*
X108283255Y-125883650D01*
X109220000Y-126820395D01*
X110156745Y-125883650D01*
X110064208Y-125621981D01*
X109472602Y-125403812D01*
X108842539Y-125428648D01*
X108375792Y-125621981D01*
X108283255Y-125883650D01*
X107805172Y-125883650D01*
X107579003Y-125657086D01*
X106996659Y-125415276D01*
X106366107Y-125414725D01*
X105783343Y-125655519D01*
X105409739Y-126028471D01*
X105039003Y-125657086D01*
X104628268Y-125486534D01*
X110597362Y-119517440D01*
X111570000Y-119517440D01*
X111805317Y-119473162D01*
X112021441Y-119334090D01*
X112166431Y-119121890D01*
X112217440Y-118870000D01*
X112217440Y-117070000D01*
X112173162Y-116834683D01*
X112034090Y-116618559D01*
X111821890Y-116473569D01*
X111570000Y-116422560D01*
X110170000Y-116422560D01*
X109934683Y-116466838D01*
X109718559Y-116605910D01*
X109573569Y-116818110D01*
X109522560Y-117070000D01*
X109522560Y-118442638D01*
X108859824Y-119105374D01*
X108905000Y-118996310D01*
X108905000Y-118255750D01*
X108746250Y-118097000D01*
X107697000Y-118097000D01*
X107697000Y-119346250D01*
X107855750Y-119505000D01*
X108396309Y-119505000D01*
X108505374Y-119459824D01*
X103182015Y-124783183D01*
X103184724Y-124776659D01*
X103185275Y-124146107D01*
X102944481Y-123563343D01*
X102571529Y-123189739D01*
X102942914Y-122819003D01*
X103184724Y-122236659D01*
X103185275Y-121606107D01*
X102944481Y-121023343D01*
X102571529Y-120649739D01*
X102942914Y-120279003D01*
X103184724Y-119696659D01*
X103185275Y-119066107D01*
X102944481Y-118483343D01*
X102717286Y-118255750D01*
X106235000Y-118255750D01*
X106235000Y-118996310D01*
X106331673Y-119229699D01*
X106510302Y-119408327D01*
X106743691Y-119505000D01*
X107284250Y-119505000D01*
X107443000Y-119346250D01*
X107443000Y-118097000D01*
X106393750Y-118097000D01*
X106235000Y-118255750D01*
X102717286Y-118255750D01*
X102571529Y-118109739D01*
X102942914Y-117739003D01*
X103184724Y-117156659D01*
X103184910Y-116943690D01*
X106235000Y-116943690D01*
X106235000Y-117684250D01*
X106393750Y-117843000D01*
X107443000Y-117843000D01*
X107443000Y-116593750D01*
X107697000Y-116593750D01*
X107697000Y-117843000D01*
X108746250Y-117843000D01*
X108905000Y-117684250D01*
X108905000Y-116943690D01*
X108808327Y-116710301D01*
X108629698Y-116531673D01*
X108396309Y-116435000D01*
X107855750Y-116435000D01*
X107697000Y-116593750D01*
X107443000Y-116593750D01*
X107284250Y-116435000D01*
X106743691Y-116435000D01*
X106510302Y-116531673D01*
X106331673Y-116710301D01*
X106235000Y-116943690D01*
X103184910Y-116943690D01*
X103185275Y-116526107D01*
X102944481Y-115943343D01*
X102571529Y-115569739D01*
X102942914Y-115199003D01*
X103184724Y-114616659D01*
X103185275Y-113986107D01*
X102944481Y-113403343D01*
X102571529Y-113029739D01*
X102942914Y-112659003D01*
X103184724Y-112076659D01*
X103185275Y-111446107D01*
X102944481Y-110863343D01*
X102571529Y-110489739D01*
X102942914Y-110119003D01*
X103184724Y-109536659D01*
X103185275Y-108906107D01*
X102944481Y-108323343D01*
X102571529Y-107949739D01*
X102942914Y-107579003D01*
X103184724Y-106996659D01*
X103185275Y-106366107D01*
X102944481Y-105783343D01*
X102571529Y-105409739D01*
X102942914Y-105039003D01*
X103184724Y-104456659D01*
X103185275Y-103826107D01*
X102944481Y-103243343D01*
X102571529Y-102869739D01*
X102942914Y-102499003D01*
X103184724Y-101916659D01*
X103185275Y-101286107D01*
X102944481Y-100703343D01*
X102571529Y-100329739D01*
X102942914Y-99959003D01*
X103184724Y-99376659D01*
X103184910Y-99163690D01*
X106235000Y-99163690D01*
X106235000Y-99904250D01*
X106393750Y-100063000D01*
X107443000Y-100063000D01*
X107443000Y-98813750D01*
X107284250Y-98655000D01*
X106743691Y-98655000D01*
X106510302Y-98751673D01*
X106331673Y-98930301D01*
X106235000Y-99163690D01*
X103184910Y-99163690D01*
X103185275Y-98746107D01*
X102944481Y-98163343D01*
X102571529Y-97789739D01*
X102942914Y-97419003D01*
X103184724Y-96836659D01*
X103185275Y-96206107D01*
X102944481Y-95623343D01*
X102505789Y-95183884D01*
X102536745Y-95096350D01*
X101600000Y-94159605D01*
X100663255Y-95096350D01*
X100694407Y-95184439D01*
X100257086Y-95620997D01*
X100015276Y-96203341D01*
X100014725Y-96833893D01*
X100072202Y-96972996D01*
X98437566Y-98607632D01*
X98272819Y-98854194D01*
X98214967Y-99145033D01*
X98214967Y-100764058D01*
X97976799Y-100665162D01*
X97604833Y-100664838D01*
X97261057Y-100806883D01*
X96997808Y-101069673D01*
X96855162Y-101413201D01*
X96854838Y-101785167D01*
X96012000Y-101785167D01*
X96012000Y-93727398D01*
X100003812Y-93727398D01*
X100028648Y-94357461D01*
X100221981Y-94824208D01*
X100483650Y-94916745D01*
X101420395Y-93980000D01*
X101779605Y-93980000D01*
X102716350Y-94916745D01*
X102978019Y-94824208D01*
X103101266Y-94490000D01*
X106222560Y-94490000D01*
X106222560Y-96290000D01*
X106266838Y-96525317D01*
X106405910Y-96741441D01*
X106618110Y-96886431D01*
X106870000Y-96937440D01*
X108270000Y-96937440D01*
X108505317Y-96893162D01*
X108721441Y-96754090D01*
X108866431Y-96541890D01*
X108917440Y-96290000D01*
X108917440Y-94490000D01*
X108873162Y-94254683D01*
X108734090Y-94038559D01*
X108521890Y-93893569D01*
X108270000Y-93842560D01*
X106870000Y-93842560D01*
X106634683Y-93886838D01*
X106418559Y-94025910D01*
X106273569Y-94238110D01*
X106222560Y-94490000D01*
X103101266Y-94490000D01*
X103196188Y-94232602D01*
X103171352Y-93602539D01*
X102978019Y-93135792D01*
X102716350Y-93043255D01*
X101779605Y-93980000D01*
X101420395Y-93980000D01*
X100483650Y-93043255D01*
X100221981Y-93135792D01*
X100003812Y-93727398D01*
X96012000Y-93727398D01*
X96012000Y-92863650D01*
X100663255Y-92863650D01*
X101600000Y-93800395D01*
X102536745Y-92863650D01*
X102444208Y-92601981D01*
X101852602Y-92383812D01*
X101222539Y-92408648D01*
X100755792Y-92601981D01*
X100663255Y-92863650D01*
X96012000Y-92863650D01*
X96012000Y-88900000D01*
X96553949Y-88900000D01*
X96744711Y-89859024D01*
X97287954Y-90672046D01*
X98100976Y-91215289D01*
X99060000Y-91406051D01*
X100019024Y-91215289D01*
X100832046Y-90672046D01*
X101375289Y-89859024D01*
X101509211Y-89185750D01*
X102505000Y-89185750D01*
X102505000Y-89476310D01*
X102601673Y-89709699D01*
X102780302Y-89888327D01*
X103013691Y-89985000D01*
X103106250Y-89985000D01*
X103265000Y-89826250D01*
X103265000Y-89027000D01*
X102663750Y-89027000D01*
X102505000Y-89185750D01*
X101509211Y-89185750D01*
X101566051Y-88900000D01*
X101451416Y-88323690D01*
X102505000Y-88323690D01*
X102505000Y-88614250D01*
X102663750Y-88773000D01*
X103265000Y-88773000D01*
X103265000Y-87973750D01*
X103106250Y-87815000D01*
X103013691Y-87815000D01*
X102780302Y-87911673D01*
X102601673Y-88090301D01*
X102505000Y-88323690D01*
X101451416Y-88323690D01*
X101375289Y-87940976D01*
X100832046Y-87127954D01*
X100019024Y-86584711D01*
X99060000Y-86393949D01*
X98100976Y-86584711D01*
X97287954Y-87127954D01*
X96744711Y-87940976D01*
X96553949Y-88900000D01*
X96012000Y-88900000D01*
X96012000Y-85852000D01*
X142748000Y-85852000D01*
X142748000Y-97554040D01*
G36*
X134088600Y-141886210D02*
X133974840Y-141999970D01*
X133974840Y-142191560D01*
X133952449Y-142224330D01*
X133901440Y-142476220D01*
X133901440Y-144025620D01*
X133945718Y-144260937D01*
X133974840Y-144306194D01*
X133974840Y-144501870D01*
X134133590Y-144660620D01*
X134273869Y-144660620D01*
X134344000Y-144631571D01*
X134548880Y-144673060D01*
X134944173Y-144673060D01*
X134902200Y-144880330D01*
X134902200Y-146681190D01*
X134946478Y-146916507D01*
X135085550Y-147132631D01*
X135173903Y-147193000D01*
X131527642Y-147193000D01*
X131601801Y-147145280D01*
X131746791Y-146933080D01*
X131797800Y-146681190D01*
X131797800Y-144880330D01*
X131758799Y-144673060D01*
X132146040Y-144673060D01*
X132354066Y-144633917D01*
X132547360Y-144673060D01*
X133146800Y-144673060D01*
X133356558Y-144633591D01*
X133421811Y-144660620D01*
X133562090Y-144660620D01*
X133720840Y-144501870D01*
X133720840Y-144310280D01*
X133743231Y-144277510D01*
X133794240Y-144025620D01*
X133794240Y-142476220D01*
X133749962Y-142240903D01*
X133720840Y-142195646D01*
X133720840Y-141999970D01*
X133607080Y-141886210D01*
X133607080Y-140527082D01*
X133556311Y-140271852D01*
X133549228Y-140236242D01*
X133443120Y-140077440D01*
X133800000Y-140077440D01*
X134035317Y-140033162D01*
X134088600Y-139998875D01*
X134088600Y-141886210D01*
X134088600Y-141886210D01*
G37*
X134088600Y-141886210D02*
X133974840Y-141999970D01*
X133974840Y-142191560D01*
X133952449Y-142224330D01*
X133901440Y-142476220D01*
X133901440Y-144025620D01*
X133945718Y-144260937D01*
X133974840Y-144306194D01*
X133974840Y-144501870D01*
X134133590Y-144660620D01*
X134273869Y-144660620D01*
X134344000Y-144631571D01*
X134548880Y-144673060D01*
X134944173Y-144673060D01*
X134902200Y-144880330D01*
X134902200Y-146681190D01*
X134946478Y-146916507D01*
X135085550Y-147132631D01*
X135173903Y-147193000D01*
X131527642Y-147193000D01*
X131601801Y-147145280D01*
X131746791Y-146933080D01*
X131797800Y-146681190D01*
X131797800Y-144880330D01*
X131758799Y-144673060D01*
X132146040Y-144673060D01*
X132354066Y-144633917D01*
X132547360Y-144673060D01*
X133146800Y-144673060D01*
X133356558Y-144633591D01*
X133421811Y-144660620D01*
X133562090Y-144660620D01*
X133720840Y-144501870D01*
X133720840Y-144310280D01*
X133743231Y-144277510D01*
X133794240Y-144025620D01*
X133794240Y-142476220D01*
X133749962Y-142240903D01*
X133720840Y-142195646D01*
X133720840Y-141999970D01*
X133607080Y-141886210D01*
X133607080Y-140527082D01*
X133556311Y-140271852D01*
X133549228Y-140236242D01*
X133443120Y-140077440D01*
X133800000Y-140077440D01*
X134035317Y-140033162D01*
X134088600Y-139998875D01*
X134088600Y-141886210D01*
G36*
X125745001Y-141828780D02*
X125658880Y-141828780D01*
X125449122Y-141868249D01*
X125383869Y-141841220D01*
X125243590Y-141841220D01*
X125084840Y-141999970D01*
X125084840Y-142191560D01*
X125062449Y-142224330D01*
X125011440Y-142476220D01*
X125011440Y-144025620D01*
X125055718Y-144260937D01*
X125084840Y-144306194D01*
X125084840Y-144501870D01*
X125243590Y-144660620D01*
X125383869Y-144660620D01*
X125454000Y-144631571D01*
X125658880Y-144673060D01*
X126054173Y-144673060D01*
X126012200Y-144880330D01*
X126012200Y-146681190D01*
X126056478Y-146916507D01*
X126195550Y-147132631D01*
X126283903Y-147193000D01*
X122637642Y-147193000D01*
X122711801Y-147145280D01*
X122856791Y-146933080D01*
X122907800Y-146681190D01*
X122907800Y-144880330D01*
X122868799Y-144673060D01*
X123256040Y-144673060D01*
X123464066Y-144633917D01*
X123657360Y-144673060D01*
X124256800Y-144673060D01*
X124466558Y-144633591D01*
X124531811Y-144660620D01*
X124672090Y-144660620D01*
X124830840Y-144501870D01*
X124830840Y-144310280D01*
X124853231Y-144277510D01*
X124904240Y-144025620D01*
X124904240Y-142476220D01*
X124859962Y-142240903D01*
X124830840Y-142195646D01*
X124830840Y-141999970D01*
X124717080Y-141886210D01*
X124717080Y-141067722D01*
X125707362Y-140077440D01*
X125745001Y-140077440D01*
X125745001Y-141828780D01*
X125745001Y-141828780D01*
G37*
X125745001Y-141828780D02*
X125658880Y-141828780D01*
X125449122Y-141868249D01*
X125383869Y-141841220D01*
X125243590Y-141841220D01*
X125084840Y-141999970D01*
X125084840Y-142191560D01*
X125062449Y-142224330D01*
X125011440Y-142476220D01*
X125011440Y-144025620D01*
X125055718Y-144260937D01*
X125084840Y-144306194D01*
X125084840Y-144501870D01*
X125243590Y-144660620D01*
X125383869Y-144660620D01*
X125454000Y-144631571D01*
X125658880Y-144673060D01*
X126054173Y-144673060D01*
X126012200Y-144880330D01*
X126012200Y-146681190D01*
X126056478Y-146916507D01*
X126195550Y-147132631D01*
X126283903Y-147193000D01*
X122637642Y-147193000D01*
X122711801Y-147145280D01*
X122856791Y-146933080D01*
X122907800Y-146681190D01*
X122907800Y-144880330D01*
X122868799Y-144673060D01*
X123256040Y-144673060D01*
X123464066Y-144633917D01*
X123657360Y-144673060D01*
X124256800Y-144673060D01*
X124466558Y-144633591D01*
X124531811Y-144660620D01*
X124672090Y-144660620D01*
X124830840Y-144501870D01*
X124830840Y-144310280D01*
X124853231Y-144277510D01*
X124904240Y-144025620D01*
X124904240Y-142476220D01*
X124859962Y-142240903D01*
X124830840Y-142195646D01*
X124830840Y-141999970D01*
X124717080Y-141886210D01*
X124717080Y-141067722D01*
X125707362Y-140077440D01*
X125745001Y-140077440D01*
X125745001Y-141828780D01*
G36*
X134655910Y-134251441D02*
X134868110Y-134396431D01*
X135120000Y-134447440D01*
X135192638Y-134447440D01*
X136771279Y-136026081D01*
X137017841Y-136190828D01*
X137308680Y-136248680D01*
X138215066Y-136248680D01*
X138414330Y-136384831D01*
X138666220Y-136435840D01*
X140215620Y-136435840D01*
X140422890Y-136396839D01*
X140422890Y-137383520D01*
X140467168Y-137618837D01*
X140606240Y-137834961D01*
X140818440Y-137979951D01*
X141070330Y-138030960D01*
X142748000Y-138030960D01*
X142748000Y-147193000D01*
X137125802Y-147193000D01*
X137199961Y-147145280D01*
X137344951Y-146933080D01*
X137395960Y-146681190D01*
X137395960Y-144880330D01*
X137351682Y-144645013D01*
X137212610Y-144428889D01*
X137000410Y-144283899D01*
X136748520Y-144232890D01*
X135753787Y-144232890D01*
X135795760Y-144025620D01*
X135795760Y-143510000D01*
X137193949Y-143510000D01*
X137384711Y-144469024D01*
X137927954Y-145282046D01*
X138740976Y-145825289D01*
X139700000Y-146016051D01*
X140659024Y-145825289D01*
X141472046Y-145282046D01*
X142015289Y-144469024D01*
X142206051Y-143510000D01*
X142015289Y-142550976D01*
X141472046Y-141737954D01*
X140659024Y-141194711D01*
X139700000Y-141003949D01*
X138740976Y-141194711D01*
X137927954Y-141737954D01*
X137384711Y-142550976D01*
X137193949Y-143510000D01*
X135795760Y-143510000D01*
X135795760Y-142476220D01*
X135751482Y-142240903D01*
X135612410Y-142024779D01*
X135608600Y-142022176D01*
X135608600Y-138978600D01*
X135550748Y-138687761D01*
X135386001Y-138441199D01*
X134447440Y-137502638D01*
X134447440Y-137430000D01*
X134403162Y-137194683D01*
X134264090Y-136978559D01*
X134110000Y-136873274D01*
X134110000Y-134447440D01*
X134120000Y-134447440D01*
X134355317Y-134403162D01*
X134571441Y-134264090D01*
X134619134Y-134194289D01*
X134655910Y-134251441D01*
X134655910Y-134251441D01*
G37*
X134655910Y-134251441D02*
X134868110Y-134396431D01*
X135120000Y-134447440D01*
X135192638Y-134447440D01*
X136771279Y-136026081D01*
X137017841Y-136190828D01*
X137308680Y-136248680D01*
X138215066Y-136248680D01*
X138414330Y-136384831D01*
X138666220Y-136435840D01*
X140215620Y-136435840D01*
X140422890Y-136396839D01*
X140422890Y-137383520D01*
X140467168Y-137618837D01*
X140606240Y-137834961D01*
X140818440Y-137979951D01*
X141070330Y-138030960D01*
X142748000Y-138030960D01*
X142748000Y-147193000D01*
X137125802Y-147193000D01*
X137199961Y-147145280D01*
X137344951Y-146933080D01*
X137395960Y-146681190D01*
X137395960Y-144880330D01*
X137351682Y-144645013D01*
X137212610Y-144428889D01*
X137000410Y-144283899D01*
X136748520Y-144232890D01*
X135753787Y-144232890D01*
X135795760Y-144025620D01*
X135795760Y-143510000D01*
X137193949Y-143510000D01*
X137384711Y-144469024D01*
X137927954Y-145282046D01*
X138740976Y-145825289D01*
X139700000Y-146016051D01*
X140659024Y-145825289D01*
X141472046Y-145282046D01*
X142015289Y-144469024D01*
X142206051Y-143510000D01*
X142015289Y-142550976D01*
X141472046Y-141737954D01*
X140659024Y-141194711D01*
X139700000Y-141003949D01*
X138740976Y-141194711D01*
X137927954Y-141737954D01*
X137384711Y-142550976D01*
X137193949Y-143510000D01*
X135795760Y-143510000D01*
X135795760Y-142476220D01*
X135751482Y-142240903D01*
X135612410Y-142024779D01*
X135608600Y-142022176D01*
X135608600Y-138978600D01*
X135550748Y-138687761D01*
X135386001Y-138441199D01*
X134447440Y-137502638D01*
X134447440Y-137430000D01*
X134403162Y-137194683D01*
X134264090Y-136978559D01*
X134110000Y-136873274D01*
X134110000Y-134447440D01*
X134120000Y-134447440D01*
X134355317Y-134403162D01*
X134571441Y-134264090D01*
X134619134Y-134194289D01*
X134655910Y-134251441D01*
G36*
X141070330Y-132432800D02*
X142748000Y-132432800D01*
X142748000Y-135537200D01*
X141070330Y-135537200D01*
X140863060Y-135576201D01*
X140863060Y-135188960D01*
X140823917Y-134980934D01*
X140863060Y-134787640D01*
X140863060Y-134188200D01*
X140823591Y-133978442D01*
X140850620Y-133913189D01*
X140850620Y-133772910D01*
X140691870Y-133614160D01*
X140500280Y-133614160D01*
X140467510Y-133591769D01*
X140215620Y-133540760D01*
X139293920Y-133540760D01*
X139293920Y-133433560D01*
X140215620Y-133433560D01*
X140450937Y-133389282D01*
X140496194Y-133360160D01*
X140691870Y-133360160D01*
X140850620Y-133201410D01*
X140850620Y-133061131D01*
X140821571Y-132991000D01*
X140863060Y-132786120D01*
X140863060Y-132390827D01*
X141070330Y-132432800D01*
X141070330Y-132432800D01*
G37*
X141070330Y-132432800D02*
X142748000Y-132432800D01*
X142748000Y-135537200D01*
X141070330Y-135537200D01*
X140863060Y-135576201D01*
X140863060Y-135188960D01*
X140823917Y-134980934D01*
X140863060Y-134787640D01*
X140863060Y-134188200D01*
X140823591Y-133978442D01*
X140850620Y-133913189D01*
X140850620Y-133772910D01*
X140691870Y-133614160D01*
X140500280Y-133614160D01*
X140467510Y-133591769D01*
X140215620Y-133540760D01*
X139293920Y-133540760D01*
X139293920Y-133433560D01*
X140215620Y-133433560D01*
X140450937Y-133389282D01*
X140496194Y-133360160D01*
X140691870Y-133360160D01*
X140850620Y-133201410D01*
X140850620Y-133061131D01*
X140821571Y-132991000D01*
X140863060Y-132786120D01*
X140863060Y-132390827D01*
X141070330Y-132432800D01*
G36*
X141070330Y-122272800D02*
X142748000Y-122272800D01*
X142748000Y-125377200D01*
X141070330Y-125377200D01*
X140863060Y-125416201D01*
X140863060Y-125028960D01*
X140823917Y-124820934D01*
X140863060Y-124627640D01*
X140863060Y-124028200D01*
X140823591Y-123818442D01*
X140850620Y-123753189D01*
X140850620Y-123612910D01*
X140691870Y-123454160D01*
X140500280Y-123454160D01*
X140467510Y-123431769D01*
X140215620Y-123380760D01*
X139293920Y-123380760D01*
X139293920Y-123273560D01*
X140215620Y-123273560D01*
X140450937Y-123229282D01*
X140496194Y-123200160D01*
X140691870Y-123200160D01*
X140850620Y-123041410D01*
X140850620Y-122901131D01*
X140821571Y-122831000D01*
X140863060Y-122626120D01*
X140863060Y-122230827D01*
X141070330Y-122272800D01*
X141070330Y-122272800D01*
G37*
X141070330Y-122272800D02*
X142748000Y-122272800D01*
X142748000Y-125377200D01*
X141070330Y-125377200D01*
X140863060Y-125416201D01*
X140863060Y-125028960D01*
X140823917Y-124820934D01*
X140863060Y-124627640D01*
X140863060Y-124028200D01*
X140823591Y-123818442D01*
X140850620Y-123753189D01*
X140850620Y-123612910D01*
X140691870Y-123454160D01*
X140500280Y-123454160D01*
X140467510Y-123431769D01*
X140215620Y-123380760D01*
X139293920Y-123380760D01*
X139293920Y-123273560D01*
X140215620Y-123273560D01*
X140450937Y-123229282D01*
X140496194Y-123200160D01*
X140691870Y-123200160D01*
X140850620Y-123041410D01*
X140850620Y-122901131D01*
X140821571Y-122831000D01*
X140863060Y-122626120D01*
X140863060Y-122230827D01*
X141070330Y-122272800D01*
G36*
X141070330Y-111477800D02*
X142748000Y-111477800D01*
X142748000Y-114582200D01*
X142500224Y-114582200D01*
X142539838Y-114486799D01*
X142540162Y-114114833D01*
X142398117Y-113771057D01*
X142135327Y-113507808D01*
X141791799Y-113365162D01*
X141744923Y-113365121D01*
X141375321Y-112995519D01*
X141128759Y-112830772D01*
X140837920Y-112772920D01*
X140805630Y-112772920D01*
X140691870Y-112659160D01*
X140500280Y-112659160D01*
X140467510Y-112636769D01*
X140215620Y-112585760D01*
X139293920Y-112585760D01*
X139293920Y-112478560D01*
X140215620Y-112478560D01*
X140450937Y-112434282D01*
X140496194Y-112405160D01*
X140691870Y-112405160D01*
X140850620Y-112246410D01*
X140850620Y-112106131D01*
X140821571Y-112036000D01*
X140863060Y-111831120D01*
X140863060Y-111435827D01*
X141070330Y-111477800D01*
X141070330Y-111477800D01*
G37*
X141070330Y-111477800D02*
X142748000Y-111477800D01*
X142748000Y-114582200D01*
X142500224Y-114582200D01*
X142539838Y-114486799D01*
X142540162Y-114114833D01*
X142398117Y-113771057D01*
X142135327Y-113507808D01*
X141791799Y-113365162D01*
X141744923Y-113365121D01*
X141375321Y-112995519D01*
X141128759Y-112830772D01*
X140837920Y-112772920D01*
X140805630Y-112772920D01*
X140691870Y-112659160D01*
X140500280Y-112659160D01*
X140467510Y-112636769D01*
X140215620Y-112585760D01*
X139293920Y-112585760D01*
X139293920Y-112478560D01*
X140215620Y-112478560D01*
X140450937Y-112434282D01*
X140496194Y-112405160D01*
X140691870Y-112405160D01*
X140850620Y-112246410D01*
X140850620Y-112106131D01*
X140821571Y-112036000D01*
X140863060Y-111831120D01*
X140863060Y-111435827D01*
X141070330Y-111477800D01*
G36*
X133155910Y-105041441D02*
X133368110Y-105186431D01*
X133620000Y-105237440D01*
X134078205Y-105237440D01*
X134078205Y-105308205D01*
X134136057Y-105599044D01*
X134300804Y-105845606D01*
X134310011Y-105854813D01*
X134310011Y-109410187D01*
X133692638Y-110027560D01*
X133620000Y-110027560D01*
X133475000Y-110054844D01*
X133475000Y-109782463D01*
X133507192Y-109750327D01*
X133649838Y-109406799D01*
X133650162Y-109034833D01*
X133508117Y-108691057D01*
X133245327Y-108427808D01*
X132901799Y-108285162D01*
X132529833Y-108284838D01*
X132186057Y-108426883D01*
X131922808Y-108689673D01*
X131780162Y-109033201D01*
X131779838Y-109405167D01*
X131921883Y-109748943D01*
X131955000Y-109782118D01*
X131955000Y-110470000D01*
X132012852Y-110760839D01*
X132177599Y-111007401D01*
X132735199Y-111565001D01*
X129158000Y-111565001D01*
X129158000Y-111323000D01*
X129331250Y-111323000D01*
X129405000Y-111249250D01*
X129405000Y-111323000D01*
X129981250Y-111323000D01*
X130140000Y-111164250D01*
X130140000Y-110773691D01*
X130043327Y-110540302D01*
X129864699Y-110361673D01*
X129631310Y-110265000D01*
X129563750Y-110265000D01*
X129405000Y-110423750D01*
X129405000Y-110568483D01*
X129393327Y-110540302D01*
X129214699Y-110361673D01*
X129092170Y-110310920D01*
X129046250Y-110265000D01*
X128913750Y-110265000D01*
X128867830Y-110310920D01*
X128782002Y-110346471D01*
X128782002Y-110265000D01*
X128765000Y-110265000D01*
X128765000Y-109588973D01*
X128955317Y-109553162D01*
X129171441Y-109414090D01*
X129316431Y-109201890D01*
X129367440Y-108950000D01*
X129367440Y-108450000D01*
X129323162Y-108214683D01*
X129184090Y-107998559D01*
X129114289Y-107950866D01*
X129171441Y-107914090D01*
X129316431Y-107701890D01*
X129367440Y-107450000D01*
X129367440Y-106950000D01*
X129324264Y-106720538D01*
X131144802Y-104900000D01*
X133064895Y-104900000D01*
X133155910Y-105041441D01*
X133155910Y-105041441D01*
G37*
X133155910Y-105041441D02*
X133368110Y-105186431D01*
X133620000Y-105237440D01*
X134078205Y-105237440D01*
X134078205Y-105308205D01*
X134136057Y-105599044D01*
X134300804Y-105845606D01*
X134310011Y-105854813D01*
X134310011Y-109410187D01*
X133692638Y-110027560D01*
X133620000Y-110027560D01*
X133475000Y-110054844D01*
X133475000Y-109782463D01*
X133507192Y-109750327D01*
X133649838Y-109406799D01*
X133650162Y-109034833D01*
X133508117Y-108691057D01*
X133245327Y-108427808D01*
X132901799Y-108285162D01*
X132529833Y-108284838D01*
X132186057Y-108426883D01*
X131922808Y-108689673D01*
X131780162Y-109033201D01*
X131779838Y-109405167D01*
X131921883Y-109748943D01*
X131955000Y-109782118D01*
X131955000Y-110470000D01*
X132012852Y-110760839D01*
X132177599Y-111007401D01*
X132735199Y-111565001D01*
X129158000Y-111565001D01*
X129158000Y-111323000D01*
X129331250Y-111323000D01*
X129405000Y-111249250D01*
X129405000Y-111323000D01*
X129981250Y-111323000D01*
X130140000Y-111164250D01*
X130140000Y-110773691D01*
X130043327Y-110540302D01*
X129864699Y-110361673D01*
X129631310Y-110265000D01*
X129563750Y-110265000D01*
X129405000Y-110423750D01*
X129405000Y-110568483D01*
X129393327Y-110540302D01*
X129214699Y-110361673D01*
X129092170Y-110310920D01*
X129046250Y-110265000D01*
X128913750Y-110265000D01*
X128867830Y-110310920D01*
X128782002Y-110346471D01*
X128782002Y-110265000D01*
X128765000Y-110265000D01*
X128765000Y-109588973D01*
X128955317Y-109553162D01*
X129171441Y-109414090D01*
X129316431Y-109201890D01*
X129367440Y-108950000D01*
X129367440Y-108450000D01*
X129323162Y-108214683D01*
X129184090Y-107998559D01*
X129114289Y-107950866D01*
X129171441Y-107914090D01*
X129316431Y-107701890D01*
X129367440Y-107450000D01*
X129367440Y-106950000D01*
X129324264Y-106720538D01*
X131144802Y-104900000D01*
X133064895Y-104900000D01*
X133155910Y-105041441D01*
G36*
X123758110Y-96211431D02*
X123812712Y-96222488D01*
X122267599Y-97767601D01*
X122102852Y-98014163D01*
X122045000Y-98305002D01*
X122045000Y-110265000D01*
X122027998Y-110265000D01*
X122027998Y-110396748D01*
X121896250Y-110265000D01*
X121828690Y-110265000D01*
X121595301Y-110361673D01*
X121416673Y-110540302D01*
X121320000Y-110773691D01*
X121320000Y-111164250D01*
X121478748Y-111322998D01*
X121320000Y-111322998D01*
X121320000Y-111355198D01*
X121187401Y-111222599D01*
X120940839Y-111057852D01*
X120650000Y-111000000D01*
X118240947Y-111000000D01*
X118184481Y-110863343D01*
X117811529Y-110489739D01*
X118182914Y-110119003D01*
X118424724Y-109536659D01*
X118425275Y-108906107D01*
X118184481Y-108323343D01*
X117811529Y-107949739D01*
X118182914Y-107579003D01*
X118424724Y-106996659D01*
X118425275Y-106366107D01*
X118369106Y-106230167D01*
X119079838Y-106230167D01*
X119221883Y-106573943D01*
X119484673Y-106837192D01*
X119828201Y-106979838D01*
X120200167Y-106980162D01*
X120543943Y-106838117D01*
X120807192Y-106575327D01*
X120949838Y-106231799D01*
X120950162Y-105859833D01*
X120850000Y-105617422D01*
X120850000Y-99547253D01*
X121002359Y-99395160D01*
X121145005Y-99051632D01*
X121145329Y-98679666D01*
X121003284Y-98335890D01*
X120740494Y-98072641D01*
X120396966Y-97929995D01*
X120025000Y-97929671D01*
X119681224Y-98071716D01*
X119417975Y-98334506D01*
X119275329Y-98678034D01*
X119275316Y-98692934D01*
X119243561Y-98740459D01*
X119180000Y-99060000D01*
X119180000Y-105617766D01*
X119080162Y-105858201D01*
X119079838Y-106230167D01*
X118369106Y-106230167D01*
X118184481Y-105783343D01*
X117811529Y-105409739D01*
X118182914Y-105039003D01*
X118424724Y-104456659D01*
X118425275Y-103826107D01*
X118184481Y-103243343D01*
X117811529Y-102869739D01*
X118182914Y-102499003D01*
X118424724Y-101916659D01*
X118425275Y-101286107D01*
X118184481Y-100703343D01*
X117811529Y-100329739D01*
X118182914Y-99959003D01*
X118424724Y-99376659D01*
X118425275Y-98746107D01*
X118367798Y-98607004D01*
X120849802Y-96125000D01*
X123631614Y-96125000D01*
X123758110Y-96211431D01*
X123758110Y-96211431D01*
G37*
X123758110Y-96211431D02*
X123812712Y-96222488D01*
X122267599Y-97767601D01*
X122102852Y-98014163D01*
X122045000Y-98305002D01*
X122045000Y-110265000D01*
X122027998Y-110265000D01*
X122027998Y-110396748D01*
X121896250Y-110265000D01*
X121828690Y-110265000D01*
X121595301Y-110361673D01*
X121416673Y-110540302D01*
X121320000Y-110773691D01*
X121320000Y-111164250D01*
X121478748Y-111322998D01*
X121320000Y-111322998D01*
X121320000Y-111355198D01*
X121187401Y-111222599D01*
X120940839Y-111057852D01*
X120650000Y-111000000D01*
X118240947Y-111000000D01*
X118184481Y-110863343D01*
X117811529Y-110489739D01*
X118182914Y-110119003D01*
X118424724Y-109536659D01*
X118425275Y-108906107D01*
X118184481Y-108323343D01*
X117811529Y-107949739D01*
X118182914Y-107579003D01*
X118424724Y-106996659D01*
X118425275Y-106366107D01*
X118369106Y-106230167D01*
X119079838Y-106230167D01*
X119221883Y-106573943D01*
X119484673Y-106837192D01*
X119828201Y-106979838D01*
X120200167Y-106980162D01*
X120543943Y-106838117D01*
X120807192Y-106575327D01*
X120949838Y-106231799D01*
X120950162Y-105859833D01*
X120850000Y-105617422D01*
X120850000Y-99547253D01*
X121002359Y-99395160D01*
X121145005Y-99051632D01*
X121145329Y-98679666D01*
X121003284Y-98335890D01*
X120740494Y-98072641D01*
X120396966Y-97929995D01*
X120025000Y-97929671D01*
X119681224Y-98071716D01*
X119417975Y-98334506D01*
X119275329Y-98678034D01*
X119275316Y-98692934D01*
X119243561Y-98740459D01*
X119180000Y-99060000D01*
X119180000Y-105617766D01*
X119080162Y-105858201D01*
X119079838Y-106230167D01*
X118369106Y-106230167D01*
X118184481Y-105783343D01*
X117811529Y-105409739D01*
X118182914Y-105039003D01*
X118424724Y-104456659D01*
X118425275Y-103826107D01*
X118184481Y-103243343D01*
X117811529Y-102869739D01*
X118182914Y-102499003D01*
X118424724Y-101916659D01*
X118425275Y-101286107D01*
X118184481Y-100703343D01*
X117811529Y-100329739D01*
X118182914Y-99959003D01*
X118424724Y-99376659D01*
X118425275Y-98746107D01*
X118367798Y-98607004D01*
X120849802Y-96125000D01*
X123631614Y-96125000D01*
X123758110Y-96211431D01*
G36*
X141070330Y-100047800D02*
X142748000Y-100047800D01*
X142748000Y-103152200D01*
X141070330Y-103152200D01*
X140863060Y-103191201D01*
X140863060Y-102803960D01*
X140823917Y-102595934D01*
X140863060Y-102402640D01*
X140863060Y-101803200D01*
X140823591Y-101593442D01*
X140850620Y-101528189D01*
X140850620Y-101387910D01*
X140691870Y-101229160D01*
X140500280Y-101229160D01*
X140467510Y-101206769D01*
X140215620Y-101155760D01*
X138666220Y-101155760D01*
X138430903Y-101200038D01*
X138385646Y-101229160D01*
X138189970Y-101229160D01*
X138076210Y-101342920D01*
X136622722Y-101342920D01*
X136369802Y-101090000D01*
X136597537Y-101090000D01*
X136629673Y-101122192D01*
X136973201Y-101264838D01*
X137345167Y-101265162D01*
X137688943Y-101123117D01*
X137952192Y-100860327D01*
X138057477Y-100606775D01*
X138058249Y-100610878D01*
X138031220Y-100676131D01*
X138031220Y-100816410D01*
X138189970Y-100975160D01*
X138381560Y-100975160D01*
X138414330Y-100997551D01*
X138666220Y-101048560D01*
X140215620Y-101048560D01*
X140450937Y-101004282D01*
X140496194Y-100975160D01*
X140691870Y-100975160D01*
X140850620Y-100816410D01*
X140850620Y-100676131D01*
X140821571Y-100606000D01*
X140863060Y-100401120D01*
X140863060Y-100005827D01*
X141070330Y-100047800D01*
X141070330Y-100047800D01*
G37*
X141070330Y-100047800D02*
X142748000Y-100047800D01*
X142748000Y-103152200D01*
X141070330Y-103152200D01*
X140863060Y-103191201D01*
X140863060Y-102803960D01*
X140823917Y-102595934D01*
X140863060Y-102402640D01*
X140863060Y-101803200D01*
X140823591Y-101593442D01*
X140850620Y-101528189D01*
X140850620Y-101387910D01*
X140691870Y-101229160D01*
X140500280Y-101229160D01*
X140467510Y-101206769D01*
X140215620Y-101155760D01*
X138666220Y-101155760D01*
X138430903Y-101200038D01*
X138385646Y-101229160D01*
X138189970Y-101229160D01*
X138076210Y-101342920D01*
X136622722Y-101342920D01*
X136369802Y-101090000D01*
X136597537Y-101090000D01*
X136629673Y-101122192D01*
X136973201Y-101264838D01*
X137345167Y-101265162D01*
X137688943Y-101123117D01*
X137952192Y-100860327D01*
X138057477Y-100606775D01*
X138058249Y-100610878D01*
X138031220Y-100676131D01*
X138031220Y-100816410D01*
X138189970Y-100975160D01*
X138381560Y-100975160D01*
X138414330Y-100997551D01*
X138666220Y-101048560D01*
X140215620Y-101048560D01*
X140450937Y-101004282D01*
X140496194Y-100975160D01*
X140691870Y-100975160D01*
X140850620Y-100816410D01*
X140850620Y-100676131D01*
X140821571Y-100606000D01*
X140863060Y-100401120D01*
X140863060Y-100005827D01*
X141070330Y-100047800D01*
M02*
