G04 #@! TF.FileFunction,Copper,L2,Bot,Signal*
%FSLAX46Y46*%
G04 Gerber Fmt 4.6, Leading zero omitted, Abs format (unit mm)*
G04 Created by KiCad (PCBNEW 4.0.2-4+6225~38~ubuntu14.04.1-stable) date on. 13. april 2016 kl. 20.39 +0200*
%MOMM*%
G01*
G04 APERTURE LIST*
%ADD10C,0.100000*%
%ADD11C,1.900000*%
%ADD12R,1.727200X2.032000*%
%ADD13O,1.727200X2.032000*%
%ADD14R,2.032000X1.727200*%
%ADD15O,2.032000X1.727200*%
%ADD16C,0.600000*%
%ADD17C,0.400000*%
%ADD18C,0.250000*%
G04 APERTURE END LIST*
D10*
D11*
X101600000Y-96520000D03*
X101600000Y-99060000D03*
X101600000Y-101600000D03*
X101600000Y-104140000D03*
X101600000Y-106680000D03*
X101600000Y-109220000D03*
X101600000Y-111760000D03*
X101600000Y-114300000D03*
X101600000Y-116840000D03*
X101600000Y-119380000D03*
X101600000Y-121920000D03*
X101600000Y-124460000D03*
X101600000Y-127000000D03*
X116840000Y-127000000D03*
X116840000Y-124460000D03*
X116840000Y-121920000D03*
X116840000Y-119380000D03*
X116840000Y-116840000D03*
X116840000Y-114300000D03*
X116840000Y-111760000D03*
X116840000Y-109220000D03*
X116840000Y-106680000D03*
X116840000Y-104140000D03*
X116840000Y-101600000D03*
X116840000Y-99060000D03*
X116840000Y-96520000D03*
X116840000Y-93980000D03*
X101600000Y-93980000D03*
X114300000Y-127000000D03*
X111760000Y-127000000D03*
X109220000Y-127000000D03*
X106680000Y-127000000D03*
X104140000Y-127000000D03*
X114300000Y-96520000D03*
X114300000Y-101600000D03*
X114300000Y-104140000D03*
X114300000Y-106680000D03*
D12*
X106045000Y-142240000D03*
D13*
X108585000Y-142240000D03*
X111125000Y-142240000D03*
D12*
X106045000Y-137160000D03*
D13*
X108585000Y-137160000D03*
X111125000Y-137160000D03*
D12*
X106045000Y-132080000D03*
D13*
X108585000Y-132080000D03*
X111125000Y-132080000D03*
D14*
X115570000Y-144780000D03*
D15*
X115570000Y-142240000D03*
X115570000Y-139700000D03*
X115570000Y-137160000D03*
X115570000Y-134620000D03*
X115570000Y-132080000D03*
D16*
X120210167Y-98864833D03*
X120015000Y-106045000D03*
X121285000Y-100965000D03*
X141605000Y-101633448D03*
X132715000Y-106680000D03*
X130175000Y-109220000D03*
X128270000Y-115570000D03*
X127000000Y-123190000D03*
X122555000Y-113665000D03*
X128905000Y-133985000D03*
X132080000Y-113665000D03*
X132715000Y-109220000D03*
X138430000Y-108585000D03*
X137160000Y-121285000D03*
X130175000Y-124460000D03*
X129540000Y-127635000D03*
X128270000Y-140335000D03*
X123190000Y-140970000D03*
X131445000Y-117475000D03*
X128905000Y-123190000D03*
X125095000Y-114935000D03*
X141605000Y-114300000D03*
X136525000Y-111125000D03*
X137159982Y-112395000D03*
X137160000Y-114935000D03*
X137160000Y-100330000D03*
X126365000Y-103505000D03*
X135255000Y-92710000D03*
X125730000Y-102235000D03*
X137160000Y-91440000D03*
X125095000Y-100965000D03*
X123825000Y-92710000D03*
X124460000Y-99695000D03*
X124460000Y-135890000D03*
X120015000Y-139065000D03*
X129540000Y-135890000D03*
X130175000Y-141605000D03*
X132204456Y-128145544D03*
X126365000Y-128905000D03*
X97790000Y-101600000D03*
D17*
X120210167Y-98440569D02*
X120210167Y-98864833D01*
X116840000Y-93980000D02*
X120210167Y-97350167D01*
X120210167Y-97350167D02*
X120210167Y-98440569D01*
X108585000Y-132080000D02*
X108585000Y-131927600D01*
X108585000Y-131927600D02*
X112162599Y-128350001D01*
X112162599Y-128350001D02*
X117488001Y-128350001D01*
X117488001Y-128350001D02*
X120015000Y-125823002D01*
X120015000Y-125823002D02*
X120015000Y-106045000D01*
X108585000Y-137160000D02*
X108585000Y-132080000D01*
X108585000Y-137160000D02*
X108585000Y-142240000D01*
X115570000Y-134620000D02*
X110972600Y-134620000D01*
X110972600Y-134620000D02*
X108585000Y-137007600D01*
X108585000Y-137007600D02*
X108585000Y-137160000D01*
D18*
X121285000Y-100965000D02*
X116840000Y-96520000D01*
X132715000Y-106680000D02*
X137761552Y-101633448D01*
X137761552Y-101633448D02*
X141605000Y-101633448D01*
X128270000Y-115570000D02*
X128270000Y-111125000D01*
X128270000Y-111125000D02*
X130175000Y-109220000D01*
X122555000Y-113665000D02*
X127000000Y-118110000D01*
X127000000Y-118110000D02*
X127000000Y-123190000D01*
X125095000Y-128905000D02*
X126365000Y-127635000D01*
X126365000Y-127635000D02*
X129540000Y-127635000D01*
X128905000Y-132715000D02*
X125095000Y-128905000D01*
X128905000Y-133985000D02*
X128905000Y-132715000D01*
X128905000Y-133985000D02*
X128270000Y-134620000D01*
X128270000Y-134620000D02*
X128270000Y-140335000D01*
X132715000Y-109220000D02*
X131248004Y-109220000D01*
X131248004Y-109220000D02*
X130523002Y-108494998D01*
X126274998Y-108494998D02*
X117789999Y-100009999D01*
X130523002Y-108494998D02*
X126274998Y-108494998D01*
X130900002Y-108871998D02*
X130523002Y-108494998D01*
X131445000Y-113665000D02*
X130900002Y-113120002D01*
X117789999Y-100009999D02*
X116840000Y-99060000D01*
X130900002Y-113120002D02*
X130900002Y-108871998D01*
X132080000Y-113665000D02*
X131445000Y-113665000D01*
X138430000Y-108585000D02*
X137795000Y-109220000D01*
X137795000Y-109220000D02*
X132715000Y-109220000D01*
X137160000Y-121285000D02*
X133985000Y-124460000D01*
X133985000Y-124460000D02*
X130175000Y-124460000D01*
X129540000Y-127635000D02*
X129540000Y-125095000D01*
X129540000Y-125095000D02*
X130175000Y-124460000D01*
X123190000Y-140970000D02*
X127635000Y-140970000D01*
X127635000Y-140970000D02*
X128270000Y-140335000D01*
X131445000Y-117475000D02*
X131445000Y-113665000D01*
X125095000Y-114935000D02*
X128905000Y-118745000D01*
X128905000Y-118745000D02*
X128905000Y-123190000D01*
X141305001Y-114000001D02*
X141605000Y-114300000D01*
X138430000Y-111125000D02*
X141305001Y-114000001D01*
X136525000Y-111125000D02*
X138430000Y-111125000D01*
X137160000Y-114935000D02*
X137160000Y-112395018D01*
X137160000Y-112395018D02*
X137159982Y-112395000D01*
X126365000Y-103505000D02*
X129540000Y-100330000D01*
X129540000Y-100330000D02*
X137160000Y-100330000D01*
X125730000Y-102235000D02*
X135255000Y-92710000D01*
X125095000Y-100965000D02*
X134620000Y-91440000D01*
X134620000Y-91440000D02*
X137160000Y-91440000D01*
X124460000Y-99695000D02*
X123825000Y-99060000D01*
X123825000Y-99060000D02*
X123825000Y-92710000D01*
X120015000Y-139065000D02*
X123190000Y-135890000D01*
X123190000Y-135890000D02*
X124460000Y-135890000D01*
X130175000Y-141605000D02*
X130175000Y-136525000D01*
X130175000Y-136525000D02*
X129540000Y-135890000D01*
X126365000Y-128905000D02*
X131445000Y-128905000D01*
X131904457Y-128445543D02*
X132204456Y-128145544D01*
X131445000Y-128905000D02*
X131904457Y-128445543D01*
X97790000Y-101600000D02*
X99060000Y-101600000D01*
X99060000Y-101600000D02*
X101600000Y-99060000D01*
M02*
